<?xml version="1.0" encoding="utf-8" standalone="no"?>
<!DOCTYPE svg PUBLIC "-//W3C//DTD SVG 1.1//EN"
  "http://www.w3.org/Graphics/SVG/1.1/DTD/svg11.dtd">
<!-- Created with matplotlib (http://matplotlib.org/) -->
<svg height="288pt" version="1.1" viewBox="0 0 432 288" width="432pt" xmlns="http://www.w3.org/2000/svg" xmlns:xlink="http://www.w3.org/1999/xlink">
 <defs>
  <style type="text/css">
*{stroke-linecap:butt;stroke-linejoin:round;}
  </style>
 </defs>
 <g id="figure_1">
  <g id="patch_1">
   <path d="M 0 288 
L 432 288 
L 432 0 
L 0 0 
z
" style="fill:#ffffff;"/>
  </g>
  <g id="axes_1">
   <g id="patch_2">
    <path d="M 54 252 
L 388.8 252 
L 388.8 34.56 
L 54 34.56 
z
" style="fill:#ffffff;"/>
   </g>
   <g id="matplotlib.axis_1">
    <g id="xtick_1">
     <g id="line2d_1">
      <defs>
       <path d="M 0 0 
L 0 3.5 
" id="m44e1ef0460" style="stroke:#000000;stroke-width:0.8;"/>
      </defs>
      <g>
       <use style="stroke:#000000;stroke-width:0.8;" x="54" xlink:href="#m44e1ef0460" y="252"/>
      </g>
     </g>
     <g id="text_1">
      <!-- 0.10 -->
      <defs>
       <path d="M 31.78125 66.40625 
Q 24.171875 66.40625 20.328125 58.90625 
Q 16.5 51.421875 16.5 36.375 
Q 16.5 21.390625 20.328125 13.890625 
Q 24.171875 6.390625 31.78125 6.390625 
Q 39.453125 6.390625 43.28125 13.890625 
Q 47.125 21.390625 47.125 36.375 
Q 47.125 51.421875 43.28125 58.90625 
Q 39.453125 66.40625 31.78125 66.40625 
z
M 31.78125 74.21875 
Q 44.046875 74.21875 50.515625 64.515625 
Q 56.984375 54.828125 56.984375 36.375 
Q 56.984375 17.96875 50.515625 8.265625 
Q 44.046875 -1.421875 31.78125 -1.421875 
Q 19.53125 -1.421875 13.0625 8.265625 
Q 6.59375 17.96875 6.59375 36.375 
Q 6.59375 54.828125 13.0625 64.515625 
Q 19.53125 74.21875 31.78125 74.21875 
z
" id="DejaVuSans-30"/>
       <path d="M 10.6875 12.40625 
L 21 12.40625 
L 21 0 
L 10.6875 0 
z
" id="DejaVuSans-2e"/>
       <path d="M 12.40625 8.296875 
L 28.515625 8.296875 
L 28.515625 63.921875 
L 10.984375 60.40625 
L 10.984375 69.390625 
L 28.421875 72.90625 
L 38.28125 72.90625 
L 38.28125 8.296875 
L 54.390625 8.296875 
L 54.390625 0 
L 12.40625 0 
z
" id="DejaVuSans-31"/>
      </defs>
      <g transform="translate(42.867188 266.598437)scale(0.1 -0.1)">
       <use xlink:href="#DejaVuSans-30"/>
       <use x="63.623047" xlink:href="#DejaVuSans-2e"/>
       <use x="95.410156" xlink:href="#DejaVuSans-31"/>
       <use x="159.033203" xlink:href="#DejaVuSans-30"/>
      </g>
     </g>
    </g>
    <g id="xtick_2">
     <g id="line2d_2">
      <g>
       <use style="stroke:#000000;stroke-width:0.8;" x="120.96" xlink:href="#m44e1ef0460" y="252"/>
      </g>
     </g>
     <g id="text_2">
      <!-- 0.11 -->
      <g transform="translate(109.827188 266.598437)scale(0.1 -0.1)">
       <use xlink:href="#DejaVuSans-30"/>
       <use x="63.623047" xlink:href="#DejaVuSans-2e"/>
       <use x="95.410156" xlink:href="#DejaVuSans-31"/>
       <use x="159.033203" xlink:href="#DejaVuSans-31"/>
      </g>
     </g>
    </g>
    <g id="xtick_3">
     <g id="line2d_3">
      <g>
       <use style="stroke:#000000;stroke-width:0.8;" x="187.92" xlink:href="#m44e1ef0460" y="252"/>
      </g>
     </g>
     <g id="text_3">
      <!-- 0.12 -->
      <defs>
       <path d="M 19.1875 8.296875 
L 53.609375 8.296875 
L 53.609375 0 
L 7.328125 0 
L 7.328125 8.296875 
Q 12.9375 14.109375 22.625 23.890625 
Q 32.328125 33.6875 34.8125 36.53125 
Q 39.546875 41.84375 41.421875 45.53125 
Q 43.3125 49.21875 43.3125 52.78125 
Q 43.3125 58.59375 39.234375 62.25 
Q 35.15625 65.921875 28.609375 65.921875 
Q 23.96875 65.921875 18.8125 64.3125 
Q 13.671875 62.703125 7.8125 59.421875 
L 7.8125 69.390625 
Q 13.765625 71.78125 18.9375 73 
Q 24.125 74.21875 28.421875 74.21875 
Q 39.75 74.21875 46.484375 68.546875 
Q 53.21875 62.890625 53.21875 53.421875 
Q 53.21875 48.921875 51.53125 44.890625 
Q 49.859375 40.875 45.40625 35.40625 
Q 44.1875 33.984375 37.640625 27.21875 
Q 31.109375 20.453125 19.1875 8.296875 
z
" id="DejaVuSans-32"/>
      </defs>
      <g transform="translate(176.787188 266.598437)scale(0.1 -0.1)">
       <use xlink:href="#DejaVuSans-30"/>
       <use x="63.623047" xlink:href="#DejaVuSans-2e"/>
       <use x="95.410156" xlink:href="#DejaVuSans-31"/>
       <use x="159.033203" xlink:href="#DejaVuSans-32"/>
      </g>
     </g>
    </g>
    <g id="xtick_4">
     <g id="line2d_4">
      <g>
       <use style="stroke:#000000;stroke-width:0.8;" x="254.88" xlink:href="#m44e1ef0460" y="252"/>
      </g>
     </g>
     <g id="text_4">
      <!-- 0.13 -->
      <defs>
       <path d="M 40.578125 39.3125 
Q 47.65625 37.796875 51.625 33 
Q 55.609375 28.21875 55.609375 21.1875 
Q 55.609375 10.40625 48.1875 4.484375 
Q 40.765625 -1.421875 27.09375 -1.421875 
Q 22.515625 -1.421875 17.65625 -0.515625 
Q 12.796875 0.390625 7.625 2.203125 
L 7.625 11.71875 
Q 11.71875 9.328125 16.59375 8.109375 
Q 21.484375 6.890625 26.8125 6.890625 
Q 36.078125 6.890625 40.9375 10.546875 
Q 45.796875 14.203125 45.796875 21.1875 
Q 45.796875 27.640625 41.28125 31.265625 
Q 36.765625 34.90625 28.71875 34.90625 
L 20.21875 34.90625 
L 20.21875 43.015625 
L 29.109375 43.015625 
Q 36.375 43.015625 40.234375 45.921875 
Q 44.09375 48.828125 44.09375 54.296875 
Q 44.09375 59.90625 40.109375 62.90625 
Q 36.140625 65.921875 28.71875 65.921875 
Q 24.65625 65.921875 20.015625 65.03125 
Q 15.375 64.15625 9.8125 62.3125 
L 9.8125 71.09375 
Q 15.4375 72.65625 20.34375 73.4375 
Q 25.25 74.21875 29.59375 74.21875 
Q 40.828125 74.21875 47.359375 69.109375 
Q 53.90625 64.015625 53.90625 55.328125 
Q 53.90625 49.265625 50.4375 45.09375 
Q 46.96875 40.921875 40.578125 39.3125 
z
" id="DejaVuSans-33"/>
      </defs>
      <g transform="translate(243.747188 266.598437)scale(0.1 -0.1)">
       <use xlink:href="#DejaVuSans-30"/>
       <use x="63.623047" xlink:href="#DejaVuSans-2e"/>
       <use x="95.410156" xlink:href="#DejaVuSans-31"/>
       <use x="159.033203" xlink:href="#DejaVuSans-33"/>
      </g>
     </g>
    </g>
    <g id="xtick_5">
     <g id="line2d_5">
      <g>
       <use style="stroke:#000000;stroke-width:0.8;" x="321.84" xlink:href="#m44e1ef0460" y="252"/>
      </g>
     </g>
     <g id="text_5">
      <!-- 0.14 -->
      <defs>
       <path d="M 37.796875 64.3125 
L 12.890625 25.390625 
L 37.796875 25.390625 
z
M 35.203125 72.90625 
L 47.609375 72.90625 
L 47.609375 25.390625 
L 58.015625 25.390625 
L 58.015625 17.1875 
L 47.609375 17.1875 
L 47.609375 0 
L 37.796875 0 
L 37.796875 17.1875 
L 4.890625 17.1875 
L 4.890625 26.703125 
z
" id="DejaVuSans-34"/>
      </defs>
      <g transform="translate(310.707188 266.598437)scale(0.1 -0.1)">
       <use xlink:href="#DejaVuSans-30"/>
       <use x="63.623047" xlink:href="#DejaVuSans-2e"/>
       <use x="95.410156" xlink:href="#DejaVuSans-31"/>
       <use x="159.033203" xlink:href="#DejaVuSans-34"/>
      </g>
     </g>
    </g>
    <g id="xtick_6">
     <g id="line2d_6">
      <g>
       <use style="stroke:#000000;stroke-width:0.8;" x="388.8" xlink:href="#m44e1ef0460" y="252"/>
      </g>
     </g>
     <g id="text_6">
      <!-- 0.15 -->
      <defs>
       <path d="M 10.796875 72.90625 
L 49.515625 72.90625 
L 49.515625 64.59375 
L 19.828125 64.59375 
L 19.828125 46.734375 
Q 21.96875 47.46875 24.109375 47.828125 
Q 26.265625 48.1875 28.421875 48.1875 
Q 40.625 48.1875 47.75 41.5 
Q 54.890625 34.8125 54.890625 23.390625 
Q 54.890625 11.625 47.5625 5.09375 
Q 40.234375 -1.421875 26.90625 -1.421875 
Q 22.3125 -1.421875 17.546875 -0.640625 
Q 12.796875 0.140625 7.71875 1.703125 
L 7.71875 11.625 
Q 12.109375 9.234375 16.796875 8.0625 
Q 21.484375 6.890625 26.703125 6.890625 
Q 35.15625 6.890625 40.078125 11.328125 
Q 45.015625 15.765625 45.015625 23.390625 
Q 45.015625 31 40.078125 35.4375 
Q 35.15625 39.890625 26.703125 39.890625 
Q 22.75 39.890625 18.8125 39.015625 
Q 14.890625 38.140625 10.796875 36.28125 
z
" id="DejaVuSans-35"/>
      </defs>
      <g transform="translate(377.667188 266.598437)scale(0.1 -0.1)">
       <use xlink:href="#DejaVuSans-30"/>
       <use x="63.623047" xlink:href="#DejaVuSans-2e"/>
       <use x="95.410156" xlink:href="#DejaVuSans-31"/>
       <use x="159.033203" xlink:href="#DejaVuSans-35"/>
      </g>
     </g>
    </g>
    <g id="text_7">
     <!-- Time (s) -->
     <defs>
      <path d="M -0.296875 72.90625 
L 61.375 72.90625 
L 61.375 64.59375 
L 35.5 64.59375 
L 35.5 0 
L 25.59375 0 
L 25.59375 64.59375 
L -0.296875 64.59375 
z
" id="DejaVuSans-54"/>
      <path d="M 9.421875 54.6875 
L 18.40625 54.6875 
L 18.40625 0 
L 9.421875 0 
z
M 9.421875 75.984375 
L 18.40625 75.984375 
L 18.40625 64.59375 
L 9.421875 64.59375 
z
" id="DejaVuSans-69"/>
      <path d="M 52 44.1875 
Q 55.375 50.25 60.0625 53.125 
Q 64.75 56 71.09375 56 
Q 79.640625 56 84.28125 50.015625 
Q 88.921875 44.046875 88.921875 33.015625 
L 88.921875 0 
L 79.890625 0 
L 79.890625 32.71875 
Q 79.890625 40.578125 77.09375 44.375 
Q 74.3125 48.1875 68.609375 48.1875 
Q 61.625 48.1875 57.5625 43.546875 
Q 53.515625 38.921875 53.515625 30.90625 
L 53.515625 0 
L 44.484375 0 
L 44.484375 32.71875 
Q 44.484375 40.625 41.703125 44.40625 
Q 38.921875 48.1875 33.109375 48.1875 
Q 26.21875 48.1875 22.15625 43.53125 
Q 18.109375 38.875 18.109375 30.90625 
L 18.109375 0 
L 9.078125 0 
L 9.078125 54.6875 
L 18.109375 54.6875 
L 18.109375 46.1875 
Q 21.1875 51.21875 25.484375 53.609375 
Q 29.78125 56 35.6875 56 
Q 41.65625 56 45.828125 52.96875 
Q 50 49.953125 52 44.1875 
z
" id="DejaVuSans-6d"/>
      <path d="M 56.203125 29.59375 
L 56.203125 25.203125 
L 14.890625 25.203125 
Q 15.484375 15.921875 20.484375 11.0625 
Q 25.484375 6.203125 34.421875 6.203125 
Q 39.59375 6.203125 44.453125 7.46875 
Q 49.3125 8.734375 54.109375 11.28125 
L 54.109375 2.78125 
Q 49.265625 0.734375 44.1875 -0.34375 
Q 39.109375 -1.421875 33.890625 -1.421875 
Q 20.796875 -1.421875 13.15625 6.1875 
Q 5.515625 13.8125 5.515625 26.8125 
Q 5.515625 40.234375 12.765625 48.109375 
Q 20.015625 56 32.328125 56 
Q 43.359375 56 49.78125 48.890625 
Q 56.203125 41.796875 56.203125 29.59375 
z
M 47.21875 32.234375 
Q 47.125 39.59375 43.09375 43.984375 
Q 39.0625 48.390625 32.421875 48.390625 
Q 24.90625 48.390625 20.390625 44.140625 
Q 15.875 39.890625 15.1875 32.171875 
z
" id="DejaVuSans-65"/>
      <path id="DejaVuSans-20"/>
      <path d="M 31 75.875 
Q 24.46875 64.65625 21.28125 53.65625 
Q 18.109375 42.671875 18.109375 31.390625 
Q 18.109375 20.125 21.3125 9.0625 
Q 24.515625 -2 31 -13.1875 
L 23.1875 -13.1875 
Q 15.875 -1.703125 12.234375 9.375 
Q 8.59375 20.453125 8.59375 31.390625 
Q 8.59375 42.28125 12.203125 53.3125 
Q 15.828125 64.359375 23.1875 75.875 
z
" id="DejaVuSans-28"/>
      <path d="M 44.28125 53.078125 
L 44.28125 44.578125 
Q 40.484375 46.53125 36.375 47.5 
Q 32.28125 48.484375 27.875 48.484375 
Q 21.1875 48.484375 17.84375 46.4375 
Q 14.5 44.390625 14.5 40.28125 
Q 14.5 37.15625 16.890625 35.375 
Q 19.28125 33.59375 26.515625 31.984375 
L 29.59375 31.296875 
Q 39.15625 29.25 43.1875 25.515625 
Q 47.21875 21.78125 47.21875 15.09375 
Q 47.21875 7.46875 41.1875 3.015625 
Q 35.15625 -1.421875 24.609375 -1.421875 
Q 20.21875 -1.421875 15.453125 -0.5625 
Q 10.6875 0.296875 5.421875 2 
L 5.421875 11.28125 
Q 10.40625 8.6875 15.234375 7.390625 
Q 20.0625 6.109375 24.8125 6.109375 
Q 31.15625 6.109375 34.5625 8.28125 
Q 37.984375 10.453125 37.984375 14.40625 
Q 37.984375 18.0625 35.515625 20.015625 
Q 33.0625 21.96875 24.703125 23.78125 
L 21.578125 24.515625 
Q 13.234375 26.265625 9.515625 29.90625 
Q 5.8125 33.546875 5.8125 39.890625 
Q 5.8125 47.609375 11.28125 51.796875 
Q 16.75 56 26.8125 56 
Q 31.78125 56 36.171875 55.265625 
Q 40.578125 54.546875 44.28125 53.078125 
z
" id="DejaVuSans-73"/>
      <path d="M 8.015625 75.875 
L 15.828125 75.875 
Q 23.140625 64.359375 26.78125 53.3125 
Q 30.421875 42.28125 30.421875 31.390625 
Q 30.421875 20.453125 26.78125 9.375 
Q 23.140625 -1.703125 15.828125 -13.1875 
L 8.015625 -13.1875 
Q 14.5 -2 17.703125 9.0625 
Q 20.90625 20.125 20.90625 31.390625 
Q 20.90625 42.671875 17.703125 53.65625 
Q 14.5 64.65625 8.015625 75.875 
z
" id="DejaVuSans-29"/>
     </defs>
     <g transform="translate(200.917188 280.276563)scale(0.1 -0.1)">
      <use xlink:href="#DejaVuSans-54"/>
      <use x="61.037109" xlink:href="#DejaVuSans-69"/>
      <use x="88.820312" xlink:href="#DejaVuSans-6d"/>
      <use x="186.232422" xlink:href="#DejaVuSans-65"/>
      <use x="247.755859" xlink:href="#DejaVuSans-20"/>
      <use x="279.542969" xlink:href="#DejaVuSans-28"/>
      <use x="318.556641" xlink:href="#DejaVuSans-73"/>
      <use x="370.65625" xlink:href="#DejaVuSans-29"/>
     </g>
    </g>
   </g>
   <g id="matplotlib.axis_2">
    <g id="ytick_1">
     <g id="line2d_7">
      <defs>
       <path d="M 0 0 
L -3.5 0 
" id="m37a72e25b6" style="stroke:#000000;stroke-width:0.8;"/>
      </defs>
      <g>
       <use style="stroke:#000000;stroke-width:0.8;" x="54" xlink:href="#m37a72e25b6" y="252"/>
      </g>
     </g>
     <g id="text_8">
      <!-- −1.00 -->
      <defs>
       <path d="M 10.59375 35.5 
L 73.1875 35.5 
L 73.1875 27.203125 
L 10.59375 27.203125 
z
" id="DejaVuSans-2212"/>
      </defs>
      <g transform="translate(16.354687 255.799219)scale(0.1 -0.1)">
       <use xlink:href="#DejaVuSans-2212"/>
       <use x="83.789062" xlink:href="#DejaVuSans-31"/>
       <use x="147.412109" xlink:href="#DejaVuSans-2e"/>
       <use x="179.199219" xlink:href="#DejaVuSans-30"/>
       <use x="242.822266" xlink:href="#DejaVuSans-30"/>
      </g>
     </g>
    </g>
    <g id="ytick_2">
     <g id="line2d_8">
      <g>
       <use style="stroke:#000000;stroke-width:0.8;" x="54" xlink:href="#m37a72e25b6" y="224.82"/>
      </g>
     </g>
     <g id="text_9">
      <!-- −0.75 -->
      <defs>
       <path d="M 8.203125 72.90625 
L 55.078125 72.90625 
L 55.078125 68.703125 
L 28.609375 0 
L 18.3125 0 
L 43.21875 64.59375 
L 8.203125 64.59375 
z
" id="DejaVuSans-37"/>
      </defs>
      <g transform="translate(16.354687 228.619219)scale(0.1 -0.1)">
       <use xlink:href="#DejaVuSans-2212"/>
       <use x="83.789062" xlink:href="#DejaVuSans-30"/>
       <use x="147.412109" xlink:href="#DejaVuSans-2e"/>
       <use x="179.199219" xlink:href="#DejaVuSans-37"/>
       <use x="242.822266" xlink:href="#DejaVuSans-35"/>
      </g>
     </g>
    </g>
    <g id="ytick_3">
     <g id="line2d_9">
      <g>
       <use style="stroke:#000000;stroke-width:0.8;" x="54" xlink:href="#m37a72e25b6" y="197.64"/>
      </g>
     </g>
     <g id="text_10">
      <!-- −0.50 -->
      <g transform="translate(16.354687 201.439219)scale(0.1 -0.1)">
       <use xlink:href="#DejaVuSans-2212"/>
       <use x="83.789062" xlink:href="#DejaVuSans-30"/>
       <use x="147.412109" xlink:href="#DejaVuSans-2e"/>
       <use x="179.199219" xlink:href="#DejaVuSans-35"/>
       <use x="242.822266" xlink:href="#DejaVuSans-30"/>
      </g>
     </g>
    </g>
    <g id="ytick_4">
     <g id="line2d_10">
      <g>
       <use style="stroke:#000000;stroke-width:0.8;" x="54" xlink:href="#m37a72e25b6" y="170.46"/>
      </g>
     </g>
     <g id="text_11">
      <!-- −0.25 -->
      <g transform="translate(16.354687 174.259219)scale(0.1 -0.1)">
       <use xlink:href="#DejaVuSans-2212"/>
       <use x="83.789062" xlink:href="#DejaVuSans-30"/>
       <use x="147.412109" xlink:href="#DejaVuSans-2e"/>
       <use x="179.199219" xlink:href="#DejaVuSans-32"/>
       <use x="242.822266" xlink:href="#DejaVuSans-35"/>
      </g>
     </g>
    </g>
    <g id="ytick_5">
     <g id="line2d_11">
      <g>
       <use style="stroke:#000000;stroke-width:0.8;" x="54" xlink:href="#m37a72e25b6" y="143.28"/>
      </g>
     </g>
     <g id="text_12">
      <!-- 0.00 -->
      <g transform="translate(24.734375 147.079219)scale(0.1 -0.1)">
       <use xlink:href="#DejaVuSans-30"/>
       <use x="63.623047" xlink:href="#DejaVuSans-2e"/>
       <use x="95.410156" xlink:href="#DejaVuSans-30"/>
       <use x="159.033203" xlink:href="#DejaVuSans-30"/>
      </g>
     </g>
    </g>
    <g id="ytick_6">
     <g id="line2d_12">
      <g>
       <use style="stroke:#000000;stroke-width:0.8;" x="54" xlink:href="#m37a72e25b6" y="116.1"/>
      </g>
     </g>
     <g id="text_13">
      <!-- 0.25 -->
      <g transform="translate(24.734375 119.899219)scale(0.1 -0.1)">
       <use xlink:href="#DejaVuSans-30"/>
       <use x="63.623047" xlink:href="#DejaVuSans-2e"/>
       <use x="95.410156" xlink:href="#DejaVuSans-32"/>
       <use x="159.033203" xlink:href="#DejaVuSans-35"/>
      </g>
     </g>
    </g>
    <g id="ytick_7">
     <g id="line2d_13">
      <g>
       <use style="stroke:#000000;stroke-width:0.8;" x="54" xlink:href="#m37a72e25b6" y="88.92"/>
      </g>
     </g>
     <g id="text_14">
      <!-- 0.50 -->
      <g transform="translate(24.734375 92.719219)scale(0.1 -0.1)">
       <use xlink:href="#DejaVuSans-30"/>
       <use x="63.623047" xlink:href="#DejaVuSans-2e"/>
       <use x="95.410156" xlink:href="#DejaVuSans-35"/>
       <use x="159.033203" xlink:href="#DejaVuSans-30"/>
      </g>
     </g>
    </g>
    <g id="ytick_8">
     <g id="line2d_14">
      <g>
       <use style="stroke:#000000;stroke-width:0.8;" x="54" xlink:href="#m37a72e25b6" y="61.74"/>
      </g>
     </g>
     <g id="text_15">
      <!-- 0.75 -->
      <g transform="translate(24.734375 65.539219)scale(0.1 -0.1)">
       <use xlink:href="#DejaVuSans-30"/>
       <use x="63.623047" xlink:href="#DejaVuSans-2e"/>
       <use x="95.410156" xlink:href="#DejaVuSans-37"/>
       <use x="159.033203" xlink:href="#DejaVuSans-35"/>
      </g>
     </g>
    </g>
    <g id="ytick_9">
     <g id="line2d_15">
      <g>
       <use style="stroke:#000000;stroke-width:0.8;" x="54" xlink:href="#m37a72e25b6" y="34.56"/>
      </g>
     </g>
     <g id="text_16">
      <!-- 1.00 -->
      <g transform="translate(24.734375 38.359219)scale(0.1 -0.1)">
       <use xlink:href="#DejaVuSans-31"/>
       <use x="63.623047" xlink:href="#DejaVuSans-2e"/>
       <use x="95.410156" xlink:href="#DejaVuSans-30"/>
       <use x="159.033203" xlink:href="#DejaVuSans-30"/>
      </g>
     </g>
    </g>
    <g id="text_17">
     <!-- Amplitude -->
     <defs>
      <path d="M 34.1875 63.1875 
L 20.796875 26.90625 
L 47.609375 26.90625 
z
M 28.609375 72.90625 
L 39.796875 72.90625 
L 67.578125 0 
L 57.328125 0 
L 50.6875 18.703125 
L 17.828125 18.703125 
L 11.1875 0 
L 0.78125 0 
z
" id="DejaVuSans-41"/>
      <path d="M 18.109375 8.203125 
L 18.109375 -20.796875 
L 9.078125 -20.796875 
L 9.078125 54.6875 
L 18.109375 54.6875 
L 18.109375 46.390625 
Q 20.953125 51.265625 25.265625 53.625 
Q 29.59375 56 35.59375 56 
Q 45.5625 56 51.78125 48.09375 
Q 58.015625 40.1875 58.015625 27.296875 
Q 58.015625 14.40625 51.78125 6.484375 
Q 45.5625 -1.421875 35.59375 -1.421875 
Q 29.59375 -1.421875 25.265625 0.953125 
Q 20.953125 3.328125 18.109375 8.203125 
z
M 48.6875 27.296875 
Q 48.6875 37.203125 44.609375 42.84375 
Q 40.53125 48.484375 33.40625 48.484375 
Q 26.265625 48.484375 22.1875 42.84375 
Q 18.109375 37.203125 18.109375 27.296875 
Q 18.109375 17.390625 22.1875 11.75 
Q 26.265625 6.109375 33.40625 6.109375 
Q 40.53125 6.109375 44.609375 11.75 
Q 48.6875 17.390625 48.6875 27.296875 
z
" id="DejaVuSans-70"/>
      <path d="M 9.421875 75.984375 
L 18.40625 75.984375 
L 18.40625 0 
L 9.421875 0 
z
" id="DejaVuSans-6c"/>
      <path d="M 18.3125 70.21875 
L 18.3125 54.6875 
L 36.8125 54.6875 
L 36.8125 47.703125 
L 18.3125 47.703125 
L 18.3125 18.015625 
Q 18.3125 11.328125 20.140625 9.421875 
Q 21.96875 7.515625 27.59375 7.515625 
L 36.8125 7.515625 
L 36.8125 0 
L 27.59375 0 
Q 17.1875 0 13.234375 3.875 
Q 9.28125 7.765625 9.28125 18.015625 
L 9.28125 47.703125 
L 2.6875 47.703125 
L 2.6875 54.6875 
L 9.28125 54.6875 
L 9.28125 70.21875 
z
" id="DejaVuSans-74"/>
      <path d="M 8.5 21.578125 
L 8.5 54.6875 
L 17.484375 54.6875 
L 17.484375 21.921875 
Q 17.484375 14.15625 20.5 10.265625 
Q 23.53125 6.390625 29.59375 6.390625 
Q 36.859375 6.390625 41.078125 11.03125 
Q 45.3125 15.671875 45.3125 23.6875 
L 45.3125 54.6875 
L 54.296875 54.6875 
L 54.296875 0 
L 45.3125 0 
L 45.3125 8.40625 
Q 42.046875 3.421875 37.71875 1 
Q 33.40625 -1.421875 27.6875 -1.421875 
Q 18.265625 -1.421875 13.375 4.4375 
Q 8.5 10.296875 8.5 21.578125 
z
M 31.109375 56 
z
" id="DejaVuSans-75"/>
      <path d="M 45.40625 46.390625 
L 45.40625 75.984375 
L 54.390625 75.984375 
L 54.390625 0 
L 45.40625 0 
L 45.40625 8.203125 
Q 42.578125 3.328125 38.25 0.953125 
Q 33.9375 -1.421875 27.875 -1.421875 
Q 17.96875 -1.421875 11.734375 6.484375 
Q 5.515625 14.40625 5.515625 27.296875 
Q 5.515625 40.1875 11.734375 48.09375 
Q 17.96875 56 27.875 56 
Q 33.9375 56 38.25 53.625 
Q 42.578125 51.265625 45.40625 46.390625 
z
M 14.796875 27.296875 
Q 14.796875 17.390625 18.875 11.75 
Q 22.953125 6.109375 30.078125 6.109375 
Q 37.203125 6.109375 41.296875 11.75 
Q 45.40625 17.390625 45.40625 27.296875 
Q 45.40625 37.203125 41.296875 42.84375 
Q 37.203125 48.484375 30.078125 48.484375 
Q 22.953125 48.484375 18.875 42.84375 
Q 14.796875 37.203125 14.796875 27.296875 
z
" id="DejaVuSans-64"/>
     </defs>
     <g transform="translate(10.275 168.902656)rotate(-90)scale(0.1 -0.1)">
      <use xlink:href="#DejaVuSans-41"/>
      <use x="68.408203" xlink:href="#DejaVuSans-6d"/>
      <use x="165.820312" xlink:href="#DejaVuSans-70"/>
      <use x="229.296875" xlink:href="#DejaVuSans-6c"/>
      <use x="257.080078" xlink:href="#DejaVuSans-69"/>
      <use x="284.863281" xlink:href="#DejaVuSans-74"/>
      <use x="324.072266" xlink:href="#DejaVuSans-75"/>
      <use x="387.451172" xlink:href="#DejaVuSans-64"/>
      <use x="450.927734" xlink:href="#DejaVuSans-65"/>
     </g>
    </g>
   </g>
   <g id="line2d_16">
    <path clip-path="url(#pc9b5d52d84)" d="M 53.852168 118.127425 
L 54.307681 116.480479 
L 54.611356 116.389939 
L 54.763194 116.450299 
L 55.066869 117.187546 
L 55.370545 118.394731 
L 57.344434 128.621317 
L 58.103622 133.29485 
L 58.710973 136.972455 
L 59.621999 141.753772 
L 60.229349 146.500599 
L 61.595888 158.106826 
L 62.658751 165.211977 
L 63.873453 172.674971 
L 64.177128 173.731259 
L 64.632641 173.886467 
L 65.391829 173.157844 
L 65.543667 173.153531 
L 65.99918 173.692455 
L 66.302855 174.106347 
L 66.758368 174.089103 
L 67.213881 173.222516 
L 67.669394 171.937726 
L 68.276744 170.088144 
L 69.035933 167.449581 
L 69.491445 164.397125 
L 69.946958 160.081437 
L 70.857984 148.677844 
L 71.920848 136.261078 
L 72.831874 128.487665 
L 73.439224 122.55521 
L 75.413114 99.510897 
L 76.779652 89.77581 
L 77.842516 80.786589 
L 78.146191 79.372457 
L 78.449866 78.885267 
L 78.601704 78.859398 
L 78.753542 79.053416 
L 79.209055 80.834011 
L 80.12008 85.054849 
L 80.727431 86.365511 
L 81.031106 86.650058 
L 81.638457 86.878563 
L 81.942132 87.344193 
L 82.245807 88.258201 
L 82.549483 90.133654 
L 83.004996 94.436408 
L 83.916022 108.077605 
L 84.523372 116.174372 
L 84.978885 119.95976 
L 85.434398 122.193053 
L 86.041749 124.853174 
L 86.497261 128.625629 
L 87.104612 136.649102 
L 88.471151 157.567905 
L 89.078501 163.427066 
L 89.534014 166.294131 
L 89.989527 168.208384 
L 91.356066 172.541316 
L 91.811579 175.171257 
L 92.267092 178.702275 
L 93.633631 191.239762 
L 93.937306 192.028741 
L 94.089144 191.826108 
L 94.392819 190.248143 
L 94.848332 184.945151 
L 95.759358 168.988743 
L 96.366708 160.18491 
L 96.822221 156.688383 
L 97.125896 155.683833 
L 97.277734 155.485509 
L 97.429572 155.507066 
L 97.885085 156.132216 
L 98.340598 156.908264 
L 98.796111 157.201437 
L 99.099786 157.248863 
L 100.010812 157.102275 
L 100.466325 156.49006 
L 100.77 155.360479 
L 101.073675 153.42467 
L 101.529188 148.108743 
L 101.984701 139.701557 
L 102.592052 123.710658 
L 104.565941 65.558805 
L 105.173292 55.698682 
L 105.780642 50.020599 
L 106.387993 46.662038 
L 106.691668 45.717845 
L 106.843506 45.911856 
L 107.299019 48.308979 
L 108.361882 55.427063 
L 108.817395 60.501559 
L 109.424746 71.206709 
L 111.398635 110.069461 
L 112.157823 118.812935 
L 113.220687 129.082635 
L 113.828037 137.640719 
L 114.587225 152.838323 
L 116.105602 185.828982 
L 116.712952 194.300838 
L 117.168465 197.849104 
L 117.472141 198.909701 
L 117.623978 199.026105 
L 117.775816 198.909701 
L 118.079491 198.004311 
L 118.535004 195.184672 
L 119.294192 189.07545 
L 119.901543 184.397605 
L 120.357056 181.93581 
L 120.660731 181.039042 
L 120.964406 180.728623 
L 121.116244 180.836409 
L 121.419919 181.690061 
L 121.723595 183.16024 
L 122.330945 187.631136 
L 122.938296 193.757605 
L 123.697484 203.371979 
L 124.60851 214.952334 
L 125.064023 218.957607 
L 125.519536 221.070177 
L 125.671373 221.259879 
L 125.823211 221.246944 
L 125.975049 221.113296 
L 126.278724 220.173412 
L 126.734237 217.245987 
L 127.341587 210.817722 
L 128.100776 199.319283 
L 131.289366 147.388743 
L 132.200392 135.847185 
L 133.415093 123.499402 
L 134.022444 119.399281 
L 134.326119 118.39042 
L 134.629794 118.092934 
L 134.93347 118.217963 
L 135.237145 118.705149 
L 136.148171 120.80479 
L 136.603684 122.339641 
L 137.211034 125.366228 
L 140.095949 141.326946 
L 143.891891 170.32527 
L 144.347403 172.27401 
L 144.651079 172.925029 
L 144.954754 173.166466 
L 145.410267 172.890538 
L 145.86578 172.597367 
L 146.169455 172.696527 
L 146.47313 173.183713 
L 146.928643 174.498682 
L 147.535994 176.425869 
L 147.839669 176.839761 
L 147.991507 176.779401 
L 148.295182 176.167185 
L 148.750695 174.166707 
L 149.509883 169.769102 
L 150.876422 161.12048 
L 151.787448 152.670179 
L 153.913175 130.216527 
L 155.735227 112.79425 
L 157.253603 95.147783 
L 157.709116 92.81533 
L 158.012791 92.41006 
L 158.164629 92.435929 
L 158.468304 92.841199 
L 159.075655 93.845749 
L 159.227492 93.893174 
L 159.37933 93.824193 
L 159.683005 93.250778 
L 160.290356 91.371019 
L 160.745869 90.120719 
L 160.897707 89.982756 
L 161.049544 90.008621 
L 161.353219 90.487185 
L 161.656895 91.595209 
L 162.112408 94.453652 
L 162.871596 100.687906 
L 164.086297 110.72479 
L 165.452836 120.106347 
L 166.212024 125.724072 
L 166.819375 131.798803 
L 167.578563 141.913293 
L 168.641426 155.981318 
L 169.096939 159.503712 
L 169.400615 160.771257 
L 169.70429 161.314491 
L 170.007965 161.443833 
L 170.31164 161.56024 
L 170.615316 162.051737 
L 170.918991 163.151138 
L 171.222666 165.108502 
L 171.678179 169.635449 
L 173.044718 185.596167 
L 173.500231 187.838085 
L 173.652069 188.053653 
L 173.803906 188.045031 
L 174.107581 187.320718 
L 174.563094 184.837366 
L 175.170445 179.943953 
L 176.536984 166.643353 
L 177.599847 156.903951 
L 178.207198 153.252216 
L 178.510873 152.342515 
L 178.662711 152.195928 
L 178.814548 152.226108 
L 179.118224 152.855569 
L 179.573737 155.032815 
L 180.6366 160.779881 
L 180.788438 161.021318 
L 180.940275 160.93509 
L 181.243951 159.852935 
L 181.547626 157.399761 
L 182.003139 151.10515 
L 182.610489 138.852216 
L 185.191729 81.372932 
L 186.406431 61.152575 
L 187.165619 51.14156 
L 187.621132 47.485512 
L 187.924807 46.442158 
L 188.076645 46.407664 
L 188.228482 46.700836 
L 188.532158 48.261557 
L 188.987671 52.805751 
L 189.595021 62.191619 
L 191.265235 90.461316 
L 192.328099 102.908264 
L 193.239125 113.992815 
L 193.998313 126.090539 
L 194.909339 144.905389 
L 196.427715 178.430657 
L 197.035066 187.57078 
L 197.490579 192.097723 
L 197.946091 194.800959 
L 198.249767 195.607185 
L 198.401604 195.74084 
L 198.70528 195.460599 
L 199.160793 193.632575 
L 199.616306 190.722394 
L 200.982844 181.314969 
L 201.438357 179.538684 
L 201.742033 178.99545 
L 202.045708 179.068741 
L 202.349383 179.771498 
L 202.804896 182.276407 
L 203.260409 186.380837 
L 204.171435 197.849104 
L 205.234298 210.442634 
L 205.841649 215.430898 
L 206.297162 217.573653 
L 206.600837 218.004788 
L 206.752675 217.918562 
L 207.05635 217.034732 
L 207.360025 215.254131 
L 207.815538 211.205751 
L 208.726564 200.496285 
L 210.093103 181.47018 
L 212.978018 139.046228 
L 213.889044 128.914491 
L 214.344557 125.4697 
L 214.80007 123.417485 
L 215.103745 122.740599 
L 215.40742 122.52503 
L 215.711096 122.688863 
L 216.166609 123.206227 
L 217.077634 125.017005 
L 217.684985 127.056288 
L 218.444173 130.78994 
L 219.355199 134.967664 
L 220.418063 139.028982 
L 220.873576 142.051258 
L 221.480926 147.806946 
L 222.695627 159.982275 
L 223.302978 163.858203 
L 223.910328 166.457964 
L 224.517679 168.350659 
L 227.098919 174.748744 
L 227.402594 174.977246 
L 227.554432 175.067784 
L 228.161782 174.774609 
L 229.224646 173.433772 
L 229.680159 172.317127 
L 229.983834 171.062514 
L 230.439347 168.044551 
L 231.046698 162.047424 
L 232.413236 148.190659 
L 233.324262 142.667784 
L 233.779775 139.550659 
L 234.387126 133.385389 
L 235.146314 122.951856 
L 236.209177 108.767424 
L 236.816528 103.016047 
L 237.423879 98.924551 
L 238.031229 96.031617 
L 238.942255 92.996406 
L 240.916144 87.292455 
L 241.21982 87.102753 
L 241.523495 87.464913 
L 241.979008 89.120478 
L 242.434521 91.978922 
L 243.952897 102.701319 
L 244.560248 104.831139 
L 245.015761 106.21509 
L 245.471274 108.426827 
L 245.926787 112.225151 
L 246.534137 119.912336 
L 247.900676 138.985868 
L 248.508027 143.918084 
L 248.96354 146.03497 
L 250.178241 150.126467 
L 250.633754 152.881437 
L 251.392942 159.848622 
L 252.911318 175.154013 
L 253.518669 179.198083 
L 254.126019 181.922875 
L 254.429695 182.729102 
L 254.73337 183.074011 
L 254.885208 183.005029 
L 255.037045 182.802396 
L 255.340721 181.784911 
L 255.644396 180.025869 
L 256.099909 175.968862 
L 256.707259 168.544671 
L 257.92196 153.885988 
L 258.377473 151.087904 
L 258.681149 150.458443 
L 258.832986 150.458443 
L 259.136662 151.221557 
L 259.592175 153.679042 
L 260.655038 160.210779 
L 260.958713 160.956647 
L 261.110551 161.02994 
L 261.262389 160.810059 
L 261.566064 159.68048 
L 261.869739 157.628263 
L 262.325252 152.989222 
L 263.08444 142.426347 
L 264.450979 119.498443 
L 265.362005 100.610298 
L 267.184057 61.644073 
L 267.791407 54.202633 
L 268.095083 52.206467 
L 268.398758 51.404553 
L 268.550595 51.4606 
L 268.702433 51.80551 
L 269.006108 53.336046 
L 269.461621 57.367188 
L 270.22081 66.735807 
L 271.435511 81.536765 
L 273.864913 109.233053 
L 274.775939 125.749941 
L 277.509016 180.211259 
L 278.116367 187.230179 
L 278.57188 190.377485 
L 278.875555 191.308744 
L 279.027393 191.403591 
L 279.17923 191.364791 
L 279.482906 190.649103 
L 279.938419 188.41581 
L 280.697607 182.996407 
L 281.912308 174.421078 
L 282.367821 172.631858 
L 282.671496 172.217963 
L 282.823334 172.29557 
L 283.127009 173.097484 
L 283.430684 174.740119 
L 283.886197 178.581555 
L 284.645386 187.458682 
L 285.860087 201.862995 
L 286.467437 206.894372 
L 286.92295 209.140597 
L 287.226626 209.774368 
L 287.378463 209.800237 
L 287.682138 209.32168 
L 287.985814 208.140362 
L 288.441327 205.402632 
L 289.200515 199.077844 
L 290.111541 189.903233 
L 290.870729 180.215568 
L 293.907482 136.907784 
L 294.818508 127.733174 
L 295.274021 124.874731 
L 295.729534 123.473533 
L 295.881371 123.257963 
L 296.185046 123.33988 
L 296.488722 123.788264 
L 297.399748 126.120719 
L 298.007098 127.392575 
L 298.614449 128.259162 
L 299.221799 129.289581 
L 299.677312 130.565749 
L 300.132825 132.639521 
L 300.588338 135.398802 
L 301.651202 144.090539 
L 302.714065 152.066587 
L 304.536117 163.233055 
L 305.143467 165.69485 
L 305.59898 166.462275 
L 306.054493 166.733891 
L 306.510006 167.065868 
L 306.813682 167.583234 
L 307.269194 169.070659 
L 308.483896 173.912336 
L 308.787571 174.214132 
L 309.091246 173.86491 
L 309.394921 172.946586 
L 309.850434 170.635688 
L 311.824324 159.132934 
L 313.190863 151.95018 
L 313.950051 146.388503 
L 314.557401 140.503473 
L 315.468427 129.449101 
L 316.531291 116.851258 
L 317.138641 111.884551 
L 317.745992 108.517365 
L 318.50518 104.611259 
L 319.416206 98.070899 
L 320.175394 93.052454 
L 320.479069 91.884071 
L 320.782745 91.388263 
L 320.934582 91.414132 
L 321.08642 91.569343 
L 321.390095 92.371257 
L 321.845608 94.289819 
L 322.756634 98.428743 
L 323.212147 99.644552 
L 323.66766 100.123113 
L 324.27501 100.683593 
L 324.578686 101.382037 
L 324.882361 102.619402 
L 325.337874 105.663235 
L 325.945225 111.884551 
L 327.767276 132.600718 
L 328.526464 137.670898 
L 331.41138 152.989222 
L 332.322406 159.417485 
L 333.537107 170.385628 
L 334.296295 176.861317 
L 334.751808 179.405029 
L 335.055483 180.112095 
L 335.207321 180.12503 
L 335.359158 179.913771 
L 335.662834 178.706588 
L 335.966509 176.550899 
L 336.422022 171.67042 
L 338.092236 151.156886 
L 338.547749 148.854611 
L 338.851424 148.345868 
L 339.003262 148.380359 
L 339.306937 148.94515 
L 339.76245 150.484312 
L 340.521638 153.687665 
L 341.128989 155.502754 
L 341.584502 156.0503 
L 341.736339 156.089101 
L 342.040015 155.890778 
L 342.495528 154.92503 
L 342.951041 153.161676 
L 343.406553 150.380839 
L 343.862066 146.509222 
L 344.469417 139.154012 
L 345.076768 128.88 
L 345.987793 108.724311 
L 347.354332 77.367665 
L 347.961683 67.835208 
L 348.417196 63.51521 
L 348.720871 62.04503 
L 349.024546 61.60527 
L 349.176384 61.747543 
L 349.480059 62.592576 
L 349.935572 64.925033 
L 350.998436 72.991614 
L 352.66865 86.994967 
L 353.579676 96.022995 
L 354.338864 105.783951 
L 355.098052 118.381796 
L 356.312753 143.241198 
L 357.679292 170.45461 
L 358.43848 181.71593 
L 359.045831 187.333652 
L 359.349506 188.842636 
L 359.653181 189.454851 
L 359.805019 189.446229 
L 360.108694 188.872814 
L 360.564207 186.781797 
L 361.171558 182.444552 
L 362.689934 170.346826 
L 363.145447 168.557604 
L 363.297285 168.316168 
L 363.449122 168.367904 
L 363.60096 168.553293 
L 363.904635 169.713055 
L 364.360148 173.006946 
L 364.967499 179.357604 
L 366.485875 196.021077 
L 367.245063 202.10012 
L 367.852414 205.363835 
L 368.307927 206.536528 
L 368.611602 206.670182 
L 368.915278 206.26491 
L 369.218953 205.35521 
L 369.674466 203.143473 
L 370.433654 197.918086 
L 371.34468 189.748022 
L 372.255706 179.055807 
L 373.470407 161.28 
L 374.53327 146.996407 
L 375.140621 141.702036 
L 375.596134 139.365269 
L 376.051647 138.033054 
L 377.11451 136.261078 
L 377.873698 135.157366 
L 378.329211 134.954731 
L 378.632887 135.075449 
L 379.0884 135.601437 
L 380.303101 137.83473 
L 381.062289 139.861078 
L 381.517802 141.921916 
L 382.125152 146.147066 
L 383.643529 157.813652 
L 384.099042 159.624431 
L 384.554555 160.611737 
L 385.617418 162.06467 
L 386.072931 163.181317 
L 386.832119 165.966467 
L 388.046821 170.579641 
L 388.502333 171.5497 
L 388.806009 171.808384 
L 388.806009 171.808384 
" style="fill:none;stroke:#1f77b4;stroke-linecap:square;stroke-width:1.5;"/>
   </g>
   <g id="patch_3">
    <path d="M 54 252 
L 54 34.56 
" style="fill:none;stroke:#000000;stroke-linecap:square;stroke-linejoin:miter;stroke-width:0.8;"/>
   </g>
   <g id="patch_4">
    <path d="M 388.8 252 
L 388.8 34.56 
" style="fill:none;stroke:#000000;stroke-linecap:square;stroke-linejoin:miter;stroke-width:0.8;"/>
   </g>
   <g id="patch_5">
    <path d="M 54 252 
L 388.8 252 
" style="fill:none;stroke:#000000;stroke-linecap:square;stroke-linejoin:miter;stroke-width:0.8;"/>
   </g>
   <g id="patch_6">
    <path d="M 54 34.56 
L 388.8 34.56 
" style="fill:none;stroke:#000000;stroke-linecap:square;stroke-linejoin:miter;stroke-width:0.8;"/>
   </g>
   <g id="text_18">
    <!-- Amplitude vs. Time -->
    <defs>
     <path d="M 2.984375 54.6875 
L 12.5 54.6875 
L 29.59375 8.796875 
L 46.6875 54.6875 
L 56.203125 54.6875 
L 35.6875 0 
L 23.484375 0 
z
" id="DejaVuSans-76"/>
    </defs>
    <g transform="translate(163.390312 28.56)scale(0.12 -0.12)">
     <use xlink:href="#DejaVuSans-41"/>
     <use x="68.408203" xlink:href="#DejaVuSans-6d"/>
     <use x="165.820312" xlink:href="#DejaVuSans-70"/>
     <use x="229.296875" xlink:href="#DejaVuSans-6c"/>
     <use x="257.080078" xlink:href="#DejaVuSans-69"/>
     <use x="284.863281" xlink:href="#DejaVuSans-74"/>
     <use x="324.072266" xlink:href="#DejaVuSans-75"/>
     <use x="387.451172" xlink:href="#DejaVuSans-64"/>
     <use x="450.927734" xlink:href="#DejaVuSans-65"/>
     <use x="512.451172" xlink:href="#DejaVuSans-20"/>
     <use x="544.238281" xlink:href="#DejaVuSans-76"/>
     <use x="603.417969" xlink:href="#DejaVuSans-73"/>
     <use x="655.517578" xlink:href="#DejaVuSans-2e"/>
     <use x="687.304688" xlink:href="#DejaVuSans-20"/>
     <use x="719.091797" xlink:href="#DejaVuSans-54"/>
     <use x="780.128906" xlink:href="#DejaVuSans-69"/>
     <use x="807.912109" xlink:href="#DejaVuSans-6d"/>
     <use x="905.324219" xlink:href="#DejaVuSans-65"/>
    </g>
   </g>
  </g>
 </g>
 <defs>
  <clipPath id="pc9b5d52d84">
   <rect height="217.44" width="334.8" x="54" y="34.56"/>
  </clipPath>
 </defs>
</svg>
