<?xml version="1.0" encoding="utf-8" standalone="no"?>
<!DOCTYPE svg PUBLIC "-//W3C//DTD SVG 1.1//EN"
  "http://www.w3.org/Graphics/SVG/1.1/DTD/svg11.dtd">
<!-- Created with matplotlib (https://matplotlib.org/) -->
<svg height="288pt" version="1.1" viewBox="0 0 432 288" width="432pt" xmlns="http://www.w3.org/2000/svg" xmlns:xlink="http://www.w3.org/1999/xlink">
 <defs>
  <style type="text/css">
*{stroke-linecap:butt;stroke-linejoin:round;}
  </style>
 </defs>
 <g id="figure_1">
  <g id="patch_1">
   <path d="M 0 288 
L 432 288 
L 432 0 
L 0 0 
z
" style="fill:#ffffff;"/>
  </g>
  <g id="axes_1">
   <g id="patch_2">
    <path d="M 54 252 
L 388.8 252 
L 388.8 34.56 
L 54 34.56 
z
" style="fill:#ffffff;"/>
   </g>
   <g id="matplotlib.axis_1">
    <g id="xtick_1">
     <g id="line2d_1">
      <defs>
       <path d="M 0 0 
L 0 3.5 
" id="mfb2536f1c0" style="stroke:#000000;stroke-width:0.8;"/>
      </defs>
      <g>
       <use style="stroke:#000000;stroke-width:0.8;" x="54" xlink:href="#mfb2536f1c0" y="252"/>
      </g>
     </g>
     <g id="text_1">
      <!-- 0 -->
      <defs>
       <path d="M 31.78125 66.40625 
Q 24.171875 66.40625 20.328125 58.90625 
Q 16.5 51.421875 16.5 36.375 
Q 16.5 21.390625 20.328125 13.890625 
Q 24.171875 6.390625 31.78125 6.390625 
Q 39.453125 6.390625 43.28125 13.890625 
Q 47.125 21.390625 47.125 36.375 
Q 47.125 51.421875 43.28125 58.90625 
Q 39.453125 66.40625 31.78125 66.40625 
z
M 31.78125 74.21875 
Q 44.046875 74.21875 50.515625 64.515625 
Q 56.984375 54.828125 56.984375 36.375 
Q 56.984375 17.96875 50.515625 8.265625 
Q 44.046875 -1.421875 31.78125 -1.421875 
Q 19.53125 -1.421875 13.0625 8.265625 
Q 6.59375 17.96875 6.59375 36.375 
Q 6.59375 54.828125 13.0625 64.515625 
Q 19.53125 74.21875 31.78125 74.21875 
z
" id="DejaVuSans-48"/>
      </defs>
      <g transform="translate(50.81875 266.598437)scale(0.1 -0.1)">
       <use xlink:href="#DejaVuSans-48"/>
      </g>
     </g>
    </g>
    <g id="xtick_2">
     <g id="line2d_2">
      <g>
       <use style="stroke:#000000;stroke-width:0.8;" x="120.96" xlink:href="#mfb2536f1c0" y="252"/>
      </g>
     </g>
     <g id="text_2">
      <!-- 200 -->
      <defs>
       <path d="M 19.1875 8.296875 
L 53.609375 8.296875 
L 53.609375 0 
L 7.328125 0 
L 7.328125 8.296875 
Q 12.9375 14.109375 22.625 23.890625 
Q 32.328125 33.6875 34.8125 36.53125 
Q 39.546875 41.84375 41.421875 45.53125 
Q 43.3125 49.21875 43.3125 52.78125 
Q 43.3125 58.59375 39.234375 62.25 
Q 35.15625 65.921875 28.609375 65.921875 
Q 23.96875 65.921875 18.8125 64.3125 
Q 13.671875 62.703125 7.8125 59.421875 
L 7.8125 69.390625 
Q 13.765625 71.78125 18.9375 73 
Q 24.125 74.21875 28.421875 74.21875 
Q 39.75 74.21875 46.484375 68.546875 
Q 53.21875 62.890625 53.21875 53.421875 
Q 53.21875 48.921875 51.53125 44.890625 
Q 49.859375 40.875 45.40625 35.40625 
Q 44.1875 33.984375 37.640625 27.21875 
Q 31.109375 20.453125 19.1875 8.296875 
z
" id="DejaVuSans-50"/>
      </defs>
      <g transform="translate(111.41625 266.598437)scale(0.1 -0.1)">
       <use xlink:href="#DejaVuSans-50"/>
       <use x="63.623047" xlink:href="#DejaVuSans-48"/>
       <use x="127.246094" xlink:href="#DejaVuSans-48"/>
      </g>
     </g>
    </g>
    <g id="xtick_3">
     <g id="line2d_3">
      <g>
       <use style="stroke:#000000;stroke-width:0.8;" x="187.92" xlink:href="#mfb2536f1c0" y="252"/>
      </g>
     </g>
     <g id="text_3">
      <!-- 400 -->
      <defs>
       <path d="M 37.796875 64.3125 
L 12.890625 25.390625 
L 37.796875 25.390625 
z
M 35.203125 72.90625 
L 47.609375 72.90625 
L 47.609375 25.390625 
L 58.015625 25.390625 
L 58.015625 17.1875 
L 47.609375 17.1875 
L 47.609375 0 
L 37.796875 0 
L 37.796875 17.1875 
L 4.890625 17.1875 
L 4.890625 26.703125 
z
" id="DejaVuSans-52"/>
      </defs>
      <g transform="translate(178.37625 266.598437)scale(0.1 -0.1)">
       <use xlink:href="#DejaVuSans-52"/>
       <use x="63.623047" xlink:href="#DejaVuSans-48"/>
       <use x="127.246094" xlink:href="#DejaVuSans-48"/>
      </g>
     </g>
    </g>
    <g id="xtick_4">
     <g id="line2d_4">
      <g>
       <use style="stroke:#000000;stroke-width:0.8;" x="254.88" xlink:href="#mfb2536f1c0" y="252"/>
      </g>
     </g>
     <g id="text_4">
      <!-- 600 -->
      <defs>
       <path d="M 33.015625 40.375 
Q 26.375 40.375 22.484375 35.828125 
Q 18.609375 31.296875 18.609375 23.390625 
Q 18.609375 15.53125 22.484375 10.953125 
Q 26.375 6.390625 33.015625 6.390625 
Q 39.65625 6.390625 43.53125 10.953125 
Q 47.40625 15.53125 47.40625 23.390625 
Q 47.40625 31.296875 43.53125 35.828125 
Q 39.65625 40.375 33.015625 40.375 
z
M 52.59375 71.296875 
L 52.59375 62.3125 
Q 48.875 64.0625 45.09375 64.984375 
Q 41.3125 65.921875 37.59375 65.921875 
Q 27.828125 65.921875 22.671875 59.328125 
Q 17.53125 52.734375 16.796875 39.40625 
Q 19.671875 43.65625 24.015625 45.921875 
Q 28.375 48.1875 33.59375 48.1875 
Q 44.578125 48.1875 50.953125 41.515625 
Q 57.328125 34.859375 57.328125 23.390625 
Q 57.328125 12.15625 50.6875 5.359375 
Q 44.046875 -1.421875 33.015625 -1.421875 
Q 20.359375 -1.421875 13.671875 8.265625 
Q 6.984375 17.96875 6.984375 36.375 
Q 6.984375 53.65625 15.1875 63.9375 
Q 23.390625 74.21875 37.203125 74.21875 
Q 40.921875 74.21875 44.703125 73.484375 
Q 48.484375 72.75 52.59375 71.296875 
z
" id="DejaVuSans-54"/>
      </defs>
      <g transform="translate(245.33625 266.598437)scale(0.1 -0.1)">
       <use xlink:href="#DejaVuSans-54"/>
       <use x="63.623047" xlink:href="#DejaVuSans-48"/>
       <use x="127.246094" xlink:href="#DejaVuSans-48"/>
      </g>
     </g>
    </g>
    <g id="xtick_5">
     <g id="line2d_5">
      <g>
       <use style="stroke:#000000;stroke-width:0.8;" x="321.84" xlink:href="#mfb2536f1c0" y="252"/>
      </g>
     </g>
     <g id="text_5">
      <!-- 800 -->
      <defs>
       <path d="M 31.78125 34.625 
Q 24.75 34.625 20.71875 30.859375 
Q 16.703125 27.09375 16.703125 20.515625 
Q 16.703125 13.921875 20.71875 10.15625 
Q 24.75 6.390625 31.78125 6.390625 
Q 38.8125 6.390625 42.859375 10.171875 
Q 46.921875 13.96875 46.921875 20.515625 
Q 46.921875 27.09375 42.890625 30.859375 
Q 38.875 34.625 31.78125 34.625 
z
M 21.921875 38.8125 
Q 15.578125 40.375 12.03125 44.71875 
Q 8.5 49.078125 8.5 55.328125 
Q 8.5 64.0625 14.71875 69.140625 
Q 20.953125 74.21875 31.78125 74.21875 
Q 42.671875 74.21875 48.875 69.140625 
Q 55.078125 64.0625 55.078125 55.328125 
Q 55.078125 49.078125 51.53125 44.71875 
Q 48 40.375 41.703125 38.8125 
Q 48.828125 37.15625 52.796875 32.3125 
Q 56.78125 27.484375 56.78125 20.515625 
Q 56.78125 9.90625 50.3125 4.234375 
Q 43.84375 -1.421875 31.78125 -1.421875 
Q 19.734375 -1.421875 13.25 4.234375 
Q 6.78125 9.90625 6.78125 20.515625 
Q 6.78125 27.484375 10.78125 32.3125 
Q 14.796875 37.15625 21.921875 38.8125 
z
M 18.3125 54.390625 
Q 18.3125 48.734375 21.84375 45.5625 
Q 25.390625 42.390625 31.78125 42.390625 
Q 38.140625 42.390625 41.71875 45.5625 
Q 45.3125 48.734375 45.3125 54.390625 
Q 45.3125 60.0625 41.71875 63.234375 
Q 38.140625 66.40625 31.78125 66.40625 
Q 25.390625 66.40625 21.84375 63.234375 
Q 18.3125 60.0625 18.3125 54.390625 
z
" id="DejaVuSans-56"/>
      </defs>
      <g transform="translate(312.29625 266.598437)scale(0.1 -0.1)">
       <use xlink:href="#DejaVuSans-56"/>
       <use x="63.623047" xlink:href="#DejaVuSans-48"/>
       <use x="127.246094" xlink:href="#DejaVuSans-48"/>
      </g>
     </g>
    </g>
    <g id="xtick_6">
     <g id="line2d_6">
      <g>
       <use style="stroke:#000000;stroke-width:0.8;" x="388.8" xlink:href="#mfb2536f1c0" y="252"/>
      </g>
     </g>
     <g id="text_6">
      <!-- 1000 -->
      <defs>
       <path d="M 12.40625 8.296875 
L 28.515625 8.296875 
L 28.515625 63.921875 
L 10.984375 60.40625 
L 10.984375 69.390625 
L 28.421875 72.90625 
L 38.28125 72.90625 
L 38.28125 8.296875 
L 54.390625 8.296875 
L 54.390625 0 
L 12.40625 0 
z
" id="DejaVuSans-49"/>
      </defs>
      <g transform="translate(376.075 266.598437)scale(0.1 -0.1)">
       <use xlink:href="#DejaVuSans-49"/>
       <use x="63.623047" xlink:href="#DejaVuSans-48"/>
       <use x="127.246094" xlink:href="#DejaVuSans-48"/>
       <use x="190.869141" xlink:href="#DejaVuSans-48"/>
      </g>
     </g>
    </g>
    <g id="text_7">
     <!-- Frequency (Hz) -->
     <defs>
      <path d="M 9.8125 72.90625 
L 51.703125 72.90625 
L 51.703125 64.59375 
L 19.671875 64.59375 
L 19.671875 43.109375 
L 48.578125 43.109375 
L 48.578125 34.8125 
L 19.671875 34.8125 
L 19.671875 0 
L 9.8125 0 
z
" id="DejaVuSans-70"/>
      <path d="M 41.109375 46.296875 
Q 39.59375 47.171875 37.8125 47.578125 
Q 36.03125 48 33.890625 48 
Q 26.265625 48 22.1875 43.046875 
Q 18.109375 38.09375 18.109375 28.8125 
L 18.109375 0 
L 9.078125 0 
L 9.078125 54.6875 
L 18.109375 54.6875 
L 18.109375 46.1875 
Q 20.953125 51.171875 25.484375 53.578125 
Q 30.03125 56 36.53125 56 
Q 37.453125 56 38.578125 55.875 
Q 39.703125 55.765625 41.0625 55.515625 
z
" id="DejaVuSans-114"/>
      <path d="M 56.203125 29.59375 
L 56.203125 25.203125 
L 14.890625 25.203125 
Q 15.484375 15.921875 20.484375 11.0625 
Q 25.484375 6.203125 34.421875 6.203125 
Q 39.59375 6.203125 44.453125 7.46875 
Q 49.3125 8.734375 54.109375 11.28125 
L 54.109375 2.78125 
Q 49.265625 0.734375 44.1875 -0.34375 
Q 39.109375 -1.421875 33.890625 -1.421875 
Q 20.796875 -1.421875 13.15625 6.1875 
Q 5.515625 13.8125 5.515625 26.8125 
Q 5.515625 40.234375 12.765625 48.109375 
Q 20.015625 56 32.328125 56 
Q 43.359375 56 49.78125 48.890625 
Q 56.203125 41.796875 56.203125 29.59375 
z
M 47.21875 32.234375 
Q 47.125 39.59375 43.09375 43.984375 
Q 39.0625 48.390625 32.421875 48.390625 
Q 24.90625 48.390625 20.390625 44.140625 
Q 15.875 39.890625 15.1875 32.171875 
z
" id="DejaVuSans-101"/>
      <path d="M 14.796875 27.296875 
Q 14.796875 17.390625 18.875 11.75 
Q 22.953125 6.109375 30.078125 6.109375 
Q 37.203125 6.109375 41.296875 11.75 
Q 45.40625 17.390625 45.40625 27.296875 
Q 45.40625 37.203125 41.296875 42.84375 
Q 37.203125 48.484375 30.078125 48.484375 
Q 22.953125 48.484375 18.875 42.84375 
Q 14.796875 37.203125 14.796875 27.296875 
z
M 45.40625 8.203125 
Q 42.578125 3.328125 38.25 0.953125 
Q 33.9375 -1.421875 27.875 -1.421875 
Q 17.96875 -1.421875 11.734375 6.484375 
Q 5.515625 14.40625 5.515625 27.296875 
Q 5.515625 40.1875 11.734375 48.09375 
Q 17.96875 56 27.875 56 
Q 33.9375 56 38.25 53.625 
Q 42.578125 51.265625 45.40625 46.390625 
L 45.40625 54.6875 
L 54.390625 54.6875 
L 54.390625 -20.796875 
L 45.40625 -20.796875 
z
" id="DejaVuSans-113"/>
      <path d="M 8.5 21.578125 
L 8.5 54.6875 
L 17.484375 54.6875 
L 17.484375 21.921875 
Q 17.484375 14.15625 20.5 10.265625 
Q 23.53125 6.390625 29.59375 6.390625 
Q 36.859375 6.390625 41.078125 11.03125 
Q 45.3125 15.671875 45.3125 23.6875 
L 45.3125 54.6875 
L 54.296875 54.6875 
L 54.296875 0 
L 45.3125 0 
L 45.3125 8.40625 
Q 42.046875 3.421875 37.71875 1 
Q 33.40625 -1.421875 27.6875 -1.421875 
Q 18.265625 -1.421875 13.375 4.4375 
Q 8.5 10.296875 8.5 21.578125 
z
M 31.109375 56 
z
" id="DejaVuSans-117"/>
      <path d="M 54.890625 33.015625 
L 54.890625 0 
L 45.90625 0 
L 45.90625 32.71875 
Q 45.90625 40.484375 42.875 44.328125 
Q 39.84375 48.1875 33.796875 48.1875 
Q 26.515625 48.1875 22.3125 43.546875 
Q 18.109375 38.921875 18.109375 30.90625 
L 18.109375 0 
L 9.078125 0 
L 9.078125 54.6875 
L 18.109375 54.6875 
L 18.109375 46.1875 
Q 21.34375 51.125 25.703125 53.5625 
Q 30.078125 56 35.796875 56 
Q 45.21875 56 50.046875 50.171875 
Q 54.890625 44.34375 54.890625 33.015625 
z
" id="DejaVuSans-110"/>
      <path d="M 48.78125 52.59375 
L 48.78125 44.1875 
Q 44.96875 46.296875 41.140625 47.34375 
Q 37.3125 48.390625 33.40625 48.390625 
Q 24.65625 48.390625 19.8125 42.84375 
Q 14.984375 37.3125 14.984375 27.296875 
Q 14.984375 17.28125 19.8125 11.734375 
Q 24.65625 6.203125 33.40625 6.203125 
Q 37.3125 6.203125 41.140625 7.25 
Q 44.96875 8.296875 48.78125 10.40625 
L 48.78125 2.09375 
Q 45.015625 0.34375 40.984375 -0.53125 
Q 36.96875 -1.421875 32.421875 -1.421875 
Q 20.0625 -1.421875 12.78125 6.34375 
Q 5.515625 14.109375 5.515625 27.296875 
Q 5.515625 40.671875 12.859375 48.328125 
Q 20.21875 56 33.015625 56 
Q 37.15625 56 41.109375 55.140625 
Q 45.0625 54.296875 48.78125 52.59375 
z
" id="DejaVuSans-99"/>
      <path d="M 32.171875 -5.078125 
Q 28.375 -14.84375 24.75 -17.8125 
Q 21.140625 -20.796875 15.09375 -20.796875 
L 7.90625 -20.796875 
L 7.90625 -13.28125 
L 13.1875 -13.28125 
Q 16.890625 -13.28125 18.9375 -11.515625 
Q 21 -9.765625 23.484375 -3.21875 
L 25.09375 0.875 
L 2.984375 54.6875 
L 12.5 54.6875 
L 29.59375 11.921875 
L 46.6875 54.6875 
L 56.203125 54.6875 
z
" id="DejaVuSans-121"/>
      <path id="DejaVuSans-32"/>
      <path d="M 31 75.875 
Q 24.46875 64.65625 21.28125 53.65625 
Q 18.109375 42.671875 18.109375 31.390625 
Q 18.109375 20.125 21.3125 9.0625 
Q 24.515625 -2 31 -13.1875 
L 23.1875 -13.1875 
Q 15.875 -1.703125 12.234375 9.375 
Q 8.59375 20.453125 8.59375 31.390625 
Q 8.59375 42.28125 12.203125 53.3125 
Q 15.828125 64.359375 23.1875 75.875 
z
" id="DejaVuSans-40"/>
      <path d="M 9.8125 72.90625 
L 19.671875 72.90625 
L 19.671875 43.015625 
L 55.515625 43.015625 
L 55.515625 72.90625 
L 65.375 72.90625 
L 65.375 0 
L 55.515625 0 
L 55.515625 34.71875 
L 19.671875 34.71875 
L 19.671875 0 
L 9.8125 0 
z
" id="DejaVuSans-72"/>
      <path d="M 5.515625 54.6875 
L 48.1875 54.6875 
L 48.1875 46.484375 
L 14.40625 7.171875 
L 48.1875 7.171875 
L 48.1875 0 
L 4.296875 0 
L 4.296875 8.203125 
L 38.09375 47.515625 
L 5.515625 47.515625 
z
" id="DejaVuSans-122"/>
      <path d="M 8.015625 75.875 
L 15.828125 75.875 
Q 23.140625 64.359375 26.78125 53.3125 
Q 30.421875 42.28125 30.421875 31.390625 
Q 30.421875 20.453125 26.78125 9.375 
Q 23.140625 -1.703125 15.828125 -13.1875 
L 8.015625 -13.1875 
Q 14.5 -2 17.703125 9.0625 
Q 20.90625 20.125 20.90625 31.390625 
Q 20.90625 42.671875 17.703125 53.65625 
Q 14.5 64.65625 8.015625 75.875 
z
" id="DejaVuSans-41"/>
     </defs>
     <g transform="translate(183.227344 280.276563)scale(0.1 -0.1)">
      <use xlink:href="#DejaVuSans-70"/>
      <use x="57.410156" xlink:href="#DejaVuSans-114"/>
      <use x="98.492188" xlink:href="#DejaVuSans-101"/>
      <use x="160.015625" xlink:href="#DejaVuSans-113"/>
      <use x="223.492188" xlink:href="#DejaVuSans-117"/>
      <use x="286.871094" xlink:href="#DejaVuSans-101"/>
      <use x="348.394531" xlink:href="#DejaVuSans-110"/>
      <use x="411.773438" xlink:href="#DejaVuSans-99"/>
      <use x="466.753906" xlink:href="#DejaVuSans-121"/>
      <use x="525.933594" xlink:href="#DejaVuSans-32"/>
      <use x="557.720703" xlink:href="#DejaVuSans-40"/>
      <use x="596.734375" xlink:href="#DejaVuSans-72"/>
      <use x="671.929688" xlink:href="#DejaVuSans-122"/>
      <use x="724.419922" xlink:href="#DejaVuSans-41"/>
     </g>
    </g>
   </g>
   <g id="matplotlib.axis_2">
    <g id="ytick_1">
     <g id="line2d_7">
      <defs>
       <path d="M 0 0 
L -3.5 0 
" id="m269dca437b" style="stroke:#000000;stroke-width:0.8;"/>
      </defs>
      <g>
       <use style="stroke:#000000;stroke-width:0.8;" x="54" xlink:href="#m269dca437b" y="252"/>
      </g>
     </g>
     <g id="text_8">
      <!-- 0.0 -->
      <defs>
       <path d="M 10.6875 12.40625 
L 21 12.40625 
L 21 0 
L 10.6875 0 
z
" id="DejaVuSans-46"/>
      </defs>
      <g transform="translate(31.096875 255.799219)scale(0.1 -0.1)">
       <use xlink:href="#DejaVuSans-48"/>
       <use x="63.623047" xlink:href="#DejaVuSans-46"/>
       <use x="95.410156" xlink:href="#DejaVuSans-48"/>
      </g>
     </g>
    </g>
    <g id="ytick_2">
     <g id="line2d_8">
      <g>
       <use style="stroke:#000000;stroke-width:0.8;" x="54" xlink:href="#m269dca437b" y="208.512"/>
      </g>
     </g>
     <g id="text_9">
      <!-- 0.2 -->
      <g transform="translate(31.096875 212.311219)scale(0.1 -0.1)">
       <use xlink:href="#DejaVuSans-48"/>
       <use x="63.623047" xlink:href="#DejaVuSans-46"/>
       <use x="95.410156" xlink:href="#DejaVuSans-50"/>
      </g>
     </g>
    </g>
    <g id="ytick_3">
     <g id="line2d_9">
      <g>
       <use style="stroke:#000000;stroke-width:0.8;" x="54" xlink:href="#m269dca437b" y="165.024"/>
      </g>
     </g>
     <g id="text_10">
      <!-- 0.4 -->
      <g transform="translate(31.096875 168.823219)scale(0.1 -0.1)">
       <use xlink:href="#DejaVuSans-48"/>
       <use x="63.623047" xlink:href="#DejaVuSans-46"/>
       <use x="95.410156" xlink:href="#DejaVuSans-52"/>
      </g>
     </g>
    </g>
    <g id="ytick_4">
     <g id="line2d_10">
      <g>
       <use style="stroke:#000000;stroke-width:0.8;" x="54" xlink:href="#m269dca437b" y="121.536"/>
      </g>
     </g>
     <g id="text_11">
      <!-- 0.6 -->
      <g transform="translate(31.096875 125.335219)scale(0.1 -0.1)">
       <use xlink:href="#DejaVuSans-48"/>
       <use x="63.623047" xlink:href="#DejaVuSans-46"/>
       <use x="95.410156" xlink:href="#DejaVuSans-54"/>
      </g>
     </g>
    </g>
    <g id="ytick_5">
     <g id="line2d_11">
      <g>
       <use style="stroke:#000000;stroke-width:0.8;" x="54" xlink:href="#m269dca437b" y="78.048"/>
      </g>
     </g>
     <g id="text_12">
      <!-- 0.8 -->
      <g transform="translate(31.096875 81.847219)scale(0.1 -0.1)">
       <use xlink:href="#DejaVuSans-48"/>
       <use x="63.623047" xlink:href="#DejaVuSans-46"/>
       <use x="95.410156" xlink:href="#DejaVuSans-56"/>
      </g>
     </g>
    </g>
    <g id="ytick_6">
     <g id="line2d_12">
      <g>
       <use style="stroke:#000000;stroke-width:0.8;" x="54" xlink:href="#m269dca437b" y="34.56"/>
      </g>
     </g>
     <g id="text_13">
      <!-- 1.0 -->
      <g transform="translate(31.096875 38.359219)scale(0.1 -0.1)">
       <use xlink:href="#DejaVuSans-49"/>
       <use x="63.623047" xlink:href="#DejaVuSans-46"/>
       <use x="95.410156" xlink:href="#DejaVuSans-48"/>
      </g>
     </g>
    </g>
    <g id="text_14">
     <!-- Amplitude -->
     <defs>
      <path d="M 34.1875 63.1875 
L 20.796875 26.90625 
L 47.609375 26.90625 
z
M 28.609375 72.90625 
L 39.796875 72.90625 
L 67.578125 0 
L 57.328125 0 
L 50.6875 18.703125 
L 17.828125 18.703125 
L 11.1875 0 
L 0.78125 0 
z
" id="DejaVuSans-65"/>
      <path d="M 52 44.1875 
Q 55.375 50.25 60.0625 53.125 
Q 64.75 56 71.09375 56 
Q 79.640625 56 84.28125 50.015625 
Q 88.921875 44.046875 88.921875 33.015625 
L 88.921875 0 
L 79.890625 0 
L 79.890625 32.71875 
Q 79.890625 40.578125 77.09375 44.375 
Q 74.3125 48.1875 68.609375 48.1875 
Q 61.625 48.1875 57.5625 43.546875 
Q 53.515625 38.921875 53.515625 30.90625 
L 53.515625 0 
L 44.484375 0 
L 44.484375 32.71875 
Q 44.484375 40.625 41.703125 44.40625 
Q 38.921875 48.1875 33.109375 48.1875 
Q 26.21875 48.1875 22.15625 43.53125 
Q 18.109375 38.875 18.109375 30.90625 
L 18.109375 0 
L 9.078125 0 
L 9.078125 54.6875 
L 18.109375 54.6875 
L 18.109375 46.1875 
Q 21.1875 51.21875 25.484375 53.609375 
Q 29.78125 56 35.6875 56 
Q 41.65625 56 45.828125 52.96875 
Q 50 49.953125 52 44.1875 
z
" id="DejaVuSans-109"/>
      <path d="M 18.109375 8.203125 
L 18.109375 -20.796875 
L 9.078125 -20.796875 
L 9.078125 54.6875 
L 18.109375 54.6875 
L 18.109375 46.390625 
Q 20.953125 51.265625 25.265625 53.625 
Q 29.59375 56 35.59375 56 
Q 45.5625 56 51.78125 48.09375 
Q 58.015625 40.1875 58.015625 27.296875 
Q 58.015625 14.40625 51.78125 6.484375 
Q 45.5625 -1.421875 35.59375 -1.421875 
Q 29.59375 -1.421875 25.265625 0.953125 
Q 20.953125 3.328125 18.109375 8.203125 
z
M 48.6875 27.296875 
Q 48.6875 37.203125 44.609375 42.84375 
Q 40.53125 48.484375 33.40625 48.484375 
Q 26.265625 48.484375 22.1875 42.84375 
Q 18.109375 37.203125 18.109375 27.296875 
Q 18.109375 17.390625 22.1875 11.75 
Q 26.265625 6.109375 33.40625 6.109375 
Q 40.53125 6.109375 44.609375 11.75 
Q 48.6875 17.390625 48.6875 27.296875 
z
" id="DejaVuSans-112"/>
      <path d="M 9.421875 75.984375 
L 18.40625 75.984375 
L 18.40625 0 
L 9.421875 0 
z
" id="DejaVuSans-108"/>
      <path d="M 9.421875 54.6875 
L 18.40625 54.6875 
L 18.40625 0 
L 9.421875 0 
z
M 9.421875 75.984375 
L 18.40625 75.984375 
L 18.40625 64.59375 
L 9.421875 64.59375 
z
" id="DejaVuSans-105"/>
      <path d="M 18.3125 70.21875 
L 18.3125 54.6875 
L 36.8125 54.6875 
L 36.8125 47.703125 
L 18.3125 47.703125 
L 18.3125 18.015625 
Q 18.3125 11.328125 20.140625 9.421875 
Q 21.96875 7.515625 27.59375 7.515625 
L 36.8125 7.515625 
L 36.8125 0 
L 27.59375 0 
Q 17.1875 0 13.234375 3.875 
Q 9.28125 7.765625 9.28125 18.015625 
L 9.28125 47.703125 
L 2.6875 47.703125 
L 2.6875 54.6875 
L 9.28125 54.6875 
L 9.28125 70.21875 
z
" id="DejaVuSans-116"/>
      <path d="M 45.40625 46.390625 
L 45.40625 75.984375 
L 54.390625 75.984375 
L 54.390625 0 
L 45.40625 0 
L 45.40625 8.203125 
Q 42.578125 3.328125 38.25 0.953125 
Q 33.9375 -1.421875 27.875 -1.421875 
Q 17.96875 -1.421875 11.734375 6.484375 
Q 5.515625 14.40625 5.515625 27.296875 
Q 5.515625 40.1875 11.734375 48.09375 
Q 17.96875 56 27.875 56 
Q 33.9375 56 38.25 53.625 
Q 42.578125 51.265625 45.40625 46.390625 
z
M 14.796875 27.296875 
Q 14.796875 17.390625 18.875 11.75 
Q 22.953125 6.109375 30.078125 6.109375 
Q 37.203125 6.109375 41.296875 11.75 
Q 45.40625 17.390625 45.40625 27.296875 
Q 45.40625 37.203125 41.296875 42.84375 
Q 37.203125 48.484375 30.078125 48.484375 
Q 22.953125 48.484375 18.875 42.84375 
Q 14.796875 37.203125 14.796875 27.296875 
z
" id="DejaVuSans-100"/>
     </defs>
     <g transform="translate(25.017187 168.902656)rotate(-90)scale(0.1 -0.1)">
      <use xlink:href="#DejaVuSans-65"/>
      <use x="68.408203" xlink:href="#DejaVuSans-109"/>
      <use x="165.820312" xlink:href="#DejaVuSans-112"/>
      <use x="229.296875" xlink:href="#DejaVuSans-108"/>
      <use x="257.080078" xlink:href="#DejaVuSans-105"/>
      <use x="284.863281" xlink:href="#DejaVuSans-116"/>
      <use x="324.072266" xlink:href="#DejaVuSans-117"/>
      <use x="387.451172" xlink:href="#DejaVuSans-100"/>
      <use x="450.927734" xlink:href="#DejaVuSans-101"/>
     </g>
    </g>
   </g>
   <g id="line2d_13">
    <path clip-path="url(#pe9d98a5554)" d="M 54 251.923009 
L 54.267136 251.915376 
L 54.427418 251.971379 
L 55.068545 251.929066 
L 55.442536 251.906366 
L 55.602818 251.903947 
L 55.816527 251.923954 
L 56.243945 251.874299 
L 56.564509 251.895644 
L 56.885073 251.93711 
L 57.579627 251.789126 
L 57.900191 251.912033 
L 58.274182 251.631729 
L 58.594745 251.739411 
L 59.129018 251.452652 
L 59.449582 251.62119 
L 59.609864 251.565882 
L 60.037282 251.310105 
L 60.4647 251.406785 
L 60.731836 251.155967 
L 61.212682 251.173583 
L 61.319536 251.292386 
L 61.372964 251.204978 
L 61.853809 251.01316 
L 62.281227 251.228383 
L 62.548363 250.849696 
L 62.601791 251.030793 
L 62.655218 250.91118 
L 62.868927 251.043169 
L 63.029209 251.206688 
L 63.082636 251.100602 
L 63.136063 251.218138 
L 63.189491 251.235674 
L 63.349773 251.076881 
L 63.456627 251.064031 
L 63.616909 250.648645 
L 63.777191 251.009415 
L 63.937473 251.121956 
L 64.044327 251.264829 
L 64.097754 251.184576 
L 64.632027 250.840921 
L 64.899163 250.988196 
L 64.952591 251.149747 
L 65.006018 251.050713 
L 65.112873 251.033614 
L 65.326582 250.614249 
L 65.380009 250.628992 
L 65.433436 250.500179 
L 65.486863 250.559733 
L 65.647145 250.539933 
L 65.967709 250.829095 
L 66.234845 250.322529 
L 66.395127 249.946529 
L 66.501982 249.880808 
L 66.662263 249.896755 
L 66.822545 250.206019 
L 66.875973 250.149657 
L 67.036254 249.970299 
L 67.463673 248.874344 
L 67.5171 248.938775 
L 67.944518 249.465093 
L 68.211654 248.475527 
L 68.425363 247.881589 
L 68.585645 248.028228 
L 68.799354 248.572179 
L 68.852782 248.546862 
L 68.906209 248.470114 
L 69.173345 245.942894 
L 69.600763 241.059817 
L 69.654191 240.980698 
L 69.814472 237.985547 
L 69.921327 227.591012 
L 69.974754 34.56 
L 70.028182 164.33556 
L 70.188463 231.426871 
L 70.4556 244.404384 
L 70.776163 250.099495 
L 70.936445 250.06642 
L 71.203582 249.446425 
L 71.470718 250.333693 
L 71.791282 251.625602 
L 72.165272 250.840663 
L 72.2187 250.896075 
L 72.8064 251.898177 
L 73.3941 251.194499 
L 73.500954 251.247654 
L 73.554381 251.205589 
L 73.607809 251.289436 
L 73.714663 251.545572 
L 73.9818 250.996151 
L 74.035227 251.171089 
L 74.088654 251.069508 
L 74.142081 250.991522 
L 74.409218 251.614936 
L 74.462645 251.542441 
L 74.516072 251.952194 
L 74.5695 251.922439 
L 74.729781 251.638338 
L 74.836636 251.711668 
L 74.890063 251.487823 
L 74.943491 251.506722 
L 75.103772 251.589665 
L 75.264054 251.662297 
L 75.317481 251.525558 
L 75.370909 250.788951 
L 75.424336 251.017664 
L 75.584618 251.574661 
L 75.851754 251.753903 
L 75.905181 251.744125 
L 76.065463 251.915699 
L 76.225745 251.757732 
L 76.386027 251.504122 
L 76.492881 251.48873 
L 76.706591 251.57354 
L 76.813445 251.604758 
L 76.973727 251.662917 
L 77.134009 251.623557 
L 77.294291 251.461116 
L 77.454572 251.214789 
L 77.508 251.343805 
L 77.668281 251.365105 
L 77.881991 251.552142 
L 78.202554 251.547058 
L 78.469691 251.426743 
L 78.629972 251.507934 
L 78.736827 251.607487 
L 79.05739 251.694263 
L 79.217672 251.498026 
L 79.431381 251.433789 
L 79.538236 251.438833 
L 79.698518 251.514509 
L 79.965654 251.618043 
L 80.179363 251.389914 
L 80.499927 251.320398 
L 80.660209 251.403423 
L 81.087627 251.217914 
L 81.568472 251.087153 
L 81.728754 251.139058 
L 82.156172 250.686085 
L 82.263027 250.2475 
L 82.369881 250.72337 
L 82.423309 250.695261 
L 82.58359 250.748869 
L 82.7973 250.694532 
L 82.957581 250.555102 
L 83.278145 250.316735 
L 83.385 250.284248 
L 84.506972 249.245854 
L 84.774109 248.549503 
L 84.93439 248.075279 
L 85.201527 246.65212 
L 85.415236 244.733446 
L 85.628945 240.261716 
L 85.735799 236.532485 
L 85.789227 227.856105 
L 85.842654 243.520343 
L 85.949509 213.484341 
L 86.002936 215.488219 
L 86.270072 241.619007 
L 86.537209 246.295473 
L 87.445472 249.675458 
L 87.926318 250.148021 
L 88.407163 250.619592 
L 88.727727 250.551724 
L 88.888009 250.672189 
L 88.994863 250.762312 
L 89.368854 251.050775 
L 89.63599 250.871712 
L 89.903127 250.938951 
L 90.383972 251.137339 
L 90.597681 251.053797 
L 90.81139 250.94817 
L 90.971672 251.050815 
L 91.238808 251.131787 
L 91.505945 251.07567 
L 91.666227 251.850135 
L 91.719654 251.642865 
L 91.933363 251.365641 
L 91.98679 251.384309 
L 92.040218 251.210144 
L 92.093645 251.249636 
L 92.147072 251.425886 
L 92.200499 251.3543 
L 92.467636 251.27959 
L 92.627918 251.092569 
L 92.788199 251.06128 
L 92.895054 251.029378 
L 93.055336 251.238687 
L 93.375899 251.101819 
L 93.536181 250.969537 
L 93.643036 251.025569 
L 93.696463 250.779981 
L 93.74989 250.874526 
L 94.177308 251.01261 
L 94.33759 250.92094 
L 94.391018 250.982715 
L 94.497872 250.79887 
L 94.551299 250.887197 
L 94.604727 250.857826 
L 94.765008 251.057505 
L 95.085572 251.135445 
L 95.245854 251.255873 
L 95.299281 251.08062 
L 95.352708 251.125507 
L 95.673272 251.395334 
L 95.833554 251.679716 
L 95.886981 251.609365 
L 95.940408 251.69253 
L 96.474681 251.8016 
L 96.634963 251.693541 
L 96.795245 251.669328 
L 96.955527 251.840767 
L 97.062381 251.967551 
L 97.703508 251.514311 
L 97.970645 251.822431 
L 98.130927 251.746646 
L 98.237781 251.707448 
L 98.558345 251.365779 
L 98.878908 251.295432 
L 99.092617 251.469723 
L 99.520036 251.071791 
L 99.787172 250.972067 
L 99.894027 251.033734 
L 100.000881 251.144931 
L 100.107736 251.41596 
L 100.161163 251.287669 
L 100.428299 250.630334 
L 100.588581 250.418672 
L 100.695436 250.478648 
L 100.855717 250.237621 
L 101.015999 250.09658 
L 101.176281 250.43541 
L 101.496845 247.6148 
L 101.550272 248.170487 
L 101.657126 241.35259 
L 101.710554 228.195992 
L 101.763981 89.020016 
L 101.817408 141.579539 
L 101.97769 195.080172 
L 102.084545 171.51367 
L 102.137972 92.50159 
L 102.191399 142.455509 
L 102.405108 236.401285 
L 102.618817 242.7385 
L 102.725672 243.34014 
L 103.099663 246.453189 
L 103.313372 247.035122 
L 103.366799 247.068848 
L 103.633936 247.719869 
L 103.847645 248.100755 
L 104.007926 248.395162 
L 104.221636 248.528163 
L 104.275063 248.588117 
L 104.32849 248.494235 
L 104.488772 248.469486 
L 104.809336 249.014988 
L 104.862763 249.025886 
L 105.129899 249.385332 
L 105.290181 249.428142 
L 105.450463 249.427511 
L 105.610745 249.449787 
L 105.824454 249.77181 
L 106.09159 250.007241 
L 106.251872 249.938621 
L 106.67929 250.041556 
L 106.946426 250.296037 
L 107.320417 250.241993 
L 107.85469 250.49847 
L 108.228681 250.523488 
L 108.388963 250.438555 
L 108.549245 250.514302 
L 109.831499 250.793884 
L 109.991781 250.870421 
L 110.152063 250.837098 
L 110.472626 251.034908 
L 110.579481 251.296631 
L 110.686335 248.971194 
L 110.846617 250.441783 
L 111.060326 250.628768 
L 111.167181 250.63897 
L 111.594599 250.81791 
L 111.915163 250.810616 
L 112.342581 250.907052 
L 112.502863 250.921107 
L 112.663144 250.999656 
L 112.983708 250.991832 
L 113.357699 251.02452 
L 114.639954 251.310569 
L 114.746808 251.382702 
L 115.013944 251.119767 
L 115.174226 251.195613 
L 115.49479 251.351193 
L 115.708499 251.165781 
L 116.296199 251.212264 
L 116.509908 251.159632 
L 116.777044 251.285614 
L 117.044181 251.315121 
L 117.151035 250.986438 
L 117.204463 250.795388 
L 117.25789 251.178848 
L 117.311317 250.63684 
L 117.418172 250.654713 
L 117.631881 249.892715 
L 117.685308 248.521639 
L 117.738735 249.941086 
L 117.792163 251.077444 
L 118.005872 248.40204 
L 118.112726 247.172624 
L 118.166153 240.704872 
L 118.219581 244.679305 
L 118.43329 251.426194 
L 118.540144 251.734956 
L 118.593572 251.682051 
L 118.967563 251.646708 
L 119.234699 251.522055 
L 120.356672 251.51661 
L 120.516953 251.540832 
L 121.211508 251.494353 
L 121.425217 251.565097 
L 121.799208 251.548089 
L 122.066344 251.538892 
L 122.280053 251.552715 
L 124.203435 251.444569 
L 124.470572 251.487077 
L 124.844562 251.445569 
L 125.165126 251.431252 
L 125.48569 251.463942 
L 125.752826 251.366036 
L 126.019962 251.444082 
L 126.233672 251.419061 
L 126.607662 251.390144 
L 127.141935 251.39851 
L 127.302217 251.411187 
L 127.569353 251.365415 
L 127.622781 251.435708 
L 127.676208 251.350888 
L 129.225599 251.108659 
L 129.279026 250.626304 
L 129.332453 250.769561 
L 129.492735 250.997909 
L 130.294144 250.787733 
L 130.668135 250.550493 
L 131.416117 250.193108 
L 131.629826 250.056275 
L 132.270953 249.391026 
L 132.377808 249.23766 
L 133.179217 246.879357 
L 133.446353 245.221934 
L 133.71349 240.653222 
L 133.980626 231.034133 
L 134.08748 222.460002 
L 134.140908 225.49061 
L 134.247762 171.487497 
L 134.514899 245.480433 
L 134.728608 247.451365 
L 134.782035 247.282979 
L 134.88889 247.615455 
L 135.369735 249.562315 
L 135.690299 250.112857 
L 135.85058 250.422085 
L 135.957435 250.637026 
L 136.010862 250.598813 
L 136.598562 251.132777 
L 136.65199 251.097506 
L 136.705417 251.1814 
L 136.919126 251.327869 
L 137.186262 251.428207 
L 137.346544 251.514035 
L 137.934244 251.640858 
L 138.094526 251.668554 
L 138.254808 251.751631 
L 138.842508 251.803651 
L 138.895935 251.437814 
L 138.949362 251.65362 
L 139.056217 251.847804 
L 139.109644 251.7935 
L 139.269926 251.861848 
L 139.537062 251.502407 
L 139.590489 251.212268 
L 139.750771 251.966035 
L 141.620726 251.674253 
L 141.72758 251.742373 
L 141.887862 251.731233 
L 142.208426 251.618608 
L 144.024953 251.438103 
L 144.505798 251.38897 
L 145.200353 251.28056 
L 145.574344 251.143371 
L 145.681198 251.131124 
L 146.215471 250.956155 
L 146.963453 250.616176 
L 147.230589 250.449718 
L 147.764862 250.143025 
L 148.085426 249.822795 
L 148.405989 249.439161 
L 149.047117 248.198953 
L 149.36768 247.177502 
L 149.474535 249.751862 
L 149.581389 241.811008 
L 149.634817 242.614479 
L 149.848526 239.607137 
L 149.95538 236.975413 
L 150.222517 221.251059 
L 150.275944 221.705815 
L 150.382798 189.070438 
L 150.436226 201.692439 
L 150.649935 243.888397 
L 150.970498 246.78856 
L 151.558198 249.000511 
L 152.252753 250.095524 
L 152.840453 250.562861 
L 153.000735 250.636189 
L 153.48158 250.858876 
L 153.962426 251.005294 
L 154.443271 251.211914 
L 154.603553 251.246561 
L 155.137826 251.390256 
L 155.298107 251.35524 
L 160.961398 251.805096 
L 161.068253 251.534799 
L 161.12168 251.663121 
L 161.335389 251.951393 
L 162.777925 251.722786 
L 162.991635 251.679771 
L 163.739616 251.429126 
L 165.021871 250.633594 
L 165.342435 250.242372 
L 165.556144 249.623299 
L 165.82328 247.780213 
L 166.250698 241.991209 
L 166.464407 236.533788 
L 166.571262 224.318794 
L 166.624689 227.925279 
L 166.891825 249.978755 
L 166.945253 249.7714 
L 166.99868 248.347919 
L 167.052107 248.65055 
L 167.105534 248.680925 
L 167.158962 248.497428 
L 167.265816 246.841323 
L 167.479525 249.116658 
L 167.800089 249.814298 
L 168.17408 250.257774 
L 168.494644 250.544535 
L 169.776898 251.042301 
L 169.990607 251.081133 
L 170.311171 251.15399 
L 170.845444 251.261637 
L 171.005725 251.245212 
L 171.166007 251.267656 
L 171.753707 251.378156 
L 172.501689 251.41612 
L 172.715398 251.436173 
L 174.05108 251.442343 
L 174.425071 251.489079 
L 175.974462 251.459581 
L 176.134743 251.440034 
L 176.40188 251.574863 
L 176.98958 251.499835 
L 177.203289 251.532557 
L 178.325262 251.521651 
L 178.75268 251.552677 
L 179.126671 251.522275 
L 181.050052 251.448433 
L 181.424043 251.389179 
L 181.69118 251.528747 
L 181.904889 251.640847 
L 182.118598 251.208639 
L 182.439162 250.351727 
L 182.546016 250.0284 
L 182.813152 247.810383 
L 182.86658 248.084712 
L 183.133716 251.685234 
L 183.293998 251.802853 
L 183.988552 251.893053 
L 184.736534 251.754417 
L 185.270807 251.768178 
L 186.713343 251.688224 
L 187.194189 251.668443 
L 187.781889 251.632633 
L 188.369589 251.628963 
L 188.690152 251.602133 
L 189.277852 251.599207 
L 189.758698 251.568686 
L 190.346398 251.562462 
L 190.560107 251.528864 
L 190.88067 251.541497 
L 191.628652 251.477634 
L 191.842361 251.514748 
L 192.26978 251.477309 
L 193.81917 251.417066 
L 194.032879 251.385353 
L 194.246589 251.363302 
L 195.58227 251.386135 
L 195.635698 251.455123 
L 195.795979 251.186373 
L 196.116543 251.17174 
L 196.917952 251.063945 
L 196.971379 251.072808 
L 197.078234 250.860994 
L 197.238516 251.816462 
L 197.291943 249.365987 
L 197.34537 249.823546 
L 197.452225 250.427792 
L 197.505652 250.394421 
L 197.612507 250.298871 
L 197.772789 249.965797 
L 198.200207 248.640283 
L 198.52077 246.582396 
L 198.894761 242.111093 
L 199.161898 236.764179 
L 199.482461 250.031236 
L 199.69617 250.024179 
L 199.803025 250.118246 
L 200.123588 250.726455 
L 200.604434 251.12877 
L 201.031852 251.32996 
L 201.352416 251.500422 
L 203.596361 251.84718 
L 204.130634 251.782144 
L 204.290916 251.970532 
L 204.611479 251.805737 
L 204.718334 251.607211 
L 204.878616 251.911061 
L 210.381625 251.623696 
L 213.266697 251.011067 
L 213.80097 250.663456 
L 214.228388 249.785757 
L 214.548952 248.630509 
L 214.869516 246.321338 
L 215.190079 242.660067 
L 215.510643 236.693841 
L 215.617497 241.357866 
L 215.831206 249.270691 
L 215.938061 249.39275 
L 216.472334 250.26912 
L 217.006606 250.82023 
L 217.91487 251.241293 
L 218.716279 251.396106 
L 219.784825 251.531777 
L 222.723324 251.730245 
L 223.738443 251.797824 
L 224.005579 251.977453 
L 224.165861 251.841019 
L 224.646706 251.85215 
L 225.127552 251.860998 
L 225.768679 251.836581 
L 226.035815 251.965984 
L 229.775724 251.570406 
L 230.042861 251.433101 
L 230.363424 251.295958 
L 230.630561 251.248444 
L 231.057979 250.295288 
L 231.271688 249.617689 
L 231.699106 247.393675 
L 231.966242 246.066056 
L 232.073097 247.087727 
L 232.340233 250.219106 
L 233.088215 250.879542 
L 233.996479 251.256084 
L 235.118452 251.411148 
L 236.454133 251.501146 
L 236.667842 251.418062 
L 236.934979 251.580697 
L 237.202115 251.497543 
L 240.514606 251.588253 
L 240.995451 251.602791 
L 242.331133 251.737122 
L 242.384561 251.821558 
L 242.437988 251.704889 
L 242.59827 251.580685 
L 243.827097 251.630478 
L 246.872451 251.464717 
L 247.193015 251.175998 
L 247.353297 251.105152 
L 247.513579 251.490229 
L 247.567006 251.444682 
L 247.88757 251.108797 
L 248.314988 250.965839 
L 248.475269 251.096784 
L 249.116397 251.930396 
L 249.757524 251.832024 
L 250.826069 251.841284 
L 252.054897 251.775007 
L 252.428888 251.856203 
L 252.482315 251.924497 
L 252.535742 251.814717 
L 252.749451 251.744482 
L 253.390579 251.737048 
L 254.619406 251.725573 
L 255.90166 251.714597 
L 256.435933 251.698778 
L 257.237342 251.678662 
L 258.466169 251.647663 
L 260.175842 251.617829 
L 260.763542 251.57472 
L 262.312933 251.296655 
L 262.95406 250.901085 
L 263.114342 250.990878 
L 263.54176 250.580912 
L 263.969178 250.070501 
L 264.450024 249.02126 
L 264.877442 247.340845 
L 265.198006 246.459917 
L 265.30486 246.656734 
L 265.465142 247.947271 
L 265.732278 250.154604 
L 265.999415 250.584438 
L 266.587115 251.095064 
L 267.441951 251.479574 
L 271.021578 251.95143 
L 272.784678 251.939261 
L 273.479233 251.88729 
L 279.356233 251.247567 
L 279.99736 251.170536 
L 280.104214 251.440916 
L 280.211069 250.522542 
L 280.264496 250.594489 
L 280.798769 250.438897 
L 280.905624 250.589829 
L 280.959051 250.37436 
L 281.065905 248.090354 
L 281.119333 248.311842 
L 281.17276 248.3669 
L 281.226187 248.284346 
L 281.439896 247.523461 
L 281.920742 245.699751 
L 282.027596 245.760555 
L 282.134451 246.28198 
L 282.615296 249.774516 
L 283.202996 250.564571 
L 284.485251 251.24881 
L 285.072951 251.387796 
L 286.46206 251.627298 
L 286.836051 251.619147 
L 287.04976 251.643684 
L 287.584032 251.70439 
L 288.118305 251.725294 
L 292.713051 251.92168 
L 292.873332 251.90282 
L 292.980187 251.604087 
L 293.033614 251.650334 
L 293.193896 251.739305 
L 294.262441 251.913862 
L 294.583005 251.981952 
L 294.903569 251.931603 
L 296.45296 251.733594 
L 297.788641 251.133092 
L 298.80376 250.407189 
L 299.017469 250.498057 
L 299.97916 251.178791 
L 300.780569 251.340446 
L 302.543669 251.537005 
L 303.131369 251.582211 
L 303.986205 251.646496 
L 305.64245 251.674948 
L 306.710996 251.69822 
L 314.725087 251.521204 
L 315.793632 251.362403 
L 316.167623 251.491895 
L 317.022459 251.959015 
L 318.251287 251.838618 
L 320.33495 251.801353 
L 329.257305 251.503905 
L 330.539559 251.29652 
L 331.447823 250.942706 
L 332.142377 250.377781 
L 332.997214 249.520099 
L 333.210923 249.687593 
L 333.531486 250.385554 
L 333.905477 250.974074 
L 334.706886 251.538443 
L 335.02745 251.672742 
L 335.561723 251.718997 
L 337.37825 251.898903 
L 341.759286 251.905752 
L 346.354032 251.62053 
L 348.758259 251.049786 
L 349.399386 250.625099 
L 350.574786 249.63696 
L 350.841922 249.91608 
L 351.589904 250.860141 
L 352.391313 251.249853 
L 353.566713 251.501828 
L 355.543522 251.731749 
L 356.024368 251.740492 
L 356.665495 251.701551 
L 357.253195 251.743843 
L 359.49714 251.971363 
L 360.832822 251.86319 
L 361.473949 251.925768 
L 364.19874 251.909334 
L 366.870104 251.584106 
L 367.190668 251.286579 
L 368.152358 250.992036 
L 370.770295 251.53318 
L 373.174522 251.668334 
L 374.670486 251.689799 
L 377.71584 251.760666 
L 383.00514 251.695346 
L 385.783358 251.674553 
L 387.172467 251.972493 
L 388.828713 251.920948 
L 388.828713 251.920948 
" style="fill:none;stroke:#1f77b4;stroke-linecap:square;stroke-width:1.5;"/>
   </g>
   <g id="line2d_14">
    <defs>
     <path d="M -3 3 
L 3 -3 
M -3 -3 
L 3 3 
" id="mb00542871b" style="stroke:#ff0000;"/>
    </defs>
    <g clip-path="url(#pe9d98a5554)">
     <use style="fill:#ff0000;stroke:#ff0000;" x="59.129018" xlink:href="#mb00542871b" y="251.452652"/>
     <use style="fill:#ff0000;stroke:#ff0000;" x="69.974754" xlink:href="#mb00542871b" y="34.56"/>
     <use style="fill:#ff0000;stroke:#ff0000;" x="85.949509" xlink:href="#mb00542871b" y="213.484341"/>
     <use style="fill:#ff0000;stroke:#ff0000;" x="101.763981" xlink:href="#mb00542871b" y="89.020016"/>
     <use style="fill:#ff0000;stroke:#ff0000;" x="118.166153" xlink:href="#mb00542871b" y="240.704872"/>
     <use style="fill:#ff0000;stroke:#ff0000;" x="134.247762" xlink:href="#mb00542871b" y="171.487497"/>
     <use style="fill:#ff0000;stroke:#ff0000;" x="150.382798" xlink:href="#mb00542871b" y="189.070438"/>
     <use style="fill:#ff0000;stroke:#ff0000;" x="166.571262" xlink:href="#mb00542871b" y="224.318794"/>
     <use style="fill:#ff0000;stroke:#ff0000;" x="182.813152" xlink:href="#mb00542871b" y="247.810383"/>
     <use style="fill:#ff0000;stroke:#ff0000;" x="199.161898" xlink:href="#mb00542871b" y="236.764179"/>
     <use style="fill:#ff0000;stroke:#ff0000;" x="215.510643" xlink:href="#mb00542871b" y="236.693841"/>
     <use style="fill:#ff0000;stroke:#ff0000;" x="231.966242" xlink:href="#mb00542871b" y="246.066056"/>
     <use style="fill:#ff0000;stroke:#ff0000;" x="248.208133" xlink:href="#mb00542871b" y="250.946052"/>
     <use style="fill:#ff0000;stroke:#ff0000;" x="265.198006" xlink:href="#mb00542871b" y="246.459917"/>
     <use style="fill:#ff0000;stroke:#ff0000;" x="281.974169" xlink:href="#mb00542871b" y="245.679935"/>
     <use style="fill:#ff0000;stroke:#ff0000;" x="298.80376" xlink:href="#mb00542871b" y="250.407189"/>
     <use style="fill:#ff0000;stroke:#ff0000;" x="315.686777" xlink:href="#mb00542871b" y="251.343329"/>
     <use style="fill:#ff0000;stroke:#ff0000;" x="332.997214" xlink:href="#mb00542871b" y="249.520099"/>
     <use style="fill:#ff0000;stroke:#ff0000;" x="350.467931" xlink:href="#mb00542871b" y="249.609169"/>
     <use style="fill:#ff0000;stroke:#ff0000;" x="367.992077" xlink:href="#mb00542871b" y="250.974002"/>
     <use style="fill:#ff0000;stroke:#ff0000;" x="385.035376" xlink:href="#mb00542871b" y="251.566274"/>
     <use style="fill:#ff0000;stroke:#ff0000;" x="403.360931" xlink:href="#mb00542871b" y="250.772431"/>
     <use style="fill:#ff0000;stroke:#ff0000;" x="421.312494" xlink:href="#mb00542871b" y="251.139634"/>
     <use style="fill:#ff0000;stroke:#ff0000;" x="439.691475" xlink:href="#mb00542871b" y="251.572745"/>
     <use style="fill:#ff0000;stroke:#ff0000;" x="457.589611" xlink:href="#mb00542871b" y="251.68701"/>
     <use style="fill:#ff0000;stroke:#ff0000;" x="476.128875" xlink:href="#mb00542871b" y="251.44311"/>
     <use style="fill:#ff0000;stroke:#ff0000;" x="495.469547" xlink:href="#mb00542871b" y="251.536061"/>
     <use style="fill:#ff0000;stroke:#ff0000;" x="514.970501" xlink:href="#mb00542871b" y="251.811218"/>
     <use style="fill:#ff0000;stroke:#ff0000;" x="532.548074" xlink:href="#mb00542871b" y="251.823652"/>
     <use style="fill:#ff0000;stroke:#ff0000;" x="545.851465" xlink:href="#mb00542871b" y="251.800294"/>
     <use style="fill:#ff0000;stroke:#ff0000;" x="562.413919" xlink:href="#mb00542871b" y="251.949285"/>
     <use style="fill:#ff0000;stroke:#ff0000;" x="573.206228" xlink:href="#mb00542871b" y="251.727604"/>
     <use style="fill:#ff0000;stroke:#ff0000;" x="593.562018" xlink:href="#mb00542871b" y="251.885522"/>
     <use style="fill:#ff0000;stroke:#ff0000;" x="610.7656" xlink:href="#mb00542871b" y="251.855965"/>
     <use style="fill:#ff0000;stroke:#ff0000;" x="630.693972" xlink:href="#mb00542871b" y="251.807478"/>
     <use style="fill:#ff0000;stroke:#ff0000;" x="643.730227" xlink:href="#mb00542871b" y="251.945817"/>
     <use style="fill:#ff0000;stroke:#ff0000;" x="655.430799" xlink:href="#mb00542871b" y="251.840543"/>
     <use style="fill:#ff0000;stroke:#ff0000;" x="666.757381" xlink:href="#mb00542871b" y="251.916999"/>
     <use style="fill:#ff0000;stroke:#ff0000;" x="679.847062" xlink:href="#mb00542871b" y="251.911216"/>
     <use style="fill:#ff0000;stroke:#ff0000;" x="693.20388" xlink:href="#mb00542871b" y="251.899322"/>
     <use style="fill:#ff0000;stroke:#ff0000;" x="704.904453" xlink:href="#mb00542871b" y="251.941571"/>
     <use style="fill:#ff0000;stroke:#ff0000;" x="716.391316" xlink:href="#mb00542871b" y="251.867368"/>
     <use style="fill:#ff0000;stroke:#ff0000;" x="729.213862" xlink:href="#mb00542871b" y="251.943433"/>
     <use style="fill:#ff0000;stroke:#ff0000;" x="741.662416" xlink:href="#mb00542871b" y="251.905734"/>
     <use style="fill:#ff0000;stroke:#ff0000;" x="755.28637" xlink:href="#mb00542871b" y="251.928912"/>
     <use style="fill:#ff0000;stroke:#ff0000;" x="765.971825" xlink:href="#mb00542871b" y="251.918345"/>
     <use style="fill:#ff0000;stroke:#ff0000;" x="780.450615" xlink:href="#mb00542871b" y="251.895309"/>
     <use style="fill:#ff0000;stroke:#ff0000;" x="791.13607" xlink:href="#mb00542871b" y="251.959031"/>
     <use style="fill:#ff0000;stroke:#ff0000;" x="806.683406" xlink:href="#mb00542871b" y="251.920746"/>
     <use style="fill:#ff0000;stroke:#ff0000;" x="818.170269" xlink:href="#mb00542871b" y="251.943823"/>
     <use style="fill:#ff0000;stroke:#ff0000;" x="835.747842" xlink:href="#mb00542871b" y="251.953134"/>
     <use style="fill:#ff0000;stroke:#ff0000;" x="852.203441" xlink:href="#mb00542871b" y="251.957603"/>
     <use style="fill:#ff0000;stroke:#ff0000;" x="865.827396" xlink:href="#mb00542871b" y="251.9556"/>
     <use style="fill:#ff0000;stroke:#ff0000;" x="876.51285" xlink:href="#mb00542871b" y="251.938137"/>
     <use style="fill:#ff0000;stroke:#ff0000;" x="888.053141" xlink:href="#mb00542871b" y="251.94935"/>
     <use style="fill:#ff0000;stroke:#ff0000;" x="900.768831" xlink:href="#mb00542871b" y="251.940812"/>
     <use style="fill:#ff0000;stroke:#ff0000;" x="914.339358" xlink:href="#mb00542871b" y="251.955509"/>
     <use style="fill:#ff0000;stroke:#ff0000;" x="925.07824" xlink:href="#mb00542871b" y="251.941763"/>
     <use style="fill:#ff0000;stroke:#ff0000;" x="941.426985" xlink:href="#mb00542871b" y="251.951619"/>
     <use style="fill:#ff0000;stroke:#ff0000;" x="952.165867" xlink:href="#mb00542871b" y="251.957682"/>
     <use style="fill:#ff0000;stroke:#ff0000;" x="965.736394" xlink:href="#mb00542871b" y="251.94954"/>
     <use style="fill:#ff0000;stroke:#ff0000;" x="977.383539" xlink:href="#mb00542871b" y="251.940536"/>
     <use style="fill:#ff0000;stroke:#ff0000;" x="988.977257" xlink:href="#mb00542871b" y="251.94839"/>
     <use style="fill:#ff0000;stroke:#ff0000;" x="1001.639521" xlink:href="#mb00542871b" y="251.92813"/>
     <use style="fill:#ff0000;stroke:#ff0000;" x="1014.194929" xlink:href="#mb00542871b" y="251.944141"/>
     <use style="fill:#ff0000;stroke:#ff0000;" x="1024.880384" xlink:href="#mb00542871b" y="251.96671"/>
     <use style="fill:#ff0000;stroke:#ff0000;" x="1035.565838" xlink:href="#mb00542871b" y="251.978166"/>
     <use style="fill:#ff0000;stroke:#ff0000;" x="1047.266411" xlink:href="#mb00542871b" y="251.955558"/>
     <use style="fill:#ff0000;stroke:#ff0000;" x="1067.568774" xlink:href="#mb00542871b" y="251.954174"/>
     <use style="fill:#ff0000;stroke:#ff0000;" x="1079.162492" xlink:href="#mb00542871b" y="251.956266"/>
     <use style="fill:#ff0000;stroke:#ff0000;" x="1094.656401" xlink:href="#mb00542871b" y="251.954393"/>
     <use style="fill:#ff0000;stroke:#ff0000;" x="1114.905337" xlink:href="#mb00542871b" y="251.960898"/>
     <use style="fill:#ff0000;stroke:#ff0000;" x="1125.590791" xlink:href="#mb00542871b" y="251.980117"/>
     <use style="fill:#ff0000;stroke:#ff0000;" x="1141.244982" xlink:href="#mb00542871b" y="251.97721"/>
     <use style="fill:#ff0000;stroke:#ff0000;" x="1152.8387" xlink:href="#mb00542871b" y="251.975245"/>
     <use style="fill:#ff0000;stroke:#ff0000;" x="1164.378991" xlink:href="#mb00542871b" y="251.993466"/>
     <use style="fill:#ff0000;stroke:#ff0000;" x="1178.270081" xlink:href="#mb00542871b" y="251.985873"/>
     <use style="fill:#ff0000;stroke:#ff0000;" x="1191.573472" xlink:href="#mb00542871b" y="251.9831"/>
     <use style="fill:#ff0000;stroke:#ff0000;" x="1206.69339" xlink:href="#mb00542871b" y="251.978115"/>
     <use style="fill:#ff0000;stroke:#ff0000;" x="1217.378844" xlink:href="#mb00542871b" y="251.985029"/>
     <use style="fill:#ff0000;stroke:#ff0000;" x="1230.78909" xlink:href="#mb00542871b" y="251.991519"/>
     <use style="fill:#ff0000;stroke:#ff0000;" x="1248.633798" xlink:href="#mb00542871b" y="251.987937"/>
     <use style="fill:#ff0000;stroke:#ff0000;" x="1261.189207" xlink:href="#mb00542871b" y="251.974685"/>
     <use style="fill:#ff0000;stroke:#ff0000;" x="1279.675043" xlink:href="#mb00542871b" y="251.968323"/>
     <use style="fill:#ff0000;stroke:#ff0000;" x="1291.161907" xlink:href="#mb00542871b" y="251.958638"/>
     <use style="fill:#ff0000;stroke:#ff0000;" x="1301.900788" xlink:href="#mb00542871b" y="251.974495"/>
     <use style="fill:#ff0000;stroke:#ff0000;" x="1317.287843" xlink:href="#mb00542871b" y="251.983127"/>
     <use style="fill:#ff0000;stroke:#ff0000;" x="1331.018651" xlink:href="#mb00542871b" y="251.981216"/>
     <use style="fill:#ff0000;stroke:#ff0000;" x="1341.757533" xlink:href="#mb00542871b" y="251.986209"/>
     <use style="fill:#ff0000;stroke:#ff0000;" x="1353.351251" xlink:href="#mb00542871b" y="251.975341"/>
     <use style="fill:#ff0000;stroke:#ff0000;" x="1368.791733" xlink:href="#mb00542871b" y="251.976"/>
     <use style="fill:#ff0000;stroke:#ff0000;" x="1382.415687" xlink:href="#mb00542871b" y="251.976226"/>
     <use style="fill:#ff0000;stroke:#ff0000;" x="1393.955978" xlink:href="#mb00542871b" y="251.983077"/>
     <use style="fill:#ff0000;stroke:#ff0000;" x="1413.350077" xlink:href="#mb00542871b" y="251.97645"/>
     <use style="fill:#ff0000;stroke:#ff0000;" x="1425.852059" xlink:href="#mb00542871b" y="251.974375"/>
     <use style="fill:#ff0000;stroke:#ff0000;" x="1436.590941" xlink:href="#mb00542871b" y="251.984835"/>
     <use style="fill:#ff0000;stroke:#ff0000;" x="1451.176586" xlink:href="#mb00542871b" y="251.98557"/>
     <use style="fill:#ff0000;stroke:#ff0000;" x="1461.915468" xlink:href="#mb00542871b" y="251.974118"/>
     <use style="fill:#ff0000;stroke:#ff0000;" x="1479.332758" xlink:href="#mb00542871b" y="251.9836"/>
     <use style="fill:#ff0000;stroke:#ff0000;" x="1493.864976" xlink:href="#mb00542871b" y="251.986108"/>
     <use style="fill:#ff0000;stroke:#ff0000;" x="1505.565549" xlink:href="#mb00542871b" y="251.982845"/>
     <use style="fill:#ff0000;stroke:#ff0000;" x="1516.251003" xlink:href="#mb00542871b" y="251.987739"/>
     <use style="fill:#ff0000;stroke:#ff0000;" x="1532.76003" xlink:href="#mb00542871b" y="251.991786"/>
     <use style="fill:#ff0000;stroke:#ff0000;" x="1548.360793" xlink:href="#mb00542871b" y="251.985254"/>
     <use style="fill:#ff0000;stroke:#ff0000;" x="1561.824466" xlink:href="#mb00542871b" y="251.985854"/>
     <use style="fill:#ff0000;stroke:#ff0000;" x="1574.593584" xlink:href="#mb00542871b" y="251.992079"/>
     <use style="fill:#ff0000;stroke:#ff0000;" x="1587.255847" xlink:href="#mb00542871b" y="251.992032"/>
     <use style="fill:#ff0000;stroke:#ff0000;" x="1600.71952" xlink:href="#mb00542871b" y="251.990204"/>
     <use style="fill:#ff0000;stroke:#ff0000;" x="1612.420092" xlink:href="#mb00542871b" y="251.994082"/>
     <use style="fill:#ff0000;stroke:#ff0000;" x="1623.42611" xlink:href="#mb00542871b" y="251.997836"/>
     <use style="fill:#ff0000;stroke:#ff0000;" x="1640.843401" xlink:href="#mb00542871b" y="251.997607"/>
     <use style="fill:#ff0000;stroke:#ff0000;" x="1659.810082" xlink:href="#mb00542871b" y="251.998082"/>
     <use style="fill:#ff0000;stroke:#ff0000;" x="1672.899764" xlink:href="#mb00542871b" y="251.993142"/>
     <use style="fill:#ff0000;stroke:#ff0000;" x="1685.455173" xlink:href="#mb00542871b" y="251.993904"/>
     <use style="fill:#ff0000;stroke:#ff0000;" x="1698.010582" xlink:href="#mb00542871b" y="251.99242"/>
     <use style="fill:#ff0000;stroke:#ff0000;" x="1708.749463" xlink:href="#mb00542871b" y="251.993396"/>
     <use style="fill:#ff0000;stroke:#ff0000;" x="1719.488345" xlink:href="#mb00542871b" y="251.992495"/>
     <use style="fill:#ff0000;stroke:#ff0000;" x="1735.83709" xlink:href="#mb00542871b" y="251.993861"/>
     <use style="fill:#ff0000;stroke:#ff0000;" x="1751.384426" xlink:href="#mb00542871b" y="251.992756"/>
     <use style="fill:#ff0000;stroke:#ff0000;" x="1770.831953" xlink:href="#mb00542871b" y="251.991585"/>
     <use style="fill:#ff0000;stroke:#ff0000;" x="1781.517408" xlink:href="#mb00542871b" y="251.984806"/>
     <use style="fill:#ff0000;stroke:#ff0000;" x="1798.133289" xlink:href="#mb00542871b" y="251.992813"/>
     <use style="fill:#ff0000;stroke:#ff0000;" x="1818.542507" xlink:href="#mb00542871b" y="251.990803"/>
     <use style="fill:#ff0000;stroke:#ff0000;" x="1833.929561" xlink:href="#mb00542871b" y="251.993567"/>
     <use style="fill:#ff0000;stroke:#ff0000;" x="1845.576707" xlink:href="#mb00542871b" y="251.992696"/>
     <use style="fill:#ff0000;stroke:#ff0000;" x="1858.292397" xlink:href="#mb00542871b" y="251.994139"/>
     <use style="fill:#ff0000;stroke:#ff0000;" x="1869.99297" xlink:href="#mb00542871b" y="251.991273"/>
     <use style="fill:#ff0000;stroke:#ff0000;" x="1882.494951" xlink:href="#mb00542871b" y="251.994032"/>
     <use style="fill:#ff0000;stroke:#ff0000;" x="1896.973742" xlink:href="#mb00542871b" y="251.992698"/>
     <use style="fill:#ff0000;stroke:#ff0000;" x="1911.559387" xlink:href="#mb00542871b" y="251.993843"/>
     <use style="fill:#ff0000;stroke:#ff0000;" x="1926.145033" xlink:href="#mb00542871b" y="251.992624"/>
     <use style="fill:#ff0000;stroke:#ff0000;" x="1944.470587" xlink:href="#mb00542871b" y="251.99371"/>
     <use style="fill:#ff0000;stroke:#ff0000;" x="1956.171159" xlink:href="#mb00542871b" y="251.992666"/>
     <use style="fill:#ff0000;stroke:#ff0000;" x="1969.741686" xlink:href="#mb00542871b" y="251.994064"/>
     <use style="fill:#ff0000;stroke:#ff0000;" x="1985.235595" xlink:href="#mb00542871b" y="251.992761"/>
     <use style="fill:#ff0000;stroke:#ff0000;" x="1995.974477" xlink:href="#mb00542871b" y="251.993996"/>
     <use style="fill:#ff0000;stroke:#ff0000;" x="2007.46134" xlink:href="#mb00542871b" y="251.994007"/>
     <use style="fill:#ff0000;stroke:#ff0000;" x="2018.253649" xlink:href="#mb00542871b" y="251.992463"/>
     <use style="fill:#ff0000;stroke:#ff0000;" x="2033.747558" xlink:href="#mb00542871b" y="251.993431"/>
     <use style="fill:#ff0000;stroke:#ff0000;" x="2052.179967" xlink:href="#mb00542871b" y="251.993317"/>
     <use style="fill:#ff0000;stroke:#ff0000;" x="2063.239412" xlink:href="#mb00542871b" y="251.998276"/>
     <use style="fill:#ff0000;stroke:#ff0000;" x="2074.512566" xlink:href="#mb00542871b" y="251.998827"/>
     <use style="fill:#ff0000;stroke:#ff0000;" x="2090.11333" xlink:href="#mb00542871b" y="251.998793"/>
     <use style="fill:#ff0000;stroke:#ff0000;" x="2103.309866" xlink:href="#mb00542871b" y="251.998961"/>
     <use style="fill:#ff0000;stroke:#ff0000;" x="2116.506402" xlink:href="#mb00542871b" y="251.998762"/>
     <use style="fill:#ff0000;stroke:#ff0000;" x="2127.191856" xlink:href="#mb00542871b" y="251.999043"/>
     <use style="fill:#ff0000;stroke:#ff0000;" x="2137.930738" xlink:href="#mb00542871b" y="251.997934"/>
     <use style="fill:#ff0000;stroke:#ff0000;" x="2156.30972" xlink:href="#mb00542871b" y="251.997871"/>
     <use style="fill:#ff0000;stroke:#ff0000;" x="2167.369165" xlink:href="#mb00542871b" y="251.99324"/>
     <use style="fill:#ff0000;stroke:#ff0000;" x="2185.855001" xlink:href="#mb00542871b" y="251.993317"/>
     <use style="fill:#ff0000;stroke:#ff0000;" x="2196.754164" xlink:href="#mb00542871b" y="251.998225"/>
     <use style="fill:#ff0000;stroke:#ff0000;" x="2208.615019" xlink:href="#mb00542871b" y="251.998594"/>
     <use style="fill:#ff0000;stroke:#ff0000;" x="2223.681509" xlink:href="#mb00542871b" y="251.997783"/>
     <use style="fill:#ff0000;stroke:#ff0000;" x="2234.473818" xlink:href="#mb00542871b" y="251.998506"/>
     <use style="fill:#ff0000;stroke:#ff0000;" x="2247.990918" xlink:href="#mb00542871b" y="251.998668"/>
     <use style="fill:#ff0000;stroke:#ff0000;" x="2262.149145" xlink:href="#mb00542871b" y="251.99827"/>
     <use style="fill:#ff0000;stroke:#ff0000;" x="2277.32249" xlink:href="#mb00542871b" y="251.998403"/>
     <use style="fill:#ff0000;stroke:#ff0000;" x="2289.236772" xlink:href="#mb00542871b" y="251.998364"/>
     <use style="fill:#ff0000;stroke:#ff0000;" x="2300.616781" xlink:href="#mb00542871b" y="251.998575"/>
     <use style="fill:#ff0000;stroke:#ff0000;" x="2311.515944" xlink:href="#mb00542871b" y="251.997777"/>
     <use style="fill:#ff0000;stroke:#ff0000;" x="2329.360653" xlink:href="#mb00542871b" y="251.998197"/>
     <use style="fill:#ff0000;stroke:#ff0000;" x="2340.847517" xlink:href="#mb00542871b" y="251.998235"/>
     <use style="fill:#ff0000;stroke:#ff0000;" x="2353.830344" xlink:href="#mb00542871b" y="251.997796"/>
     <use style="fill:#ff0000;stroke:#ff0000;" x="2364.515798" xlink:href="#mb00542871b" y="251.997593"/>
     <use style="fill:#ff0000;stroke:#ff0000;" x="2377.819189" xlink:href="#mb00542871b" y="251.997944"/>
     <use style="fill:#ff0000;stroke:#ff0000;" x="2394.381643" xlink:href="#mb00542871b" y="251.99782"/>
     <use style="fill:#ff0000;stroke:#ff0000;" x="2412.707197" xlink:href="#mb00542871b" y="251.997627"/>
     <use style="fill:#ff0000;stroke:#ff0000;" x="2433.490406" xlink:href="#mb00542871b" y="251.997701"/>
     <use style="fill:#ff0000;stroke:#ff0000;" x="2452.029669" xlink:href="#mb00542871b" y="251.997399"/>
     <use style="fill:#ff0000;stroke:#ff0000;" x="2472.919733" xlink:href="#mb00542871b" y="251.997432"/>
     <use style="fill:#ff0000;stroke:#ff0000;" x="2492.100123" xlink:href="#mb00542871b" y="251.997185"/>
     <use style="fill:#ff0000;stroke:#ff0000;" x="2503.747268" xlink:href="#mb00542871b" y="251.997176"/>
     <use style="fill:#ff0000;stroke:#ff0000;" x="2524.156486" xlink:href="#mb00542871b" y="251.991948"/>
     <use style="fill:#ff0000;stroke:#ff0000;" x="2537.192741" xlink:href="#mb00542871b" y="251.996626"/>
     <use style="fill:#ff0000;stroke:#ff0000;" x="2550.549558" xlink:href="#mb00542871b" y="251.996683"/>
     <use style="fill:#ff0000;stroke:#ff0000;" x="2566.57774" xlink:href="#mb00542871b" y="251.991573"/>
     <use style="fill:#ff0000;stroke:#ff0000;" x="2580.148267" xlink:href="#mb00542871b" y="251.996331"/>
     <use style="fill:#ff0000;stroke:#ff0000;" x="2591.635131" xlink:href="#mb00542871b" y="251.997389"/>
     <use style="fill:#ff0000;stroke:#ff0000;" x="2603.068567" xlink:href="#mb00542871b" y="251.99631"/>
     <use style="fill:#ff0000;stroke:#ff0000;" x="2623.050366" xlink:href="#mb00542871b" y="251.996808"/>
     <use style="fill:#ff0000;stroke:#ff0000;" x="2639.185402" xlink:href="#mb00542871b" y="251.99609"/>
     <use style="fill:#ff0000;stroke:#ff0000;" x="2651.259966" xlink:href="#mb00542871b" y="251.996748"/>
     <use style="fill:#ff0000;stroke:#ff0000;" x="2662.693402" xlink:href="#mb00542871b" y="251.996325"/>
     <use style="fill:#ff0000;stroke:#ff0000;" x="2677.653038" xlink:href="#mb00542871b" y="251.996896"/>
     <use style="fill:#ff0000;stroke:#ff0000;" x="2690.208447" xlink:href="#mb00542871b" y="251.996272"/>
     <use style="fill:#ff0000;stroke:#ff0000;" x="2705.007801" xlink:href="#mb00542871b" y="251.996534"/>
     <use style="fill:#ff0000;stroke:#ff0000;" x="2720.661992" xlink:href="#mb00542871b" y="251.995987"/>
     <use style="fill:#ff0000;stroke:#ff0000;" x="2735.728483" xlink:href="#mb00542871b" y="251.99572"/>
     <use style="fill:#ff0000;stroke:#ff0000;" x="2752.771782" xlink:href="#mb00542871b" y="251.996125"/>
     <use style="fill:#ff0000;stroke:#ff0000;" x="2763.670946" xlink:href="#mb00542871b" y="251.995206"/>
     <use style="fill:#ff0000;stroke:#ff0000;" x="2780.073118" xlink:href="#mb00542871b" y="251.995185"/>
     <use style="fill:#ff0000;stroke:#ff0000;" x="2799.734354" xlink:href="#mb00542871b" y="251.995451"/>
     <use style="fill:#ff0000;stroke:#ff0000;" x="2814.373427" xlink:href="#mb00542871b" y="251.995669"/>
     <use style="fill:#ff0000;stroke:#ff0000;" x="2833.393536" xlink:href="#mb00542871b" y="251.995897"/>
     <use style="fill:#ff0000;stroke:#ff0000;" x="2844.880399" xlink:href="#mb00542871b" y="251.995341"/>
     <use style="fill:#ff0000;stroke:#ff0000;" x="2855.939844" xlink:href="#mb00542871b" y="251.996523"/>
     <use style="fill:#ff0000;stroke:#ff0000;" x="2867.747271" xlink:href="#mb00542871b" y="251.994907"/>
     <use style="fill:#ff0000;stroke:#ff0000;" x="2879.073853" xlink:href="#mb00542871b" y="251.994512"/>
     <use style="fill:#ff0000;stroke:#ff0000;" x="2890.88128" xlink:href="#mb00542871b" y="251.995358"/>
     <use style="fill:#ff0000;stroke:#ff0000;" x="2904.825798" xlink:href="#mb00542871b" y="251.994771"/>
     <use style="fill:#ff0000;stroke:#ff0000;" x="2923.632198" xlink:href="#mb00542871b" y="251.994341"/>
     <use style="fill:#ff0000;stroke:#ff0000;" x="2936.989016" xlink:href="#mb00542871b" y="251.995596"/>
     <use style="fill:#ff0000;stroke:#ff0000;" x="2956.703679" xlink:href="#mb00542871b" y="251.993689"/>
     <use style="fill:#ff0000;stroke:#ff0000;" x="2971.449606" xlink:href="#mb00542871b" y="251.994623"/>
     <use style="fill:#ff0000;stroke:#ff0000;" x="2983.203606" xlink:href="#mb00542871b" y="251.99517"/>
     <use style="fill:#ff0000;stroke:#ff0000;" x="2994.637042" xlink:href="#mb00542871b" y="251.993775"/>
     <use style="fill:#ff0000;stroke:#ff0000;" x="3006.337615" xlink:href="#mb00542871b" y="251.995177"/>
     <use style="fill:#ff0000;stroke:#ff0000;" x="3020.282133" xlink:href="#mb00542871b" y="251.994265"/>
     <use style="fill:#ff0000;stroke:#ff0000;" x="3034.600641" xlink:href="#mb00542871b" y="251.99465"/>
     <use style="fill:#ff0000;stroke:#ff0000;" x="3048.117741" xlink:href="#mb00542871b" y="251.993911"/>
     <use style="fill:#ff0000;stroke:#ff0000;" x="3064.252777" xlink:href="#mb00542871b" y="251.994265"/>
     <use style="fill:#ff0000;stroke:#ff0000;" x="3077.609595" xlink:href="#mb00542871b" y="251.994625"/>
     <use style="fill:#ff0000;stroke:#ff0000;" x="3088.455331" xlink:href="#mb00542871b" y="251.99294"/>
     <use style="fill:#ff0000;stroke:#ff0000;" x="3103.735531" xlink:href="#mb00542871b" y="251.994671"/>
     <use style="fill:#ff0000;stroke:#ff0000;" x="3115.70324" xlink:href="#mb00542871b" y="251.994573"/>
     <use style="fill:#ff0000;stroke:#ff0000;" x="3132.319122" xlink:href="#mb00542871b" y="251.993427"/>
     <use style="fill:#ff0000;stroke:#ff0000;" x="3143.69913" xlink:href="#mb00542871b" y="251.99566"/>
     <use style="fill:#ff0000;stroke:#ff0000;" x="3154.705148" xlink:href="#mb00542871b" y="251.993627"/>
     <use style="fill:#ff0000;stroke:#ff0000;" x="3169.771639" xlink:href="#mb00542871b" y="251.9933"/>
     <use style="fill:#ff0000;stroke:#ff0000;" x="3186.975221" xlink:href="#mb00542871b" y="251.99411"/>
     <use style="fill:#ff0000;stroke:#ff0000;" x="3201.240302" xlink:href="#mb00542871b" y="251.992458"/>
     <use style="fill:#ff0000;stroke:#ff0000;" x="3214.543693" xlink:href="#mb00542871b" y="251.994519"/>
     <use style="fill:#ff0000;stroke:#ff0000;" x="3228.808774" xlink:href="#mb00542871b" y="251.993203"/>
     <use style="fill:#ff0000;stroke:#ff0000;" x="3248.363156" xlink:href="#mb00542871b" y="251.993658"/>
     <use style="fill:#ff0000;stroke:#ff0000;" x="3259.102038" xlink:href="#mb00542871b" y="251.995023"/>
     <use style="fill:#ff0000;stroke:#ff0000;" x="3269.840919" xlink:href="#mb00542871b" y="251.994172"/>
     <use style="fill:#ff0000;stroke:#ff0000;" x="3281.808628" xlink:href="#mb00542871b" y="251.994688"/>
     <use style="fill:#ff0000;stroke:#ff0000;" x="3292.814646" xlink:href="#mb00542871b" y="251.993232"/>
     <use style="fill:#ff0000;stroke:#ff0000;" x="3306.65231" xlink:href="#mb00542871b" y="251.993327"/>
     <use style="fill:#ff0000;stroke:#ff0000;" x="3324.283309" xlink:href="#mb00542871b" y="251.992791"/>
     <use style="fill:#ff0000;stroke:#ff0000;" x="3340.204636" xlink:href="#mb00542871b" y="251.993539"/>
     <use style="fill:#ff0000;stroke:#ff0000;" x="3356.660236" xlink:href="#mb00542871b" y="251.993767"/>
     <use style="fill:#ff0000;stroke:#ff0000;" x="3368.307381" xlink:href="#mb00542871b" y="251.995456"/>
     <use style="fill:#ff0000;stroke:#ff0000;" x="3380.809363" xlink:href="#mb00542871b" y="251.993836"/>
     <use style="fill:#ff0000;stroke:#ff0000;" x="3391.922235" xlink:href="#mb00542871b" y="251.993766"/>
     <use style="fill:#ff0000;stroke:#ff0000;" x="3403.409099" xlink:href="#mb00542871b" y="251.993123"/>
     <use style="fill:#ff0000;stroke:#ff0000;" x="3421.574371" xlink:href="#mb00542871b" y="251.992382"/>
     <use style="fill:#ff0000;stroke:#ff0000;" x="3432.259826" xlink:href="#mb00542871b" y="251.993242"/>
     <use style="fill:#ff0000;stroke:#ff0000;" x="3444.227535" xlink:href="#mb00542871b" y="251.992533"/>
     <use style="fill:#ff0000;stroke:#ff0000;" x="3456.355525" xlink:href="#mb00542871b" y="251.993342"/>
     <use style="fill:#ff0000;stroke:#ff0000;" x="3472.437134" xlink:href="#mb00542871b" y="251.992888"/>
     <use style="fill:#ff0000;stroke:#ff0000;" x="3486.80907" xlink:href="#mb00542871b" y="251.993498"/>
     <use style="fill:#ff0000;stroke:#ff0000;" x="3502.463261" xlink:href="#mb00542871b" y="251.993423"/>
     <use style="fill:#ff0000;stroke:#ff0000;" x="3519.185997" xlink:href="#mb00542871b" y="251.992703"/>
     <use style="fill:#ff0000;stroke:#ff0000;" x="3534.412769" xlink:href="#mb00542871b" y="251.991553"/>
     <use style="fill:#ff0000;stroke:#ff0000;" x="3555.035696" xlink:href="#mb00542871b" y="251.992041"/>
     <use style="fill:#ff0000;stroke:#ff0000;" x="3566.949978" xlink:href="#mb00542871b" y="251.993806"/>
     <use style="fill:#ff0000;stroke:#ff0000;" x="3583.512432" xlink:href="#mb00542871b" y="251.991682"/>
    </g>
   </g>
   <g id="patch_3">
    <path d="M 54 252 
L 54 34.56 
" style="fill:none;stroke:#000000;stroke-linecap:square;stroke-linejoin:miter;stroke-width:0.8;"/>
   </g>
   <g id="patch_4">
    <path d="M 388.8 252 
L 388.8 34.56 
" style="fill:none;stroke:#000000;stroke-linecap:square;stroke-linejoin:miter;stroke-width:0.8;"/>
   </g>
   <g id="patch_5">
    <path d="M 54 252 
L 388.8 252 
" style="fill:none;stroke:#000000;stroke-linecap:square;stroke-linejoin:miter;stroke-width:0.8;"/>
   </g>
   <g id="patch_6">
    <path d="M 54 34.56 
L 388.8 34.56 
" style="fill:none;stroke:#000000;stroke-linecap:square;stroke-linejoin:miter;stroke-width:0.8;"/>
   </g>
   <g id="text_15">
    <!-- Amplitude vs. Frequency -->
    <defs>
     <path d="M 2.984375 54.6875 
L 12.5 54.6875 
L 29.59375 8.796875 
L 46.6875 54.6875 
L 56.203125 54.6875 
L 35.6875 0 
L 23.484375 0 
z
" id="DejaVuSans-118"/>
     <path d="M 44.28125 53.078125 
L 44.28125 44.578125 
Q 40.484375 46.53125 36.375 47.5 
Q 32.28125 48.484375 27.875 48.484375 
Q 21.1875 48.484375 17.84375 46.4375 
Q 14.5 44.390625 14.5 40.28125 
Q 14.5 37.15625 16.890625 35.375 
Q 19.28125 33.59375 26.515625 31.984375 
L 29.59375 31.296875 
Q 39.15625 29.25 43.1875 25.515625 
Q 47.21875 21.78125 47.21875 15.09375 
Q 47.21875 7.46875 41.1875 3.015625 
Q 35.15625 -1.421875 24.609375 -1.421875 
Q 20.21875 -1.421875 15.453125 -0.5625 
Q 10.6875 0.296875 5.421875 2 
L 5.421875 11.28125 
Q 10.40625 8.6875 15.234375 7.390625 
Q 20.0625 6.109375 24.8125 6.109375 
Q 31.15625 6.109375 34.5625 8.28125 
Q 37.984375 10.453125 37.984375 14.40625 
Q 37.984375 18.0625 35.515625 20.015625 
Q 33.0625 21.96875 24.703125 23.78125 
L 21.578125 24.515625 
Q 13.234375 26.265625 9.515625 29.90625 
Q 5.8125 33.546875 5.8125 39.890625 
Q 5.8125 47.609375 11.28125 51.796875 
Q 16.75 56 26.8125 56 
Q 31.78125 56 36.171875 55.265625 
Q 40.578125 54.546875 44.28125 53.078125 
z
" id="DejaVuSans-115"/>
    </defs>
    <g transform="translate(146.698125 28.56)scale(0.12 -0.12)">
     <use xlink:href="#DejaVuSans-65"/>
     <use x="68.408203" xlink:href="#DejaVuSans-109"/>
     <use x="165.820312" xlink:href="#DejaVuSans-112"/>
     <use x="229.296875" xlink:href="#DejaVuSans-108"/>
     <use x="257.080078" xlink:href="#DejaVuSans-105"/>
     <use x="284.863281" xlink:href="#DejaVuSans-116"/>
     <use x="324.072266" xlink:href="#DejaVuSans-117"/>
     <use x="387.451172" xlink:href="#DejaVuSans-100"/>
     <use x="450.927734" xlink:href="#DejaVuSans-101"/>
     <use x="512.451172" xlink:href="#DejaVuSans-32"/>
     <use x="544.238281" xlink:href="#DejaVuSans-118"/>
     <use x="603.417969" xlink:href="#DejaVuSans-115"/>
     <use x="655.517578" xlink:href="#DejaVuSans-46"/>
     <use x="687.304688" xlink:href="#DejaVuSans-32"/>
     <use x="719.091797" xlink:href="#DejaVuSans-70"/>
     <use x="776.501953" xlink:href="#DejaVuSans-114"/>
     <use x="817.583984" xlink:href="#DejaVuSans-101"/>
     <use x="879.107422" xlink:href="#DejaVuSans-113"/>
     <use x="942.583984" xlink:href="#DejaVuSans-117"/>
     <use x="1005.962891" xlink:href="#DejaVuSans-101"/>
     <use x="1067.486328" xlink:href="#DejaVuSans-110"/>
     <use x="1130.865234" xlink:href="#DejaVuSans-99"/>
     <use x="1185.845703" xlink:href="#DejaVuSans-121"/>
    </g>
   </g>
  </g>
 </g>
 <defs>
  <clipPath id="pe9d98a5554">
   <rect height="217.44" width="334.8" x="54" y="34.56"/>
  </clipPath>
 </defs>
</svg>
