<?xml version="1.0" encoding="utf-8" standalone="no"?>
<!DOCTYPE svg PUBLIC "-//W3C//DTD SVG 1.1//EN"
  "http://www.w3.org/Graphics/SVG/1.1/DTD/svg11.dtd">
<!-- Created with matplotlib (https://matplotlib.org/) -->
<svg height="432pt" version="1.1" viewBox="0 0 576 432" width="576pt" xmlns="http://www.w3.org/2000/svg" xmlns:xlink="http://www.w3.org/1999/xlink">
 <defs>
  <style type="text/css">
*{stroke-linecap:butt;stroke-linejoin:round;}
  </style>
 </defs>
 <g id="figure_1">
  <g id="patch_1">
   <path d="M 0 432 
L 576 432 
L 576 0 
L 0 0 
z
" style="fill:#ffffff;"/>
  </g>
  <g id="axes_1">
   <g id="patch_2">
    <path d="M 72 378 
L 518.4 378 
L 518.4 51.84 
L 72 51.84 
z
" style="fill:#ffffff;"/>
   </g>
   <g id="matplotlib.axis_1">
    <g id="xtick_1">
     <g id="line2d_1">
      <path clip-path="url(#pd946669557)" d="M 72 378 
L 72 51.84 
" style="fill:none;stroke:#b0b0b0;stroke-linecap:square;stroke-width:0.8;"/>
     </g>
     <g id="line2d_2">
      <defs>
       <path d="M 0 0 
L 0 3.5 
" id="m2f5180c97e" style="stroke:#000000;stroke-width:0.8;"/>
      </defs>
      <g>
       <use style="stroke:#000000;stroke-width:0.8;" x="72" xlink:href="#m2f5180c97e" y="378"/>
      </g>
     </g>
     <g id="text_1">
      <!-- 0 -->
      <defs>
       <path d="M 46.34375 33.109375 
Q 46.34375 23.1875 43.5625 14.59375 
Q 41.890625 9.328125 39.078125 5.953125 
Q 36.28125 2.59375 32.71875 0.609375 
Q 29.15625 -1.375 24.953125 -1.375 
Q 20.171875 -1.375 16.3125 1.0625 
Q 12.453125 3.515625 9.46875 8.0625 
Q 7.328125 11.375 5.71875 16.890625 
Q 3.609375 24.359375 3.609375 32.328125 
Q 3.609375 43.109375 6.640625 52.15625 
Q 9.125 59.625 14.203125 63.59375 
Q 19.28125 67.578125 24.953125 67.578125 
Q 30.71875 67.578125 35.71875 63.640625 
Q 40.71875 59.71875 43.0625 53.078125 
Q 46.34375 43.953125 46.34375 33.109375 
z
M 31.296875 33.203125 
Q 31.296875 50.59375 31.109375 53.46875 
Q 30.609375 60.25 28.765625 62.640625 
Q 27.546875 64.203125 24.8125 64.203125 
Q 22.703125 64.203125 21.484375 63.03125 
Q 19.671875 61.328125 19.03125 57 
Q 18.40625 52.6875 18.40625 26.859375 
Q 18.40625 12.796875 19.390625 8.015625 
Q 20.125 4.546875 21.484375 3.375 
Q 22.859375 2.203125 25.09375 2.203125 
Q 27.546875 2.203125 28.765625 3.765625 
Q 30.8125 6.5 31.109375 12.203125 
z
" id="TimesNewRomanPS-BoldMT-48"/>
      </defs>
      <g transform="translate(67 398.24375)scale(0.2 -0.2)">
       <use xlink:href="#TimesNewRomanPS-BoldMT-48"/>
      </g>
     </g>
    </g>
    <g id="xtick_2">
     <g id="line2d_3">
      <path clip-path="url(#pd946669557)" d="M 161.28 378 
L 161.28 51.84 
" style="fill:none;stroke:#b0b0b0;stroke-linecap:square;stroke-width:0.8;"/>
     </g>
     <g id="line2d_4">
      <g>
       <use style="stroke:#000000;stroke-width:0.8;" x="161.28" xlink:href="#m2f5180c97e" y="378"/>
      </g>
     </g>
     <g id="text_2">
      <!-- 200 -->
      <defs>
       <path d="M 41.40625 0 
L 2.4375 0 
L 2.4375 1.078125 
Q 20.359375 22.40625 24.1875 29.78125 
Q 28.03125 37.15625 28.03125 44.1875 
Q 28.03125 49.3125 24.859375 52.703125 
Q 21.6875 56.109375 17.09375 56.109375 
Q 9.578125 56.109375 5.421875 48.578125 
L 3.609375 49.21875 
Q 6.25 58.59375 11.625 63.078125 
Q 17 67.578125 24.03125 67.578125 
Q 29.046875 67.578125 33.203125 65.234375 
Q 37.359375 62.890625 39.703125 58.8125 
Q 42.046875 54.734375 42.046875 51.171875 
Q 42.046875 44.671875 38.421875 37.984375 
Q 33.5 28.953125 16.890625 12.796875 
L 31.203125 12.796875 
Q 36.46875 12.796875 38.0625 13.234375 
Q 39.65625 13.671875 40.671875 14.71875 
Q 41.703125 15.765625 43.359375 19.140625 
L 45.125 19.140625 
z
" id="TimesNewRomanPS-BoldMT-50"/>
      </defs>
      <g transform="translate(146.28 398.24375)scale(0.2 -0.2)">
       <use xlink:href="#TimesNewRomanPS-BoldMT-50"/>
       <use x="50" xlink:href="#TimesNewRomanPS-BoldMT-48"/>
       <use x="100" xlink:href="#TimesNewRomanPS-BoldMT-48"/>
      </g>
     </g>
    </g>
    <g id="xtick_3">
     <g id="line2d_5">
      <path clip-path="url(#pd946669557)" d="M 250.56 378 
L 250.56 51.84 
" style="fill:none;stroke:#b0b0b0;stroke-linecap:square;stroke-width:0.8;"/>
     </g>
     <g id="line2d_6">
      <g>
       <use style="stroke:#000000;stroke-width:0.8;" x="250.56" xlink:href="#m2f5180c97e" y="378"/>
      </g>
     </g>
     <g id="text_3">
      <!-- 400 -->
      <defs>
       <path d="M 2.484375 24.953125 
L 33.9375 67.578125 
L 39.890625 67.578125 
L 39.890625 24.953125 
L 45.953125 24.953125 
L 45.953125 14.84375 
L 39.890625 14.84375 
L 39.890625 0 
L 26.46875 0 
L 26.46875 14.84375 
L 2.484375 14.84375 
z
M 7.234375 24.953125 
L 26.46875 24.953125 
L 26.46875 51.078125 
z
" id="TimesNewRomanPS-BoldMT-52"/>
      </defs>
      <g transform="translate(235.56 398.24375)scale(0.2 -0.2)">
       <use xlink:href="#TimesNewRomanPS-BoldMT-52"/>
       <use x="50" xlink:href="#TimesNewRomanPS-BoldMT-48"/>
       <use x="100" xlink:href="#TimesNewRomanPS-BoldMT-48"/>
      </g>
     </g>
    </g>
    <g id="xtick_4">
     <g id="line2d_7">
      <path clip-path="url(#pd946669557)" d="M 339.84 378 
L 339.84 51.84 
" style="fill:none;stroke:#b0b0b0;stroke-linecap:square;stroke-width:0.8;"/>
     </g>
     <g id="line2d_8">
      <g>
       <use style="stroke:#000000;stroke-width:0.8;" x="339.84" xlink:href="#m2f5180c97e" y="378"/>
      </g>
     </g>
     <g id="text_4">
      <!-- 600 -->
      <defs>
       <path d="M 46.96875 67.578125 
L 46.96875 66.21875 
Q 38.140625 63.96875 32.78125 60.421875 
Q 27.4375 56.890625 24.328125 51.828125 
Q 21.234375 46.78125 19.53125 39.3125 
Q 21.6875 40.765625 23.09375 41.21875 
Q 26.265625 42.1875 29.5 42.1875 
Q 36.921875 42.1875 41.875 36.78125 
Q 46.828125 31.390625 46.828125 22.078125 
Q 46.828125 15.53125 44.140625 10.0625 
Q 41.453125 4.59375 36.515625 1.609375 
Q 31.59375 -1.375 25.984375 -1.375 
Q 19.875 -1.375 14.6875 1.96875 
Q 9.515625 5.328125 6.609375 11.765625 
Q 3.71875 18.21875 3.71875 25.78125 
Q 3.71875 36.921875 9.0625 46.515625 
Q 14.40625 56.109375 24.234375 61.796875 
Q 34.078125 67.484375 46.96875 67.578125 
z
M 18.890625 35.359375 
Q 18.5 28.609375 18.5 25.484375 
Q 18.5 18.75 19.796875 12.453125 
Q 21.09375 6.15625 23.34375 3.609375 
Q 24.953125 1.8125 27.15625 1.8125 
Q 29.390625 1.8125 31.140625 4.421875 
Q 32.90625 7.03125 32.90625 15.046875 
Q 32.90625 28.515625 29.640625 33.640625 
Q 27.546875 36.96875 23.96875 36.96875 
Q 22.015625 36.96875 18.890625 35.359375 
z
" id="TimesNewRomanPS-BoldMT-54"/>
      </defs>
      <g transform="translate(324.84 398.24375)scale(0.2 -0.2)">
       <use xlink:href="#TimesNewRomanPS-BoldMT-54"/>
       <use x="50" xlink:href="#TimesNewRomanPS-BoldMT-48"/>
       <use x="100" xlink:href="#TimesNewRomanPS-BoldMT-48"/>
      </g>
     </g>
    </g>
    <g id="xtick_5">
     <g id="line2d_9">
      <path clip-path="url(#pd946669557)" d="M 429.12 378 
L 429.12 51.84 
" style="fill:none;stroke:#b0b0b0;stroke-linecap:square;stroke-width:0.8;"/>
     </g>
     <g id="line2d_10">
      <g>
       <use style="stroke:#000000;stroke-width:0.8;" x="429.12" xlink:href="#m2f5180c97e" y="378"/>
      </g>
     </g>
     <g id="text_5">
      <!-- 800 -->
      <defs>
       <path d="M 34.078125 37.40625 
Q 41.0625 32.28125 43.765625 27.859375 
Q 46.484375 23.4375 46.484375 17.71875 
Q 46.484375 9.71875 40.453125 4.171875 
Q 34.421875 -1.375 24.078125 -1.375 
Q 14.265625 -1.375 8.890625 3.453125 
Q 3.515625 8.296875 3.515625 15.28125 
Q 3.515625 20.609375 6.609375 24.609375 
Q 9.71875 28.609375 16.9375 31.9375 
Q 9.078125 37.9375 6.859375 41.75 
Q 4.640625 45.5625 4.640625 50.59375 
Q 4.640625 57.234375 10.28125 62.28125 
Q 15.921875 67.328125 25.734375 67.328125 
Q 35.203125 67.328125 40.296875 62.859375 
Q 45.40625 58.40625 45.40625 52.15625 
Q 45.40625 47.46875 42.640625 43.875 
Q 39.890625 40.28125 34.078125 37.40625 
z
M 30.375 39.890625 
Q 32.171875 42.328125 33.046875 45.359375 
Q 33.9375 48.390625 33.9375 52 
Q 33.9375 58.34375 31.203125 61.71875 
Q 29.15625 64.3125 25.53125 64.3125 
Q 22.265625 64.3125 19.96875 61.9375 
Q 17.671875 59.578125 17.671875 56.0625 
Q 17.671875 52.484375 20.234375 48.65625 
Q 22.796875 44.828125 30.375 39.890625 
z
M 20.609375 29.59375 
Q 19.09375 28.21875 18.453125 27.09375 
Q 17.484375 25.390625 16.703125 22.109375 
Q 15.921875 18.84375 15.921875 15.28125 
Q 15.921875 10.6875 17.09375 7.59375 
Q 18.265625 4.5 20.4375 3.125 
Q 22.609375 1.765625 24.90625 1.765625 
Q 28.46875 1.765625 30.90625 4.375 
Q 33.34375 6.984375 33.34375 11.53125 
Q 33.34375 21 20.609375 29.59375 
z
" id="TimesNewRomanPS-BoldMT-56"/>
      </defs>
      <g transform="translate(414.12 398.24375)scale(0.2 -0.2)">
       <use xlink:href="#TimesNewRomanPS-BoldMT-56"/>
       <use x="50" xlink:href="#TimesNewRomanPS-BoldMT-48"/>
       <use x="100" xlink:href="#TimesNewRomanPS-BoldMT-48"/>
      </g>
     </g>
    </g>
    <g id="xtick_6">
     <g id="line2d_11">
      <path clip-path="url(#pd946669557)" d="M 518.4 378 
L 518.4 51.84 
" style="fill:none;stroke:#b0b0b0;stroke-linecap:square;stroke-width:0.8;"/>
     </g>
     <g id="line2d_12">
      <g>
       <use style="stroke:#000000;stroke-width:0.8;" x="518.4" xlink:href="#m2f5180c97e" y="378"/>
      </g>
     </g>
     <g id="text_6">
      <!-- 1000 -->
      <defs>
       <path d="M 32.5625 67.578125 
L 32.5625 13.421875 
Q 32.5625 7.328125 33.09375 5.640625 
Q 33.640625 3.953125 35.34375 2.875 
Q 37.0625 1.8125 40.828125 1.8125 
L 42.328125 1.8125 
L 42.328125 0 
L 7.46875 0 
L 7.46875 1.8125 
L 9.234375 1.8125 
Q 13.484375 1.8125 15.28125 2.78125 
Q 17.09375 3.765625 17.71875 5.46875 
Q 18.359375 7.171875 18.359375 13.421875 
L 18.359375 47.75 
Q 18.359375 52.34375 17.921875 53.484375 
Q 17.484375 54.640625 16.28125 55.4375 
Q 15.09375 56.25 13.53125 56.25 
Q 11.03125 56.25 7.46875 54.6875 
L 6.59375 56.453125 
L 30.953125 67.578125 
z
" id="TimesNewRomanPS-BoldMT-49"/>
      </defs>
      <g transform="translate(498.4 398.24375)scale(0.2 -0.2)">
       <use xlink:href="#TimesNewRomanPS-BoldMT-49"/>
       <use x="50" xlink:href="#TimesNewRomanPS-BoldMT-48"/>
       <use x="100" xlink:href="#TimesNewRomanPS-BoldMT-48"/>
       <use x="150" xlink:href="#TimesNewRomanPS-BoldMT-48"/>
      </g>
     </g>
    </g>
    <g id="text_7">
     <!-- Frequency (Hz)) -->
     <defs>
      <path d="M 27.484375 62.40625 
L 27.484375 35.203125 
L 29.390625 35.203125 
Q 33.796875 35.203125 36.578125 36.515625 
Q 39.359375 37.84375 41.28125 40.96875 
Q 43.21875 44.09375 43.796875 49.421875 
L 45.515625 49.421875 
L 45.515625 16.15625 
L 43.796875 16.15625 
Q 42.875 25.59375 38.75 28.59375 
Q 34.625 31.59375 29.390625 31.59375 
L 27.484375 31.59375 
L 27.484375 11.328125 
Q 27.484375 6.25 28.046875 4.984375 
Q 28.609375 3.71875 30.25 2.765625 
Q 31.890625 1.8125 34.671875 1.8125 
L 36.859375 1.8125 
L 36.859375 0 
L 2.25 0 
L 2.25 1.8125 
L 4.4375 1.8125 
Q 7.328125 1.8125 9.078125 2.828125 
Q 10.359375 3.515625 11.03125 5.171875 
Q 11.578125 6.34375 11.578125 11.328125 
L 11.578125 54.890625 
Q 11.578125 59.96875 11.03125 61.234375 
Q 10.5 62.5 8.859375 63.453125 
Q 7.234375 64.40625 4.4375 64.40625 
L 2.25 64.40625 
L 2.25 66.21875 
L 58.109375 66.21875 
L 58.109375 47.21875 
L 56.109375 47.21875 
Q 55.421875 53.90625 52.609375 57.125 
Q 49.8125 60.359375 44.484375 61.671875 
Q 41.546875 62.40625 33.640625 62.40625 
z
" id="TimesNewRomanPS-BoldMT-70"/>
      <path d="M 22.3125 45.65625 
L 22.3125 35.296875 
Q 26.859375 42.390625 30.265625 44.703125 
Q 33.6875 47.015625 36.859375 47.015625 
Q 39.59375 47.015625 41.234375 45.328125 
Q 42.875 43.65625 42.875 40.578125 
Q 42.875 37.3125 41.28125 35.5 
Q 39.703125 33.6875 37.453125 33.6875 
Q 34.859375 33.6875 32.953125 35.34375 
Q 31.0625 37.015625 30.71875 37.203125 
Q 30.21875 37.5 29.59375 37.5 
Q 28.171875 37.5 26.90625 36.421875 
Q 24.90625 34.765625 23.875 31.6875 
Q 22.3125 26.953125 22.3125 21.234375 
L 22.3125 10.75 
L 22.359375 8.015625 
Q 22.359375 5.21875 22.703125 4.4375 
Q 23.296875 3.125 24.4375 2.515625 
Q 25.59375 1.90625 28.328125 1.765625 
L 28.328125 0 
L 3.65625 0 
L 3.65625 1.765625 
Q 6.640625 2 7.6875 3.390625 
Q 8.734375 4.78125 8.734375 10.75 
L 8.734375 35.984375 
Q 8.734375 39.890625 8.34375 40.96875 
Q 7.859375 42.328125 6.921875 42.96875 
Q 6 43.609375 3.65625 43.84375 
L 3.65625 45.65625 
z
" id="TimesNewRomanPS-BoldMT-114"/>
      <path d="M 42.046875 24.46875 
L 17 24.46875 
Q 17.4375 15.375 21.828125 10.109375 
Q 25.203125 6.0625 29.9375 6.0625 
Q 32.859375 6.0625 35.25 7.6875 
Q 37.640625 9.328125 40.375 13.578125 
L 42.046875 12.5 
Q 38.328125 4.9375 33.828125 1.78125 
Q 29.34375 -1.375 23.4375 -1.375 
Q 13.28125 -1.375 8.0625 6.453125 
Q 3.859375 12.75 3.859375 22.078125 
Q 3.859375 33.5 10.03125 40.25 
Q 16.21875 47.015625 24.515625 47.015625 
Q 31.453125 47.015625 36.546875 41.328125 
Q 41.65625 35.640625 42.046875 24.46875 
z
M 30.03125 27.734375 
Q 30.03125 35.59375 29.171875 38.515625 
Q 28.328125 41.453125 26.515625 42.96875 
Q 25.484375 43.84375 23.78125 43.84375 
Q 21.234375 43.84375 19.625 41.359375 
Q 16.75 37.015625 16.75 29.4375 
L 16.75 27.734375 
z
" id="TimesNewRomanPS-BoldMT-101"/>
      <path d="M 34.03125 4.78125 
Q 31.0625 1.65625 28.46875 0.390625 
Q 25.046875 -1.375 21.34375 -1.375 
Q 12.75 -1.375 7.765625 6.296875 
Q 3.8125 12.40625 3.8125 20.90625 
Q 3.8125 27.984375 6.8125 34.203125 
Q 9.8125 40.4375 15.0625 43.71875 
Q 20.3125 47.015625 26.171875 47.015625 
Q 30.078125 47.015625 33.125 45.703125 
Q 36.1875 44.390625 38.375 41.703125 
L 46.046875 47.015625 
L 47.703125 47.015625 
L 47.703125 -12.109375 
Q 47.703125 -16.609375 48.484375 -17.71875 
Q 49.75 -19.53125 53.609375 -19.578125 
L 53.609375 -21.390625 
L 27.25 -21.390625 
L 27.25 -19.578125 
Q 30.28125 -19.578125 31.640625 -18.890625 
Q 33.015625 -18.21875 33.515625 -17.09375 
Q 34.03125 -15.96875 34.03125 -12.5 
z
M 34.03125 9.234375 
L 34.03125 28.03125 
Q 34.03125 35.890625 33.171875 38.421875 
Q 32.328125 40.96875 30.03125 42.828125 
Q 28.859375 43.75 27.046875 43.75 
Q 23.34375 43.75 21.296875 40.484375 
Q 18.0625 35.453125 18.0625 21.78125 
Q 18.0625 11.28125 20.84375 7.03125 
Q 22.75 4.15625 25.78125 4.15625 
Q 27.546875 4.15625 29.765625 5.375 
Q 31.984375 6.59375 34.03125 9.234375 
z
" id="TimesNewRomanPS-BoldMT-113"/>
      <path d="M 47.46875 45.65625 
L 47.46875 9.90625 
Q 47.46875 4.6875 48.4375 3.390625 
Q 49.421875 2.09375 52.390625 1.765625 
L 52.390625 0 
L 33.796875 0 
L 33.796875 6.109375 
Q 30.515625 2.203125 27.234375 0.40625 
Q 23.96875 -1.375 19.921875 -1.375 
Q 16.0625 -1.375 13.0625 1 
Q 10.0625 3.375 9.03125 6.546875 
Q 8.015625 9.71875 8.015625 17.625 
L 8.015625 35.75 
Q 8.015625 40.921875 7.0625 42.1875 
Q 6.109375 43.453125 3.078125 43.84375 
L 3.078125 45.65625 
L 21.6875 45.65625 
L 21.6875 14.453125 
Q 21.6875 9.578125 22.140625 8.15625 
Q 22.609375 6.734375 23.609375 6 
Q 24.609375 5.28125 25.921875 5.28125 
Q 27.6875 5.28125 29.109375 6.203125 
Q 31.0625 7.46875 33.796875 11.328125 
L 33.796875 35.75 
Q 33.796875 40.921875 32.84375 42.1875 
Q 31.890625 43.453125 28.859375 43.84375 
L 28.859375 45.65625 
z
" id="TimesNewRomanPS-BoldMT-117"/>
      <path d="M 22.015625 45.65625 
L 22.015625 39.75 
Q 25.53125 43.5625 28.75 45.28125 
Q 31.984375 47.015625 35.6875 47.015625 
Q 40.140625 47.015625 43.0625 44.546875 
Q 46 42.09375 46.96875 38.421875 
Q 47.75 35.640625 47.75 27.734375 
L 47.75 9.96875 
Q 47.75 4.6875 48.703125 3.390625 
Q 49.65625 2.09375 52.6875 1.765625 
L 52.6875 0 
L 29.59375 0 
L 29.59375 1.765625 
Q 32.171875 2.09375 33.296875 3.90625 
Q 34.078125 5.125 34.078125 9.96875 
L 34.078125 30.28125 
Q 34.078125 35.890625 33.640625 37.34375 
Q 33.203125 38.8125 32.15625 39.625 
Q 31.109375 40.4375 29.828125 40.4375 
Q 25.640625 40.4375 22.015625 34.421875 
L 22.015625 9.96875 
Q 22.015625 4.828125 22.96875 3.453125 
Q 23.921875 2.09375 26.515625 1.765625 
L 26.515625 0 
L 3.421875 0 
L 3.421875 1.765625 
Q 6.296875 2.046875 7.515625 3.609375 
Q 8.34375 4.6875 8.34375 9.96875 
L 8.34375 35.75 
Q 8.34375 40.921875 7.390625 42.1875 
Q 6.453125 43.453125 3.421875 43.84375 
L 3.421875 45.65625 
z
" id="TimesNewRomanPS-BoldMT-110"/>
      <path d="M 40.625 11.765625 
L 42.140625 10.59375 
Q 38.921875 4.546875 34.109375 1.578125 
Q 29.296875 -1.375 23.875 -1.375 
Q 14.75 -1.375 9.28125 5.515625 
Q 3.8125 12.40625 3.8125 22.078125 
Q 3.8125 31.390625 8.796875 38.484375 
Q 14.796875 47.015625 25.34375 47.015625 
Q 32.421875 47.015625 36.59375 43.453125 
Q 40.765625 39.890625 40.765625 35.5 
Q 40.765625 32.71875 39.078125 31.046875 
Q 37.40625 29.390625 34.671875 29.390625 
Q 31.78125 29.390625 29.90625 31.296875 
Q 28.03125 33.203125 27.59375 38.09375 
Q 27.296875 41.15625 26.171875 42.390625 
Q 25.046875 43.609375 23.53125 43.609375 
Q 21.1875 43.609375 19.53125 41.109375 
Q 17 37.359375 17 29.59375 
Q 17 23.140625 19.046875 17.25 
Q 21.09375 11.375 24.65625 8.5 
Q 27.34375 6.390625 31 6.390625 
Q 33.40625 6.390625 35.546875 7.515625 
Q 37.703125 8.640625 40.625 11.765625 
z
" id="TimesNewRomanPS-BoldMT-99"/>
      <path d="M 24.3125 -1.859375 
L 9.578125 31.984375 
Q 6.25 39.65625 4.65625 41.40625 
Q 3.078125 43.171875 0.828125 43.84375 
L 0.828125 45.65625 
L 25.09375 45.65625 
L 25.09375 43.84375 
Q 22.703125 43.75 21.71875 42.921875 
Q 20.75 42.09375 20.75 40.921875 
Q 20.75 39.0625 23.1875 33.59375 
L 31 15.71875 
L 36.328125 29.546875 
Q 39.203125 36.921875 39.203125 39.796875 
Q 39.203125 41.609375 38 42.671875 
Q 36.8125 43.75 33.796875 43.84375 
L 33.796875 45.65625 
L 49.078125 45.65625 
L 49.078125 43.84375 
Q 46.828125 43.609375 45.40625 42.109375 
Q 44 40.625 40.671875 31.984375 
L 27.640625 -1.859375 
Q 22.703125 -14.546875 20.3125 -17.484375 
Q 16.9375 -21.578125 11.859375 -21.578125 
Q 7.8125 -21.578125 5.296875 -19.25 
Q 2.78125 -16.9375 2.78125 -13.671875 
Q 2.78125 -10.84375 4.515625 -8.984375 
Q 6.25 -7.125 8.796875 -7.125 
Q 11.234375 -7.125 12.71875 -8.6875 
Q 14.203125 -10.25 14.265625 -13.53125 
Q 14.3125 -15.375 14.703125 -15.921875 
Q 15.09375 -16.453125 15.828125 -16.453125 
Q 17 -16.453125 18.3125 -15.046875 
Q 20.265625 -12.984375 22.90625 -5.671875 
z
" id="TimesNewRomanPS-BoldMT-121"/>
      <path id="TimesNewRomanPS-BoldMT-32"/>
      <path d="M 32.125 67.71875 
L 32.125 65.484375 
Q 27.046875 62.15625 24.65625 58.984375 
Q 21.34375 54.59375 19.484375 47.703125 
Q 17.140625 39.15625 17.140625 23.828125 
Q 17.140625 9.375 19.265625 1.359375 
Q 21.390625 -6.640625 25.046875 -11.578125 
Q 27.59375 -14.984375 32.125 -17.578125 
L 32.125 -20.015625 
Q 20.359375 -16.0625 12.171875 -3.875 
Q 4 8.296875 4 24.125 
Q 4 39.75 12.15625 51.78125 
Q 20.3125 63.8125 32.125 67.71875 
z
" id="TimesNewRomanPS-BoldMT-40"/>
      <path d="M 27.34375 31.84375 
L 27.34375 11.328125 
Q 27.34375 6.25 27.90625 4.984375 
Q 28.46875 3.71875 30.09375 2.765625 
Q 31.734375 1.8125 34.515625 1.8125 
L 36.71875 1.8125 
L 36.71875 0 
L 2.09375 0 
L 2.09375 1.8125 
L 4.296875 1.8125 
Q 7.171875 1.8125 8.9375 2.828125 
Q 10.203125 3.515625 10.890625 5.171875 
Q 11.421875 6.34375 11.421875 11.328125 
L 11.421875 54.890625 
Q 11.421875 59.96875 10.890625 61.234375 
Q 10.359375 62.5 8.71875 63.453125 
Q 7.078125 64.40625 4.296875 64.40625 
L 2.09375 64.40625 
L 2.09375 66.21875 
L 36.71875 66.21875 
L 36.71875 64.40625 
L 34.515625 64.40625 
Q 31.640625 64.40625 29.890625 63.375 
Q 28.609375 62.703125 27.875 61.03125 
Q 27.34375 59.859375 27.34375 54.890625 
L 27.34375 36.140625 
L 50.734375 36.140625 
L 50.734375 54.890625 
Q 50.734375 59.96875 50.1875 61.234375 
Q 49.65625 62.5 48 63.453125 
Q 46.34375 64.40625 43.5625 64.40625 
L 41.40625 64.40625 
L 41.40625 66.21875 
L 75.984375 66.21875 
L 75.984375 64.40625 
L 73.828125 64.40625 
Q 70.90625 64.40625 69.1875 63.375 
Q 67.921875 62.703125 67.1875 61.03125 
Q 66.65625 59.859375 66.65625 54.890625 
L 66.65625 11.328125 
Q 66.65625 6.25 67.1875 4.984375 
Q 67.71875 3.71875 69.375 2.765625 
Q 71.046875 1.8125 73.828125 1.8125 
L 75.984375 1.8125 
L 75.984375 0 
L 41.40625 0 
L 41.40625 1.8125 
L 43.5625 1.8125 
Q 46.484375 1.8125 48.1875 2.828125 
Q 49.46875 3.515625 50.203125 5.171875 
Q 50.734375 6.34375 50.734375 11.328125 
L 50.734375 31.84375 
z
" id="TimesNewRomanPS-BoldMT-72"/>
      <path d="M 40.765625 0 
L 1.03125 0 
L 1.03125 1.078125 
L 26.125 42.671875 
L 18.796875 42.671875 
Q 14.0625 42.671875 12.015625 41.8125 
Q 9.96875 40.96875 8.6875 39.078125 
Q 7.421875 37.203125 6.0625 32.375 
L 4.34375 32.375 
L 4.34375 45.65625 
L 42.78125 45.65625 
L 42.78125 44.34375 
L 17.875 3.125 
L 21 3.125 
Q 30.375 3.125 34.515625 5.8125 
Q 38.671875 8.5 40.765625 15.625 
L 42.140625 15.625 
z
" id="TimesNewRomanPS-BoldMT-122"/>
      <path d="M 1.21875 -20.015625 
L 1.21875 -17.78125 
Q 6.296875 -14.40625 8.6875 -11.234375 
Q 11.96875 -6.84375 13.875 0 
Q 16.21875 8.59375 16.21875 23.921875 
Q 16.21875 38.375 14.09375 46.359375 
Q 11.96875 54.34375 8.296875 59.28125 
Q 5.765625 62.703125 1.21875 65.28125 
L 1.21875 67.71875 
Q 12.984375 63.765625 21.15625 51.578125 
Q 29.34375 39.40625 29.34375 23.578125 
Q 29.34375 8.015625 21.15625 -4.015625 
Q 12.984375 -16.0625 1.21875 -20.015625 
z
" id="TimesNewRomanPS-BoldMT-41"/>
     </defs>
     <g transform="translate(203.872969 424.12875)scale(0.26 -0.26)">
      <use xlink:href="#TimesNewRomanPS-BoldMT-70"/>
      <use x="61.083984" xlink:href="#TimesNewRomanPS-BoldMT-114"/>
      <use x="105.453125" xlink:href="#TimesNewRomanPS-BoldMT-101"/>
      <use x="149.837891" xlink:href="#TimesNewRomanPS-BoldMT-113"/>
      <use x="205.453125" xlink:href="#TimesNewRomanPS-BoldMT-117"/>
      <use x="261.068359" xlink:href="#TimesNewRomanPS-BoldMT-101"/>
      <use x="305.453125" xlink:href="#TimesNewRomanPS-BoldMT-110"/>
      <use x="361.068359" xlink:href="#TimesNewRomanPS-BoldMT-99"/>
      <use x="405.453125" xlink:href="#TimesNewRomanPS-BoldMT-121"/>
      <use x="455.453125" xlink:href="#TimesNewRomanPS-BoldMT-32"/>
      <use x="480.453125" xlink:href="#TimesNewRomanPS-BoldMT-40"/>
      <use x="513.753906" xlink:href="#TimesNewRomanPS-BoldMT-72"/>
      <use x="591.537109" xlink:href="#TimesNewRomanPS-BoldMT-122"/>
      <use x="635.921875" xlink:href="#TimesNewRomanPS-BoldMT-41"/>
      <use x="669.222656" xlink:href="#TimesNewRomanPS-BoldMT-41"/>
     </g>
    </g>
   </g>
   <g id="matplotlib.axis_2">
    <g id="ytick_1">
     <g id="line2d_13">
      <path clip-path="url(#pd946669557)" d="M 72 378 
L 518.4 378 
" style="fill:none;stroke:#b0b0b0;stroke-linecap:square;stroke-width:0.8;"/>
     </g>
     <g id="line2d_14">
      <defs>
       <path d="M 0 0 
L -3.5 0 
" id="m4b0226f688" style="stroke:#000000;stroke-width:0.8;"/>
      </defs>
      <g>
       <use style="stroke:#000000;stroke-width:0.8;" x="72" xlink:href="#m4b0226f688" y="378"/>
      </g>
     </g>
     <g id="text_8">
      <!-- 0.0 -->
      <defs>
       <path d="M 12.5 15.046875 
Q 15.921875 15.046875 18.28125 12.640625 
Q 20.65625 10.25 20.65625 6.890625 
Q 20.65625 3.515625 18.265625 1.140625 
Q 15.875 -1.21875 12.5 -1.21875 
Q 9.125 -1.21875 6.75 1.140625 
Q 4.390625 3.515625 4.390625 6.890625 
Q 4.390625 10.25 6.75 12.640625 
Q 9.125 15.046875 12.5 15.046875 
z
" id="TimesNewRomanPS-BoldMT-46"/>
      </defs>
      <g transform="translate(40 384.621875)scale(0.2 -0.2)">
       <use xlink:href="#TimesNewRomanPS-BoldMT-48"/>
       <use x="50" xlink:href="#TimesNewRomanPS-BoldMT-46"/>
       <use x="75" xlink:href="#TimesNewRomanPS-BoldMT-48"/>
      </g>
     </g>
    </g>
    <g id="ytick_2">
     <g id="line2d_15">
      <path clip-path="url(#pd946669557)" d="M 72 312.768 
L 518.4 312.768 
" style="fill:none;stroke:#b0b0b0;stroke-linecap:square;stroke-width:0.8;"/>
     </g>
     <g id="line2d_16">
      <g>
       <use style="stroke:#000000;stroke-width:0.8;" x="72" xlink:href="#m4b0226f688" y="312.768"/>
      </g>
     </g>
     <g id="text_9">
      <!-- 0.2 -->
      <g transform="translate(40 319.389875)scale(0.2 -0.2)">
       <use xlink:href="#TimesNewRomanPS-BoldMT-48"/>
       <use x="50" xlink:href="#TimesNewRomanPS-BoldMT-46"/>
       <use x="75" xlink:href="#TimesNewRomanPS-BoldMT-50"/>
      </g>
     </g>
    </g>
    <g id="ytick_3">
     <g id="line2d_17">
      <path clip-path="url(#pd946669557)" d="M 72 247.536 
L 518.4 247.536 
" style="fill:none;stroke:#b0b0b0;stroke-linecap:square;stroke-width:0.8;"/>
     </g>
     <g id="line2d_18">
      <g>
       <use style="stroke:#000000;stroke-width:0.8;" x="72" xlink:href="#m4b0226f688" y="247.536"/>
      </g>
     </g>
     <g id="text_10">
      <!-- 0.4 -->
      <g transform="translate(40 254.157875)scale(0.2 -0.2)">
       <use xlink:href="#TimesNewRomanPS-BoldMT-48"/>
       <use x="50" xlink:href="#TimesNewRomanPS-BoldMT-46"/>
       <use x="75" xlink:href="#TimesNewRomanPS-BoldMT-52"/>
      </g>
     </g>
    </g>
    <g id="ytick_4">
     <g id="line2d_19">
      <path clip-path="url(#pd946669557)" d="M 72 182.304 
L 518.4 182.304 
" style="fill:none;stroke:#b0b0b0;stroke-linecap:square;stroke-width:0.8;"/>
     </g>
     <g id="line2d_20">
      <g>
       <use style="stroke:#000000;stroke-width:0.8;" x="72" xlink:href="#m4b0226f688" y="182.304"/>
      </g>
     </g>
     <g id="text_11">
      <!-- 0.6 -->
      <g transform="translate(40 188.925875)scale(0.2 -0.2)">
       <use xlink:href="#TimesNewRomanPS-BoldMT-48"/>
       <use x="50" xlink:href="#TimesNewRomanPS-BoldMT-46"/>
       <use x="75" xlink:href="#TimesNewRomanPS-BoldMT-54"/>
      </g>
     </g>
    </g>
    <g id="ytick_5">
     <g id="line2d_21">
      <path clip-path="url(#pd946669557)" d="M 72 117.072 
L 518.4 117.072 
" style="fill:none;stroke:#b0b0b0;stroke-linecap:square;stroke-width:0.8;"/>
     </g>
     <g id="line2d_22">
      <g>
       <use style="stroke:#000000;stroke-width:0.8;" x="72" xlink:href="#m4b0226f688" y="117.072"/>
      </g>
     </g>
     <g id="text_12">
      <!-- 0.8 -->
      <g transform="translate(40 123.693875)scale(0.2 -0.2)">
       <use xlink:href="#TimesNewRomanPS-BoldMT-48"/>
       <use x="50" xlink:href="#TimesNewRomanPS-BoldMT-46"/>
       <use x="75" xlink:href="#TimesNewRomanPS-BoldMT-56"/>
      </g>
     </g>
    </g>
    <g id="ytick_6">
     <g id="line2d_23">
      <path clip-path="url(#pd946669557)" d="M 72 51.84 
L 518.4 51.84 
" style="fill:none;stroke:#b0b0b0;stroke-linecap:square;stroke-width:0.8;"/>
     </g>
     <g id="line2d_24">
      <g>
       <use style="stroke:#000000;stroke-width:0.8;" x="72" xlink:href="#m4b0226f688" y="51.84"/>
      </g>
     </g>
     <g id="text_13">
      <!-- 1.0 -->
      <g transform="translate(40 58.461875)scale(0.2 -0.2)">
       <use xlink:href="#TimesNewRomanPS-BoldMT-49"/>
       <use x="50" xlink:href="#TimesNewRomanPS-BoldMT-46"/>
       <use x="75" xlink:href="#TimesNewRomanPS-BoldMT-48"/>
      </g>
     </g>
    </g>
    <g id="text_14">
     <!-- Amplitude -->
     <defs>
      <path d="M 41.609375 18.84375 
L 18.21875 18.84375 
L 15.4375 12.40625 
Q 14.0625 9.1875 14.0625 7.078125 
Q 14.0625 4.296875 16.3125 2.984375 
Q 17.625 2.203125 22.796875 1.8125 
L 22.796875 0 
L 0.78125 0 
L 0.78125 1.8125 
Q 4.34375 2.34375 6.640625 4.75 
Q 8.9375 7.171875 12.3125 14.75 
L 35.984375 67.578125 
L 36.921875 67.578125 
L 60.796875 13.28125 
Q 64.203125 5.5625 66.40625 3.5625 
Q 68.0625 2.046875 71.09375 1.8125 
L 71.09375 0 
L 39.0625 0 
L 39.0625 1.8125 
L 40.375 1.8125 
Q 44.234375 1.8125 45.796875 2.875 
Q 46.875 3.65625 46.875 5.125 
Q 46.875 6 46.578125 6.9375 
Q 46.484375 7.375 45.125 10.59375 
z
M 39.9375 22.46875 
L 30.078125 45.265625 
L 19.921875 22.46875 
z
" id="TimesNewRomanPS-BoldMT-65"/>
      <path d="M 22.3125 45.65625 
L 22.3125 39.65625 
Q 26.078125 43.75 29.265625 45.375 
Q 32.46875 47.015625 36.28125 47.015625 
Q 40.671875 47.015625 43.640625 44.96875 
Q 46.625 42.921875 48.25 38.71875 
Q 52.15625 43.109375 55.734375 45.0625 
Q 59.328125 47.015625 63.234375 47.015625 
Q 67.96875 47.015625 70.765625 44.84375 
Q 73.578125 42.671875 74.671875 39.328125 
Q 75.78125 35.984375 75.78125 28.65625 
L 75.78125 9.96875 
Q 75.78125 4.6875 76.734375 3.421875 
Q 77.6875 2.15625 80.71875 1.765625 
L 80.71875 0 
L 57.125 0 
L 57.125 1.765625 
Q 59.90625 2 61.234375 3.90625 
Q 62.109375 5.21875 62.109375 9.96875 
L 62.109375 29.59375 
Q 62.109375 35.6875 61.625 37.34375 
Q 61.140625 39.015625 60.078125 39.8125 
Q 59.03125 40.625 57.625 40.625 
Q 55.515625 40.625 53.359375 39.078125 
Q 51.21875 37.546875 49.03125 34.46875 
L 49.03125 9.96875 
Q 49.03125 5.03125 49.859375 3.765625 
Q 50.984375 1.953125 54.15625 1.765625 
L 54.15625 0 
L 30.515625 0 
L 30.515625 1.765625 
Q 32.421875 1.859375 33.515625 2.703125 
Q 34.625 3.5625 34.984375 4.75 
Q 35.359375 5.953125 35.359375 9.96875 
L 35.359375 29.59375 
Q 35.359375 35.796875 34.859375 37.359375 
Q 34.375 38.921875 33.21875 39.796875 
Q 32.078125 40.671875 30.765625 40.671875 
Q 28.8125 40.671875 27.203125 39.65625 
Q 24.90625 38.140625 22.3125 34.46875 
L 22.3125 9.96875 
Q 22.3125 5.125 23.265625 3.578125 
Q 24.21875 2.046875 27.25 1.765625 
L 27.25 0 
L 3.71875 0 
L 3.71875 1.765625 
Q 6.59375 2.046875 7.8125 3.609375 
Q 8.640625 4.6875 8.640625 9.96875 
L 8.640625 35.75 
Q 8.640625 40.921875 7.6875 42.1875 
Q 6.734375 43.453125 3.71875 43.84375 
L 3.71875 45.65625 
z
" id="TimesNewRomanPS-BoldMT-109"/>
      <path d="M 21.046875 4.640625 
L 21.046875 -12.359375 
Q 21.046875 -15.875 21.609375 -17.140625 
Q 22.171875 -18.40625 23.34375 -18.984375 
Q 24.515625 -19.578125 27.9375 -19.578125 
L 27.9375 -21.390625 
L 1.90625 -21.390625 
L 1.90625 -19.578125 
Q 4.9375 -19.484375 6.390625 -17.875 
Q 7.375 -16.75 7.375 -12.0625 
L 7.375 36.140625 
Q 7.375 40.96875 6.25 42.3125 
Q 5.125 43.65625 1.90625 43.84375 
L 1.90625 45.65625 
L 21.046875 45.65625 
L 21.046875 39.65625 
Q 23.4375 43.171875 25.921875 44.734375 
Q 29.5 47.015625 33.6875 47.015625 
Q 38.71875 47.015625 42.84375 43.84375 
Q 46.96875 40.671875 49.109375 35.078125 
Q 51.265625 29.5 51.265625 23.046875 
Q 51.265625 16.109375 49.046875 10.375 
Q 46.828125 4.640625 42.59375 1.625 
Q 38.375 -1.375 33.203125 -1.375 
Q 29.4375 -1.375 26.171875 0.296875 
Q 23.734375 1.5625 21.046875 4.640625 
z
M 21.046875 9.578125 
Q 25.25 3.609375 30.03125 3.609375 
Q 32.671875 3.609375 34.375 6.390625 
Q 36.921875 10.5 36.921875 22.015625 
Q 36.921875 33.84375 34.125 38.1875 
Q 32.28125 41.0625 29.15625 41.0625 
Q 24.21875 41.0625 21.046875 33.9375 
z
" id="TimesNewRomanPS-BoldMT-112"/>
      <path d="M 21.234375 66.21875 
L 21.234375 9.46875 
Q 21.234375 4.640625 22.359375 3.296875 
Q 23.484375 1.953125 26.765625 1.765625 
L 26.765625 0 
L 2.09375 0 
L 2.09375 1.765625 
Q 5.125 1.859375 6.59375 3.515625 
Q 7.5625 4.640625 7.5625 9.46875 
L 7.5625 56.734375 
Q 7.5625 61.53125 6.4375 62.859375 
Q 5.328125 64.203125 2.09375 64.40625 
L 2.09375 66.21875 
z
" id="TimesNewRomanPS-BoldMT-108"/>
      <path d="M 14.359375 67.78125 
Q 17.53125 67.78125 19.71875 65.546875 
Q 21.921875 63.328125 21.921875 60.203125 
Q 21.921875 57.078125 19.703125 54.875 
Q 17.484375 52.6875 14.359375 52.6875 
Q 11.234375 52.6875 9.03125 54.875 
Q 6.84375 57.078125 6.84375 60.203125 
Q 6.84375 63.328125 9.03125 65.546875 
Q 11.234375 67.78125 14.359375 67.78125 
z
M 21.1875 45.65625 
L 21.1875 9.46875 
Q 21.1875 4.640625 22.3125 3.296875 
Q 23.4375 1.953125 26.703125 1.765625 
L 26.703125 0 
L 2.046875 0 
L 2.046875 1.765625 
Q 5.078125 1.859375 6.546875 3.515625 
Q 7.515625 4.640625 7.515625 9.46875 
L 7.515625 36.140625 
Q 7.515625 40.96875 6.390625 42.3125 
Q 5.28125 43.65625 2.046875 43.84375 
L 2.046875 45.65625 
z
" id="TimesNewRomanPS-BoldMT-105"/>
      <path d="M 21.484375 62.359375 
L 21.484375 45.65625 
L 32.328125 45.65625 
L 32.328125 40.828125 
L 21.484375 40.828125 
L 21.484375 12.640625 
Q 21.484375 8.6875 21.84375 7.53125 
Q 22.21875 6.390625 23.140625 5.6875 
Q 24.078125 4.984375 24.859375 4.984375 
Q 28.03125 4.984375 30.859375 9.8125 
L 32.328125 8.734375 
Q 28.375 -0.640625 19.484375 -0.640625 
Q 15.140625 -0.640625 12.125 1.78125 
Q 9.125 4.203125 8.296875 7.171875 
Q 7.8125 8.84375 7.8125 16.15625 
L 7.8125 40.828125 
L 1.859375 40.828125 
L 1.859375 42.53125 
Q 8.015625 46.875 12.328125 51.65625 
Q 16.65625 56.453125 19.875 62.359375 
z
" id="TimesNewRomanPS-BoldMT-116"/>
      <path d="M 47.75 66.21875 
L 47.75 13.671875 
Q 47.75 8.34375 48.046875 7.375 
Q 48.4375 5.765625 49.53125 4.984375 
Q 50.640625 4.203125 53.375 4 
L 53.375 2.390625 
L 34.078125 -1.375 
L 34.078125 5.859375 
Q 30.609375 1.65625 27.90625 0.140625 
Q 25.203125 -1.375 21.78125 -1.375 
Q 13.03125 -1.375 7.953125 6.453125 
Q 3.859375 12.796875 3.859375 22.015625 
Q 3.859375 29.390625 6.390625 35.21875 
Q 8.9375 41.0625 13.359375 44.03125 
Q 17.78125 47.015625 22.859375 47.015625 
Q 26.125 47.015625 28.65625 45.75 
Q 31.203125 44.484375 34.078125 41.3125 
L 34.078125 55.078125 
Q 34.078125 60.296875 33.640625 61.375 
Q 33.0625 62.796875 31.890625 63.46875 
Q 30.71875 64.15625 27.484375 64.15625 
L 27.484375 66.21875 
z
M 34.078125 35.25 
Q 30.46875 42.1875 25.25 42.1875 
Q 23.4375 42.1875 22.265625 41.21875 
Q 20.453125 39.703125 19.3125 35.890625 
Q 18.171875 32.078125 18.171875 24.21875 
Q 18.171875 15.578125 19.4375 11.421875 
Q 20.703125 7.28125 22.90625 5.421875 
Q 24.03125 4.5 25.984375 4.5 
Q 30.28125 4.5 34.078125 11.234375 
z
" id="TimesNewRomanPS-BoldMT-100"/>
     </defs>
     <g transform="translate(30.438437 274.147187)rotate(-90)scale(0.26 -0.26)">
      <use xlink:href="#TimesNewRomanPS-BoldMT-65"/>
      <use x="72.216797" xlink:href="#TimesNewRomanPS-BoldMT-109"/>
      <use x="155.517578" xlink:href="#TimesNewRomanPS-BoldMT-112"/>
      <use x="211.132812" xlink:href="#TimesNewRomanPS-BoldMT-108"/>
      <use x="238.916016" xlink:href="#TimesNewRomanPS-BoldMT-105"/>
      <use x="266.699219" xlink:href="#TimesNewRomanPS-BoldMT-116"/>
      <use x="300" xlink:href="#TimesNewRomanPS-BoldMT-117"/>
      <use x="355.615234" xlink:href="#TimesNewRomanPS-BoldMT-100"/>
      <use x="411.230469" xlink:href="#TimesNewRomanPS-BoldMT-101"/>
     </g>
    </g>
   </g>
   <g id="line2d_25">
    <path clip-path="url(#pd946669557)" d="M 72 376.611748 
L 75.550269 377.217829 
L 77.325403 376.703149 
L 79.100537 377.121056 
L 80.875672 377.266777 
L 82.650806 377.199128 
L 86.201075 377.305664 
L 87.976209 377.638936 
L 89.751344 377.740189 
L 93.301612 377.127373 
L 95.076747 376.674077 
L 96.851881 376.618399 
L 98.627015 375.753095 
L 100.40215 374.414647 
L 102.177284 372.238975 
L 103.952418 368.819515 
L 105.727553 360.96085 
L 107.502687 331.875226 
L 109.277821 231.104766 
L 111.052956 342.125145 
L 112.82809 354.977961 
L 114.603225 360.12241 
L 116.378359 362.600939 
L 118.153493 364.134946 
L 119.928628 364.773907 
L 121.703762 364.361469 
L 125.254031 364.157119 
L 127.029165 364.098731 
L 128.804299 363.347127 
L 130.579434 361.674952 
L 132.354568 360.891801 
L 135.904837 356.418036 
L 139.455106 344.557081 
L 141.23024 331.820029 
L 143.005374 300.956259 
L 144.780509 125.412031 
L 146.555643 200.680797 
L 148.330777 312.178195 
L 150.105912 337.808706 
L 151.881046 349.500777 
L 153.65618 354.894066 
L 155.431315 359.010279 
L 157.206449 362.163376 
L 158.981583 368.034241 
L 160.756718 364.571376 
L 162.531852 365.102549 
L 166.082121 365.916809 
L 167.857255 365.298942 
L 169.63239 361.185585 
L 171.407524 363.706354 
L 173.182658 361.85263 
L 174.957793 358.736505 
L 176.732927 353.323689 
L 178.508061 342.649558 
L 180.283196 312.962133 
L 182.05833 51.84 
L 183.833464 273.950069 
L 185.608599 335.00814 
L 187.383733 350.586087 
L 189.158867 357.985669 
L 190.934002 362.463297 
L 192.709136 364.430075 
L 194.484271 366.190153 
L 196.259405 367.597791 
L 198.034539 369.213645 
L 201.584808 370.254588 
L 203.359942 371.069541 
L 206.910211 371.896538 
L 208.685345 372.678912 
L 210.46048 373.043346 
L 214.010748 373.26261 
L 215.785883 372.096022 
L 217.561017 367.873226 
L 219.336151 315.390011 
L 221.111286 361.125958 
L 222.88642 368.211059 
L 224.661555 369.969391 
L 226.436689 370.982946 
L 228.211823 371.191389 
L 229.986958 371.614419 
L 233.537226 372.177463 
L 237.087495 372.119398 
L 238.862629 371.861729 
L 242.412898 371.636948 
L 244.188032 370.879356 
L 245.963167 369.752436 
L 247.738301 369.931246 
L 249.513436 368.538558 
L 251.28857 366.67767 
L 253.063704 362.260137 
L 254.838839 348.759223 
L 256.613973 216.583739 
L 258.389107 363.514929 
L 260.164242 370.787762 
L 261.939376 373.490808 
L 263.71451 375.635921 
L 265.489645 376.178164 
L 267.264779 375.347294 
L 269.039913 376.767463 
L 270.815048 377.656159 
L 272.590182 376.52196 
L 274.365317 376.481753 
L 276.140451 375.870551 
L 277.915585 376.071587 
L 281.465854 374.569917 
L 283.240988 374.366641 
L 285.016123 372.994098 
L 286.791257 371.972779 
L 288.566391 370.014168 
L 290.341526 365.244821 
L 292.11666 352.841242 
L 293.891794 243.604538 
L 295.666929 359.372769 
L 297.442063 367.886133 
L 299.217197 370.852387 
L 300.992332 372.588036 
L 302.767466 373.748308 
L 304.542601 374.430649 
L 306.317735 374.677306 
L 308.092869 376.048514 
L 311.643138 376.227138 
L 315.193407 376.530317 
L 318.743675 377.095856 
L 322.293944 376.978712 
L 324.069078 376.648973 
L 325.844213 375.748249 
L 327.619347 374.577237 
L 329.394482 372.489375 
L 331.169616 314.838006 
L 332.94475 369.138995 
L 334.719885 373.895191 
L 336.495019 375.282286 
L 338.270153 375.80123 
L 340.045288 375.737719 
L 341.820422 376.238173 
L 343.595556 376.534125 
L 345.370691 376.396823 
L 347.145825 376.478557 
L 348.920959 376.849844 
L 350.696094 376.995484 
L 356.021497 377.043367 
L 359.571766 377.601634 
L 361.3469 377.129994 
L 364.897169 377.266348 
L 366.672303 376.649831 
L 368.447437 372.823309 
L 370.222572 376.33598 
L 373.77284 377.064201 
L 375.547975 376.82697 
L 377.323109 377.211907 
L 379.098243 377.260527 
L 380.873378 377.18782 
L 382.648512 377.362068 
L 384.423647 377.08239 
L 386.198781 377.429402 
L 387.973915 376.720861 
L 389.74905 377.031089 
L 391.524184 377.008124 
L 393.299318 377.297707 
L 395.074453 377.147803 
L 396.849587 376.689954 
L 398.624721 376.786643 
L 400.399856 376.656211 
L 402.17499 375.845477 
L 403.950124 374.061997 
L 405.725259 343.477707 
L 407.500393 372.654486 
L 409.275528 375.83626 
L 411.050662 376.688613 
L 414.600931 377.328929 
L 416.376065 377.253998 
L 419.926334 377.449497 
L 421.701468 377.251832 
L 423.476602 377.480091 
L 425.251737 377.513518 
L 427.026871 377.408529 
L 430.57714 377.745803 
L 432.352274 377.404853 
L 434.127408 377.294003 
L 437.677677 376.450204 
L 439.452812 375.589379 
L 441.227946 374.049286 
L 443.00308 359.967738 
L 444.778215 366.276022 
L 446.553349 373.619374 
L 448.328483 374.986763 
L 450.103618 375.768619 
L 451.878752 376.365263 
L 453.653886 376.130419 
L 455.429021 376.450728 
L 458.979289 376.631303 
L 460.754424 376.808131 
L 462.529558 376.678643 
L 464.304693 376.833444 
L 466.079827 376.67905 
L 467.854961 376.884101 
L 469.630096 376.667611 
L 473.180364 376.876983 
L 476.730633 376.630159 
L 478.505767 374.741113 
L 480.280902 374.507128 
L 482.056036 370.073422 
L 483.83117 377.117341 
L 485.606305 377.759825 
L 487.381439 377.820856 
L 490.931708 377.664424 
L 492.706842 377.577751 
L 494.481977 377.703708 
L 496.257111 377.595869 
L 498.032245 377.678787 
L 501.582514 377.574359 
L 506.907917 377.567824 
L 508.683051 377.662741 
L 512.23332 377.500225 
L 514.008454 377.542537 
L 515.783589 377.267017 
L 517.558723 377.450151 
L 519.333858 377.828946 
L 519.333858 377.828946 
" style="fill:none;stroke:#1f77b4;stroke-linecap:square;stroke-width:1.5;"/>
   </g>
   <g id="line2d_26">
    <path clip-path="url(#pd946669557)" d="M 72 378 
L 81.79848 375.172751 
L 86.508 373.579452 
L 90.01224 372.168099 
L 92.77992 370.822525 
L 95.03424 369.48721 
L 96.90912 368.124686 
L 98.49384 366.703397 
L 99.85536 365.187506 
L 101.03832 363.541889 
L 102.08736 361.703138 
L 103.0248 359.609855 
L 103.87296 357.163959 
L 104.65416 354.199139 
L 105.34608 350.681525 
L 105.99336 346.172136 
L 106.57368 340.475334 
L 107.10936 332.836441 
L 107.57808 322.850067 
L 108.02448 308.134455 
L 108.42624 287.163222 
L 108.9396 246.450822 
L 109.25208 229.938722 
L 109.2744 229.819652 
L 109.31904 230.097231 
L 109.43064 233.631128 
L 109.69848 252.765001 
L 110.32344 296.356183 
L 110.81448 315.427567 
L 111.32784 327.37017 
L 111.88584 335.558764 
L 112.48848 341.374494 
L 113.15808 345.751358 
L 113.87232 348.987384 
L 114.6312 351.424555 
L 115.43472 353.279599 
L 116.28288 354.694745 
L 117.17568 355.765836 
L 118.13544 356.574058 
L 119.16216 357.147838 
L 120.25584 357.506891 
L 121.4388 357.663604 
L 122.73336 357.607095 
L 124.09488 357.323058 
L 125.52336 356.793702 
L 126.95184 356.025839 
L 128.358 355.018208 
L 129.71952 353.769448 
L 131.0364 352.253964 
L 132.28632 350.466219 
L 133.44696 348.415701 
L 134.56296 345.979461 
L 135.612 343.134958 
L 136.59408 339.809685 
L 137.5092 335.914583 
L 138.37968 331.206307 
L 139.1832 325.617337 
L 139.94208 318.737092 
L 140.65632 310.137225 
L 141.32592 299.205759 
L 141.95088 285.066323 
L 142.5312 266.495533 
L 143.06688 241.960794 
L 143.60256 206.866367 
L 144.74088 126.185735 
L 144.78552 126.015586 
L 144.83016 126.271598 
L 144.94176 128.728276 
L 145.16496 140.33653 
L 145.72296 186.399423 
L 146.41488 235.079068 
L 147.03984 263.76656 
L 147.68712 283.520082 
L 148.35672 297.567454 
L 149.09328 308.484912 
L 149.87448 316.838685 
L 150.70032 323.364247 
L 151.5708 328.549696 
L 152.50824 332.815802 
L 153.49032 336.264314 
L 154.51704 339.073014 
L 155.5884 341.368206 
L 156.7044 343.240544 
L 157.84272 344.729477 
L 159.02568 345.91883 
L 160.23096 346.822367 
L 161.45856 347.47016 
L 162.70848 347.878712 
L 163.93608 348.0503 
L 165.16368 347.998883 
L 166.36896 347.724668 
L 167.5296 347.233806 
L 168.66792 346.507826 
L 169.7616 345.542091 
L 170.81064 344.315464 
L 171.81504 342.796406 
L 172.7748 340.940956 
L 173.71224 338.627484 
L 174.60504 335.803236 
L 175.4532 332.343813 
L 176.25672 328.07677 
L 176.99328 322.938347 
L 177.6852 316.523223 
L 178.33248 308.399027 
L 178.93512 297.931986 
L 179.49312 284.173632 
L 180.00648 265.685304 
L 180.4752 240.309339 
L 180.9216 202.782825 
L 181.368 143.650628 
L 182.0376 51.976207 
L 182.05992 51.84 
L 182.08224 52.029754 
L 182.17152 55.965679 
L 182.3724 79.853698 
L 183.35448 217.253576 
L 183.86784 252.876482 
L 184.42584 276.918054 
L 185.02848 293.779879 
L 185.67576 306.073175 
L 186.39 315.592951 
L 187.1712 323.080428 
L 187.99704 328.92346 
L 188.88984 333.695415 
L 189.8496 337.635437 
L 190.87632 340.921177 
L 191.97 343.68565 
L 193.13064 346.029265 
L 194.38056 348.060983 
L 195.71976 349.820675 
L 197.17056 351.362929 
L 198.73296 352.701753 
L 200.42928 353.86167 
L 202.2372 354.828172 
L 204.1344 355.590347 
L 206.05392 356.122113 
L 207.88416 356.400766 
L 209.51352 356.431638 
L 210.91968 356.244848 
L 212.12496 355.863624 
L 213.12936 355.317058 
L 213.99984 354.590417 
L 214.75872 353.665158 
L 215.45064 352.453843 
L 216.0756 350.880568 
L 216.6336 348.847635 
L 217.14696 346.093927 
L 217.61568 342.286423 
L 218.03976 336.916752 
L 218.44152 328.738417 
L 218.8656 314.866705 
L 219.28968 302.049357 
L 219.33432 301.871925 
L 219.37896 302.033776 
L 219.49056 303.831389 
L 219.78072 313.927906 
L 220.33872 331.462298 
L 220.80744 339.643004 
L 221.3208 344.962607 
L 221.8788 348.579526 
L 222.50376 351.234953 
L 223.19568 353.231983 
L 223.95456 354.768902 
L 224.82504 356.031229 
L 225.80712 357.06196 
L 226.94544 357.93037 
L 228.28464 358.666048 
L 229.86936 359.276634 
L 231.74424 359.753947 
L 233.88696 360.065723 
L 236.20824 360.177558 
L 238.52952 360.069367 
L 240.69456 359.750704 
L 242.61408 359.249979 
L 244.28808 358.589588 
L 245.73888 357.783565 
L 247.01112 356.824924 
L 248.12712 355.708635 
L 249.13152 354.388983 
L 250.04664 352.81124 
L 250.87248 350.938023 
L 251.63136 348.658223 
L 252.3456 345.770132 
L 252.99288 342.182728 
L 253.59552 337.505226 
L 254.1312 331.548748 
L 254.62224 323.528413 
L 255.06864 312.45286 
L 255.4704 296.842892 
L 255.84984 273.210617 
L 256.60872 211.285367 
L 256.698 212.909793 
L 256.87656 225.276559 
L 257.72472 294.94491 
L 258.19344 313.186617 
L 258.7068 325.159885 
L 259.2648 333.381976 
L 259.88976 339.456215 
L 260.55936 343.911623 
L 261.29592 347.37922 
L 262.09944 350.117638 
L 262.96992 352.30889 
L 263.90736 354.082204 
L 264.93408 355.558394 
L 266.0724 356.806657 
L 267.32232 357.850582 
L 268.72848 358.736123 
L 270.3132 359.46944 
L 272.07648 360.03977 
L 274.01832 360.432613 
L 276.04944 360.617316 
L 278.05824 360.580081 
L 279.93312 360.327765 
L 281.60712 359.883876 
L 283.08024 359.267122 
L 284.3748 358.483591 
L 285.51312 357.530707 
L 286.51752 356.396305 
L 287.41032 355.05435 
L 288.23616 353.404662 
L 288.99504 351.374587 
L 289.68696 348.871973 
L 290.33424 345.653199 
L 290.91456 341.612198 
L 291.45024 336.277669 
L 291.94128 329.071835 
L 292.38768 319.11027 
L 292.81176 304.145457 
L 293.21352 281.27778 
L 293.88312 238.440978 
L 293.90544 238.462061 
L 293.9724 239.549409 
L 294.12864 247.208175 
L 295.2 313.024374 
L 295.69104 326.15435 
L 296.22672 335.004533 
L 296.82936 341.425216 
L 297.47664 346.056467 
L 298.19088 349.618592 
L 298.97208 352.407949 
L 299.82024 354.629142 
L 300.75768 356.462926 
L 301.7844 357.983697 
L 302.92272 359.273875 
L 304.21728 360.400144 
L 305.6904 361.381151 
L 307.38672 362.238318 
L 309.35088 362.976444 
L 311.6052 363.581078 
L 314.08272 364.014196 
L 316.6272 364.235513 
L 318.9708 364.223271 
L 320.95728 364.000522 
L 322.58664 363.601759 
L 323.90352 363.056278 
L 324.97488 362.378734 
L 325.89 361.536373 
L 326.6712 360.512673 
L 327.36312 359.231774 
L 327.98808 357.584723 
L 328.54608 355.46099 
L 329.05944 352.571751 
L 329.52816 348.534281 
L 329.95224 342.74384 
L 330.33168 334.367124 
L 330.75576 319.39319 
L 331.1352 307.921657 
L 331.17984 307.82496 
L 331.20216 307.916183 
L 331.31376 309.683669 
L 331.5816 319.36624 
L 332.1396 337.84269 
L 332.60832 346.267325 
L 333.12168 351.648374 
L 333.67968 355.262807 
L 334.30464 357.894836 
L 334.99656 359.864257 
L 335.75544 361.377004 
L 336.62592 362.621916 
L 337.63032 363.666241 
L 338.81328 364.56846 
L 340.24176 365.36991 
L 342.00504 366.096093 
L 344.23704 366.76629 
L 347.11632 367.389129 
L 350.84376 367.958466 
L 355.48632 368.436085 
L 360.19584 368.705311 
L 363.36528 368.687444 
L 365.10624 368.477193 
L 366.13296 368.142975 
L 366.80256 367.698616 
L 367.2936 367.112631 
L 367.74 366.209083 
L 368.47656 364.619176 
L 368.6328 364.816037 
L 369.01224 365.874909 
L 369.57024 367.164143 
L 370.10592 367.861133 
L 370.77552 368.363205 
L 371.69064 368.756863 
L 373.07448 369.090848 
L 375.35112 369.387052 
L 379.19016 369.639628 
L 384.74784 369.776358 
L 390.10464 369.69742 
L 393.966 369.432047 
L 396.62208 369.038433 
L 398.49696 368.54495 
L 399.85848 367.966805 
L 400.90752 367.286804 
L 401.75568 366.469962 
L 402.4476 365.494117 
L 403.05024 364.249124 
L 403.58592 362.597498 
L 404.05464 360.392551 
L 404.47872 357.268582 
L 404.88048 352.477639 
L 405.32688 343.936132 
L 405.684 338.258532 
L 405.72864 338.177621 
L 405.77328 338.289315 
L 405.9072 339.678798 
L 406.30896 347.87962 
L 406.8 355.50662 
L 407.26872 359.614084 
L 407.78208 362.302896 
L 408.3624 364.202256 
L 409.00968 365.578831 
L 409.74624 366.630256 
L 410.61672 367.478398 
L 411.66576 368.179119 
L 412.98264 368.778051 
L 414.67896 369.293245 
L 416.93328 369.734789 
L 419.99112 370.095319 
L 423.94176 370.329915 
L 428.24952 370.365878 
L 431.82072 370.184947 
L 434.38752 369.844165 
L 436.19544 369.392874 
L 437.53464 368.839002 
L 438.56136 368.179729 
L 439.3872 367.386651 
L 440.07912 366.411098 
L 440.68176 365.171013 
L 441.23976 363.484806 
L 441.77544 361.100035 
L 442.512 356.551243 
L 442.89144 354.93098 
L 443.04768 354.848405 
L 443.1816 355.098476 
L 443.42712 356.185134 
L 444.92256 364.112611 
L 445.54752 365.807534 
L 446.23944 367.059819 
L 447.02064 368.020791 
L 447.93576 368.796033 
L 449.07408 369.459437 
L 450.52488 370.034409 
L 452.4444 370.542982 
L 455.10048 371.001256 
L 458.85024 371.40804 
L 464.14008 371.746627 
L 470.34504 371.92464 
L 474.7644 371.851765 
L 477.17496 371.612249 
L 478.58112 371.268894 
L 479.49624 370.829584 
L 480.14352 370.279241 
L 480.65688 369.542534 
L 481.10328 368.475415 
L 481.54968 366.760313 
L 482.0184 365.143262 
L 482.13 365.183714 
L 482.30856 365.669486 
L 483.40224 369.512192 
L 483.93792 370.345209 
L 484.5852 370.947226 
L 485.43336 371.420905 
L 486.61632 371.812077 
L 488.42424 372.155538 
L 491.3928 372.468583 
L 496.66032 372.77361 
L 506.61504 373.099818 
L 518.31072 373.284816 
L 518.37768 373.283783 
L 518.37768 373.283783 
" style="fill:none;stroke:#ff7f0e;stroke-linecap:square;stroke-width:1.5;"/>
   </g>
   <g id="patch_3">
    <path d="M 72 378 
L 72 51.84 
" style="fill:none;stroke:#000000;stroke-linecap:square;stroke-linejoin:miter;stroke-width:0.8;"/>
   </g>
   <g id="patch_4">
    <path d="M 518.4 378 
L 518.4 51.84 
" style="fill:none;stroke:#000000;stroke-linecap:square;stroke-linejoin:miter;stroke-width:0.8;"/>
   </g>
   <g id="patch_5">
    <path d="M 72 378 
L 518.4 378 
" style="fill:none;stroke:#000000;stroke-linecap:square;stroke-linejoin:miter;stroke-width:0.8;"/>
   </g>
   <g id="patch_6">
    <path d="M 72 51.84 
L 518.4 51.84 
" style="fill:none;stroke:#000000;stroke-linecap:square;stroke-linejoin:miter;stroke-width:0.8;"/>
   </g>
   <g id="text_15">
    <!-- Modeled Spectrum -->
    <defs>
     <path d="M 47.65625 22.5625 
L 65.625 66.21875 
L 92.578125 66.21875 
L 92.578125 64.40625 
L 90.4375 64.40625 
Q 87.5 64.40625 85.75 63.375 
Q 84.515625 62.703125 83.796875 61.078125 
Q 83.25 59.90625 83.25 54.984375 
L 83.25 11.328125 
Q 83.25 6.25 83.78125 4.984375 
Q 84.328125 3.71875 85.984375 2.765625 
Q 87.640625 1.8125 90.4375 1.8125 
L 92.578125 1.8125 
L 92.578125 0 
L 58.015625 0 
L 58.015625 1.8125 
L 60.15625 1.8125 
Q 63.09375 1.8125 64.84375 2.828125 
Q 66.0625 3.515625 66.796875 5.171875 
Q 67.328125 6.34375 67.328125 11.328125 
L 67.328125 60.40625 
L 41.9375 0 
L 40.765625 0 
L 14.984375 59.96875 
L 14.984375 13.328125 
Q 14.984375 8.453125 15.234375 7.328125 
Q 15.875 4.890625 18 3.34375 
Q 20.125 1.8125 24.65625 1.8125 
L 24.65625 0 
L 2 0 
L 2 1.8125 
L 2.6875 1.8125 
Q 4.890625 1.765625 6.78125 2.515625 
Q 8.6875 3.265625 9.65625 4.53125 
Q 10.640625 5.8125 11.1875 8.109375 
Q 11.28125 8.640625 11.28125 13.09375 
L 11.28125 54.984375 
Q 11.28125 60.015625 10.734375 61.25 
Q 10.203125 62.5 8.546875 63.453125 
Q 6.890625 64.40625 4.109375 64.40625 
L 2 64.40625 
L 2 66.21875 
L 29.046875 66.21875 
z
" id="TimesNewRomanPS-BoldMT-77"/>
     <path d="M 24.90625 47.015625 
Q 30.859375 47.015625 35.984375 43.9375 
Q 41.109375 40.875 43.765625 35.203125 
Q 46.4375 29.546875 46.4375 22.796875 
Q 46.4375 13.09375 41.5 6.546875 
Q 35.546875 -1.375 25.046875 -1.375 
Q 14.75 -1.375 9.171875 5.859375 
Q 3.609375 13.09375 3.609375 22.609375 
Q 3.609375 32.421875 9.296875 39.71875 
Q 14.984375 47.015625 24.90625 47.015625 
z
M 25.09375 43.5625 
Q 22.609375 43.5625 20.828125 41.671875 
Q 19.046875 39.796875 18.484375 34.25 
Q 17.921875 28.71875 17.921875 18.84375 
Q 17.921875 13.625 18.609375 9.078125 
Q 19.140625 5.609375 20.890625 3.796875 
Q 22.65625 2 24.90625 2 
Q 27.09375 2 28.5625 3.21875 
Q 30.46875 4.890625 31.109375 7.859375 
Q 32.078125 12.5 32.078125 26.609375 
Q 32.078125 34.90625 31.140625 38 
Q 30.21875 41.109375 28.421875 42.53125 
Q 27.15625 43.5625 25.09375 43.5625 
z
" id="TimesNewRomanPS-BoldMT-111"/>
     <path d="M 46.96875 67.71875 
L 47.515625 45.65625 
L 45.515625 45.65625 
Q 44.09375 53.953125 38.546875 59 
Q 33.015625 64.0625 26.5625 64.0625 
Q 21.578125 64.0625 18.671875 61.390625 
Q 15.765625 58.734375 15.765625 55.28125 
Q 15.765625 53.078125 16.796875 51.375 
Q 18.21875 49.078125 21.34375 46.828125 
Q 23.640625 45.21875 31.9375 41.109375 
Q 43.5625 35.40625 47.609375 30.328125 
Q 51.609375 25.25 51.609375 18.703125 
Q 51.609375 10.40625 45.140625 4.421875 
Q 38.671875 -1.5625 28.71875 -1.5625 
Q 25.59375 -1.5625 22.796875 -0.921875 
Q 20.015625 -0.296875 15.828125 1.46875 
Q 13.484375 2.4375 11.96875 2.4375 
Q 10.6875 2.4375 9.265625 1.453125 
Q 7.859375 0.484375 6.984375 -1.515625 
L 5.171875 -1.515625 
L 5.171875 23.484375 
L 6.984375 23.484375 
Q 9.125 12.9375 15.25 7.390625 
Q 21.390625 1.859375 28.46875 1.859375 
Q 33.9375 1.859375 37.1875 4.828125 
Q 40.4375 7.8125 40.4375 11.765625 
Q 40.4375 14.109375 39.1875 16.296875 
Q 37.9375 18.5 35.390625 20.484375 
Q 32.859375 22.46875 26.421875 25.640625 
Q 17.390625 30.078125 13.421875 33.203125 
Q 9.46875 36.328125 7.34375 40.1875 
Q 5.21875 44.046875 5.21875 48.6875 
Q 5.21875 56.59375 11.03125 62.15625 
Q 16.84375 67.71875 25.6875 67.71875 
Q 28.90625 67.71875 31.9375 66.9375 
Q 34.234375 66.359375 37.53125 64.765625 
Q 40.828125 63.1875 42.140625 63.1875 
Q 43.40625 63.1875 44.140625 63.96875 
Q 44.875 64.75 45.515625 67.71875 
z
" id="TimesNewRomanPS-BoldMT-83"/>
    </defs>
    <g transform="translate(160.928672 45.84)scale(0.33 -0.33)">
     <use xlink:href="#TimesNewRomanPS-BoldMT-77"/>
     <use x="94.384766" xlink:href="#TimesNewRomanPS-BoldMT-111"/>
     <use x="144.384766" xlink:href="#TimesNewRomanPS-BoldMT-100"/>
     <use x="200" xlink:href="#TimesNewRomanPS-BoldMT-101"/>
     <use x="244.384766" xlink:href="#TimesNewRomanPS-BoldMT-108"/>
     <use x="272.167969" xlink:href="#TimesNewRomanPS-BoldMT-101"/>
     <use x="316.552734" xlink:href="#TimesNewRomanPS-BoldMT-100"/>
     <use x="372.167969" xlink:href="#TimesNewRomanPS-BoldMT-32"/>
     <use x="397.167969" xlink:href="#TimesNewRomanPS-BoldMT-83"/>
     <use x="452.783203" xlink:href="#TimesNewRomanPS-BoldMT-112"/>
     <use x="508.398438" xlink:href="#TimesNewRomanPS-BoldMT-101"/>
     <use x="552.783203" xlink:href="#TimesNewRomanPS-BoldMT-99"/>
     <use x="597.167969" xlink:href="#TimesNewRomanPS-BoldMT-116"/>
     <use x="630.46875" xlink:href="#TimesNewRomanPS-BoldMT-114"/>
     <use x="674.853516" xlink:href="#TimesNewRomanPS-BoldMT-117"/>
     <use x="730.46875" xlink:href="#TimesNewRomanPS-BoldMT-109"/>
    </g>
   </g>
  </g>
 </g>
 <defs>
  <clipPath id="pd946669557">
   <rect height="326.16" width="446.4" x="72" y="51.84"/>
  </clipPath>
 </defs>
</svg>
